<svg width="134" height="134" viewBox="0 0 134 134" fill="none" xmlns="http://www.w3.org/2000/svg">
<path d="M128.647 24.2475C122.905 15.0169 114.014 11.2631 102.934 13.3943C96.0608 14.7143 90.4339 17.8747 88.621 18.9768C86.8084 17.8747 81.1812 14.7143 74.3053 13.3943C63.2256 11.2631 54.331 15.0169 48.5892 24.2475C47.1288 26.5967 45.9546 29.0217 45.0926 31.4616C39.2677 33.5626 34.2564 37.4377 30.5736 42.7115C26.7019 48.2516 24.6686 54.833 24.6887 61.7416C24.7117 69.0982 27.0799 76.0792 31.4213 81.7283L28.8783 84.4347C28.2426 84.2168 27.5695 84.0987 26.8822 84.0987C26.8766 84.0987 26.868 84.0987 26.8621 84.0987C25.1325 84.1048 23.5088 84.8224 22.2917 86.118L1.88527 107.824C0.164258 109.653 -0.434383 112.314 0.32176 114.769C0.636763 115.792 1.18666 116.737 1.91392 117.5C3.13377 118.784 4.75482 119.489 6.47583 119.489H6.49591C8.2255 119.483 9.84925 118.765 11.0664 117.47L31.473 95.7633C32.6928 94.4677 33.3601 92.7451 33.3544 90.9196C33.3515 90.184 33.2371 89.4696 33.0252 88.7913L35.5252 86.1302C40.4364 90.4746 46.4988 93.0418 52.9165 93.4717C53.3747 101.228 54.6289 107.18 56.7482 111.63C59.7723 117.972 64.5488 121.187 70.9522 121.187C85.4254 121.187 85.7233 104.643 85.9408 92.5605C86.0611 85.9547 86.1728 79.7124 88.5696 79.7124H88.5953H88.6154H88.6355H88.6612C91.058 79.7124 91.1697 85.9518 91.2873 92.5576C91.505 104.64 91.8026 121.187 106.276 121.187C110.692 121.187 114.369 119.637 117.201 116.586C124.982 108.2 124.649 90.3383 124.454 79.6668C124.394 76.4579 124.348 73.9268 124.537 72.6311C124.769 71.0297 125.949 68.5715 127.315 65.7257C131.737 56.5102 139.134 41.0979 128.647 24.2475ZM46.3271 33.5748C49.0389 32.6515 51.8798 32.1792 54.7692 32.167H54.8579C62.272 32.167 69.2481 35.2065 74.5116 40.7346C79.7951 46.2837 82.7161 53.6766 82.7389 61.5478C82.7876 77.7989 70.319 91.0618 54.9495 91.1132C54.646 91.1132 54.3423 91.1103 54.0361 91.0981C46.937 90.8801 40.2531 87.8436 35.2016 82.5337L35.1472 82.4793L35.0556 82.3825C29.8723 76.8485 27.0056 69.519 26.9829 61.7326C26.9398 48.8267 34.7146 37.5103 46.3271 33.5748ZM29.8492 94.0559L9.44241 115.765C8.6549 116.604 7.60677 117.067 6.49005 117.07C6.4844 117.07 6.48147 117.07 6.47583 117.07C5.36474 117.07 4.31955 116.613 3.52911 115.786C3.05096 115.287 2.7073 114.693 2.50106 114.024C2.0114 112.438 2.40087 110.718 3.51196 109.538L23.9186 87.8285C24.7061 86.99 25.7542 86.5267 26.8709 86.5235H26.8851C27.9962 86.5235 29.0414 86.9807 29.8319 87.8102C30.625 88.6428 31.0632 89.7507 31.0662 90.9313C31.0691 92.1119 30.6368 93.2171 29.8492 94.0559ZM31.871 86.5781C31.7366 86.4087 31.5962 86.2422 31.4443 86.0847C31.2925 85.9272 31.1379 85.7789 30.9748 85.6365L32.9221 83.5628L33.8184 84.5013L31.871 86.5781ZM125.276 64.6236C123.761 67.7811 122.567 70.2727 122.278 72.2557C122.06 73.7573 122.109 76.3821 122.169 79.7061C122.358 89.9992 122.679 107.222 115.571 114.884C113.151 117.494 110.113 118.759 106.281 118.759C100.826 118.759 97.4039 116.092 95.5166 110.364C93.8127 105.19 93.6895 98.4515 93.5837 92.5057C93.4377 84.3409 93.3088 77.284 88.6867 77.284C88.6438 77.284 88.6007 77.284 88.5578 77.284C83.933 77.284 83.8041 84.3438 83.6581 92.5086C83.5494 98.4544 83.4291 105.19 81.7223 110.364C79.8352 116.092 76.4131 118.759 70.9576 118.759C61.4186 118.759 56.2669 110.5 55.2217 93.5288C71.7338 93.3198 85.0842 79.0275 85.0328 61.5383C85.0071 53.0193 81.8455 45.021 76.1294 39.0147C70.4136 33.0084 62.8391 29.7147 54.7663 29.7417C52.4381 29.7508 50.1385 30.0385 47.9021 30.5954C48.6122 28.903 49.4828 27.2199 50.5052 25.5761C55.7686 17.1175 63.6153 13.8176 73.8387 15.7613C81.6366 17.2447 87.9538 21.368 88.014 21.4075L88.621 21.8071L89.228 21.4075C89.291 21.365 95.6084 17.2447 103.406 15.7613C113.627 13.8178 121.476 17.1177 126.737 25.5761C136.488 41.2551 129.741 55.3175 125.276 64.6236Z" fill="#615A9F"/>
<path d="M53.798 87.8951C53.9727 87.9041 54.1532 87.9102 54.3421 87.9163H54.345C54.5312 87.9192 54.7259 87.9224 54.9292 87.9224H54.9321H54.9351H54.938C68.6465 87.877 79.7605 76.049 79.7177 61.5598C79.6976 54.5393 77.0916 47.9488 72.381 42.999C67.6902 38.0704 61.4732 35.3608 54.8638 35.3608C54.8381 35.3608 54.8094 35.3608 54.7807 35.3608C51.0149 35.373 47.401 36.254 44.0332 37.9795C35.4793 42.3602 29.9695 51.6783 29.9982 61.7232C30.0408 75.816 40.4989 87.3109 53.798 87.8951ZM45.0294 40.1563C48.0849 38.5912 51.3667 37.792 54.7859 37.7827H54.8604C58.9841 37.7827 62.9417 38.9452 66.3982 41.1279C67.9675 42.1178 69.4338 43.3199 70.7653 44.7184C75.0409 49.2111 77.4064 55.1932 77.4262 61.5688C77.4291 62.8011 77.3461 64.0148 77.1771 65.1986C75.5533 76.6421 66.2091 85.4639 54.9319 85.5032C54.5596 85.5032 54.2275 85.4942 53.9039 85.4791C41.8218 84.9492 32.3289 74.514 32.2887 61.7202C32.263 52.5958 37.2629 44.1342 45.0294 40.1563Z" fill="url(#paint0_linear_1048_973)"/>
<path d="M60.0078 79.9632C60.0335 79.9632 60.0592 79.9662 60.0908 79.9662C61.1505 79.9662 64.6929 79.0216 67.9919 75.7369C68.4529 75.2797 68.4729 74.5107 68.0406 74.0265C67.6083 73.5391 66.8808 73.5178 66.4227 73.975C63.5419 76.8419 60.5952 77.5231 60.1082 77.5443C59.4868 77.5292 58.957 78.0317 58.9256 78.6917C58.8908 79.3578 59.3749 79.9269 60.0078 79.9632Z" fill="url(#paint1_linear_1048_973)"/>
<path d="M69.4734 69.7549C69.1699 70.3423 69.3732 71.0779 69.9288 71.3988C70.1034 71.4987 70.2925 71.547 70.4787 71.547C70.8823 71.547 71.2777 71.32 71.4839 70.9173C74.8603 64.4024 74.7314 56.5584 71.1518 50.4461C70.8196 49.877 70.1122 49.7015 69.5738 50.0555C69.0354 50.4066 68.8693 51.1544 69.2044 51.7235C72.3973 57.1763 72.5005 63.9181 69.4734 69.7549Z" fill="url(#paint2_linear_1048_973)"/>
<defs>
<linearGradient id="paint0_linear_1048_973" x1="79.7178" y1="59.8959" x2="29.998" y2="59.8959" gradientUnits="userSpaceOnUse">
<stop stop-color="#C69848"/>
<stop offset="0.25" stop-color="#F9D597"/>
<stop offset="0.505208" stop-color="#C69848"/>
<stop offset="0.739583" stop-color="#F9D597"/>
<stop offset="1" stop-color="#C69848"/>
</linearGradient>
<linearGradient id="paint1_linear_1048_973" x1="68.3517" y1="76.5962" x2="58.9238" y2="76.5962" gradientUnits="userSpaceOnUse">
<stop stop-color="#C69848"/>
<stop offset="0.510417" stop-color="#F9D597"/>
<stop offset="1" stop-color="#C69848"/>
</linearGradient>
<linearGradient id="paint2_linear_1048_973" x1="73.9292" y1="59.9899" x2="69.0312" y2="59.9899" gradientUnits="userSpaceOnUse">
<stop stop-color="#C69848"/>
<stop offset="0.510417" stop-color="#F9D597"/>
<stop offset="1" stop-color="#C69848"/>
</linearGradient>
</defs>
</svg>
