<svg width="26" height="26" viewBox="0 0 26 26" fill="none" xmlns="http://www.w3.org/2000/svg">
<path d="M3.80718 3.40762C4.0415 3.1733 4.42139 3.1733 4.65571 3.40762L22.192 20.9439C22.4263 21.1782 22.4263 21.5581 22.192 21.7924C21.9576 22.0267 21.5777 22.0267 21.3434 21.7924L3.80718 4.25614C3.57287 4.02183 3.57287 3.64193 3.80718 3.40762Z" fill="#1E1765"/>
<path d="M22.1918 3.40762C21.9575 3.1733 21.5776 3.1733 21.3433 3.40762L3.80707 20.9439C3.57275 21.1782 3.57275 21.5581 3.80707 21.7924C4.04138 22.0267 4.42128 22.0267 4.65559 21.7924L22.1918 4.25614C22.4262 4.02183 22.4262 3.64193 22.1918 3.40762Z" fill="#1E1765"/>
</svg>
