<svg width="100" height="100" viewBox="0 0 100 100" fill="none" xmlns="http://www.w3.org/2000/svg">
<path fill-rule="evenodd" clip-rule="evenodd" d="M79.2152 98.2369L79.2158 98.2364C81.4247 94.4525 85.0952 86.1225 84.6269 73.063C84.4863 69.8525 83.9836 64.3825 83.0852 56.8019C82.1491 48.8386 82.2763 40.764 83.4819 32.816C83.5119 32.5944 83.4224 32.3945 83.2374 32.2534L83.0691 32.1254L82.0986 27.1727C81.8663 25.9862 80.8208 25.1305 79.6008 25.1305H77.9258V16.253L78.3902 16.1757C82.1025 15.5569 84.9575 12.3299 84.9575 8.4466C84.9575 4.11831 81.4225 0.583247 77.0941 0.583247C72.7652 0.583247 69.2308 4.10322 69.2308 8.4466C69.2308 12.4617 72.2763 15.7623 76.1813 16.2192L76.6724 16.2765V25.1305H74.9974C73.7802 25.1305 72.7319 25.9995 72.4997 27.1738L71.5291 32.1254L71.3613 32.2534C71.1763 32.3942 71.0858 32.61 71.1169 32.8179C72.3069 40.7642 72.4491 48.8382 71.513 56.8019C70.6302 64.4019 70.1125 69.8519 70.003 73.0575V73.0586C69.5347 86.1336 73.2041 94.4642 75.4125 98.233C75.8202 98.9208 76.5241 99.3325 77.3147 99.3325C78.1108 99.3325 78.8102 98.933 79.2152 98.2369ZM72.4413 86.978L72.3097 86.3486C71.9586 84.6736 71.6719 82.8575 71.4652 80.8686L71.4202 80.4397L83.3752 76.018L83.3569 76.8347C83.3091 78.9858 83.1336 80.9936 82.8786 82.8419L82.8125 83.3219H82.3919L72.4413 86.978ZM82.1936 33.0217L82.1063 33.6532C81.0408 41.3798 80.9463 49.2157 81.8397 56.9414L81.8402 56.9458C81.8636 57.1653 81.8874 57.3769 81.9108 57.5903C81.9347 57.8025 81.9586 58.0164 81.9825 58.2386L82.0286 58.6697L72.1219 62.3147L72.2225 61.4203C72.2713 60.9858 72.3202 60.543 72.3697 60.0914L72.3869 59.9358C72.493 58.9797 72.6036 57.983 72.7275 56.9392C73.6519 49.215 73.558 41.3798 72.4919 33.6532L72.4052 33.0217H82.1936ZM83.3869 74.6519L83.0658 74.8125C82.988 74.8514 82.9158 74.8675 82.8602 74.8742C82.8513 74.8753 82.843 74.8764 82.8347 74.8769L71.3325 79.1336L71.2897 78.3836C71.2063 76.9292 71.2436 73.7792 71.2541 72.853L71.2547 72.8025L71.2569 72.633V72.0419H71.7608L82.9919 67.8986L83.0552 68.623C83.2141 70.4364 83.3569 73.9036 83.3725 74.2936L83.3869 74.6519ZM71.9869 63.6992L82.173 59.9425L82.2502 60.6497C82.4708 62.6697 82.6602 64.5169 82.8186 66.1753L82.8591 66.6014L71.3263 70.8508L71.4008 69.9803C71.543 68.3214 71.7325 66.3319 71.9536 64.0464L71.9869 63.6992ZM72.8725 31.7837L73.7269 27.4011C73.8425 26.7846 74.3936 26.3528 74.9974 26.3528H79.6008C80.2258 26.3528 80.7358 26.8028 80.868 27.3843L80.8697 27.3916L80.8708 27.3989L81.7441 31.7837H72.8725ZM82.6352 84.5542L82.448 85.5203C81.333 91.2875 79.4675 95.2853 78.1147 97.5908C77.8719 98.0286 77.448 98.063 77.2991 98.063C77.1086 98.063 76.7236 97.9897 76.4919 97.6042L76.4891 97.5997L76.4869 97.5958C75.4102 95.7319 73.9708 92.7864 72.8686 88.6808L72.7369 88.1903L82.6352 84.5542ZM70.4847 8.41505C70.4847 4.76592 73.4452 1.80547 77.0941 1.80547C80.7436 1.80547 83.7036 4.76591 83.7036 8.41505C83.7036 12.0642 80.7436 15.0247 77.0941 15.0247C73.4452 15.0247 70.4847 12.0642 70.4847 8.41505Z" fill="#615A9F"/>
<path fill-rule="evenodd" clip-rule="evenodd" d="M56.2991 31.889L55.3285 26.9362C55.0955 25.7456 54.0463 24.8783 52.8308 24.8783H51.1572L51.1244 10.8443V10.843C51.1244 9.32955 50.482 7.88738 49.3537 6.87332L49.3524 6.87216L44.3925 2.38695V2.14031C44.3925 2.05761 44.4097 1.98238 44.4227 1.93727C44.3906 1.18457 43.7693 0.583247 43.0088 0.583247C42.2278 0.583247 41.5936 1.2174 41.5936 1.99842C41.5936 2.77943 42.2278 3.41359 43.0088 3.41359C43.0036 3.41359 43.0061 3.4144 43.0223 3.41062C43.0418 3.40611 43.0641 3.39932 43.1101 3.38464L43.12 3.3815C43.1427 3.37425 43.172 3.36499 43.203 3.35612L43.499 3.27157L48.5204 7.79744C49.3802 8.56666 49.8703 9.67888 49.8707 10.8417V10.843L49.9035 24.8783H48.2273C47.0107 24.8783 45.9623 25.7468 45.7297 26.9206L44.7589 31.8732L44.591 32.0011C44.4065 32.1418 44.3161 32.3573 44.3465 32.5648C45.5361 40.5114 45.679 48.5857 44.743 56.5497C43.8601 64.1497 43.3425 69.6153 43.233 72.8058L43.2329 72.8064C42.7642 85.8836 46.4353 94.2153 48.6435 97.983C49.0515 98.6697 49.755 99.0803 50.5449 99.0803C51.3405 99.0803 52.0403 98.6808 52.4453 97.9847L52.4457 97.9842C54.6546 94.1997 58.3252 85.8675 57.8569 72.8064C57.7158 69.6114 57.213 64.143 56.3152 56.5653C55.3795 48.6038 55.506 40.5308 56.7113 32.5843C56.743 32.3608 56.6536 32.159 56.4675 32.0169L56.2991 31.889ZM45.6712 86.7414L45.5394 86.1119C45.1885 84.4369 44.9018 82.6208 44.695 80.6325L44.6503 80.2036L56.6047 75.7814L56.5869 76.5986C56.5391 78.7492 56.3636 80.7569 56.1087 82.6058L56.0687 82.8958L55.8068 83.0269C55.7369 83.0619 55.671 83.078 55.6193 83.0864L45.6712 86.7414ZM45.6178 32.7852H55.4075L55.3204 33.4167C54.2547 41.1433 54.1607 48.9793 55.0539 56.7047L55.0545 56.7092C55.0773 56.9225 55.1002 57.1286 55.1232 57.3358L55.1247 57.3497L55.1248 57.3503L55.1251 57.353L55.1255 57.3564L55.1255 57.3569L55.1288 57.3864C55.1512 57.5886 55.1738 57.7919 55.1963 58.0019L55.2425 58.433L45.336 62.078L45.4365 61.1842C45.4817 60.7825 45.5268 60.3736 45.5727 59.9575L45.5868 59.8297L45.5871 59.828C45.697 58.833 45.8117 57.7942 45.9413 56.703L45.9416 56.7014C46.8815 48.9781 46.7877 41.1437 45.7063 33.4178L45.6178 32.7852ZM56.5869 74.4225L56.2797 74.5764C56.2025 74.6147 56.1297 74.6308 56.0743 74.6375C56.0658 74.6386 56.0575 74.6397 56.0495 74.6403L44.5466 78.8969L44.5037 78.1469C44.4082 76.4758 44.3923 74.728 44.4556 72.8714C44.4562 72.6864 44.4741 72.4786 44.4898 72.3214L44.5398 71.8208H44.991L56.2213 67.678L56.2852 68.4019C56.4436 70.1892 56.5391 71.6992 56.5708 72.8653C56.5869 73.2842 56.5869 73.6858 56.5869 74.0758V74.4225ZM55.4027 59.7064L55.48 60.413C55.701 62.4336 55.8904 64.2964 56.0483 65.938L56.0893 66.3647L44.5563 70.6147L44.631 69.7436C44.7731 68.0847 44.9626 66.0953 45.1833 63.8097L45.2168 63.4625L55.4027 59.7064ZM54.0995 27.1549L54.1008 27.162L54.9747 31.5314H46.102L46.9561 27.1679C47.0704 26.5497 47.6226 26.1163 48.2273 26.1163H52.8308C53.4554 26.1163 53.9657 26.5663 54.0978 27.1478L54.0995 27.1549ZM49.7192 97.3636L49.7169 97.3597C48.6402 95.4953 47.2007 92.5497 46.0983 88.4442L45.9667 87.9536L55.865 84.3175L55.6782 85.2842C54.5626 91.0525 52.6808 95.0497 51.3456 97.3519C51.1028 97.7925 50.6777 97.8264 50.5291 97.8264C50.3387 97.8264 49.9532 97.7536 49.7216 97.3675L49.7192 97.3636Z" fill="url(#paint0_linear_1252_1557)"/>
<path fill-rule="evenodd" clip-rule="evenodd" d="M17.1571 0.56973L29.1421 3.14017L29.1438 3.14055C30.7346 3.49006 31.9425 4.67217 32.3325 6.21649L32.3327 6.2176C32.7221 7.77666 32.1936 9.4021 30.9554 10.4316L30.9548 10.4321L26.4936 14.1524L26.4931 14.1528C24.702 15.6429 23.5186 17.9192 23.5186 20.0029V24.831H25.225C26.4405 24.831 27.4897 25.6983 27.7226 26.8889L28.6934 31.8417L28.8613 31.9696C29.0467 32.1109 29.1361 32.311 29.1058 32.5329C27.9002 40.4807 27.7733 48.5545 28.7092 56.5175C29.5922 64.1175 30.1099 69.583 30.2193 72.7742C30.6881 85.8358 27.0172 94.168 24.8083 97.9525L24.8079 97.953C24.403 98.6492 23.703 99.0486 22.9075 99.0486C22.1176 99.0486 21.4141 98.6386 21.0061 97.9514C18.798 94.1836 15.1268 85.8525 15.5956 72.7747C15.7051 69.5836 16.2227 64.1175 17.1057 56.5175C18.0416 48.5539 17.8987 40.4959 16.7093 32.5341C16.6785 32.3263 16.7688 32.1104 16.9536 31.9696L17.1215 31.8417L18.0921 26.89L18.0923 26.889C18.325 25.7153 19.3733 24.8468 20.5899 24.8468H22.2648V20.0187C22.2648 17.6028 23.5622 14.978 25.6905 13.2095L25.6912 13.2089L30.1529 9.48816C31.0446 8.75038 31.3952 7.6331 31.1249 6.53255C30.8538 5.42871 30.0123 4.60526 28.8873 4.37156L16.9095 1.80263L16.9083 1.80239C16.5506 1.72325 16.3451 1.39594 16.4186 1.06122C16.4968 0.704808 16.8377 0.497847 17.1571 0.56973ZM17.902 86.1119L18.0338 86.7414L27.9768 83.088C27.9847 83.0869 27.9931 83.0858 28.0017 83.0842C28.0777 83.0708 28.2031 83.033 28.3138 82.9225L28.4458 82.7908L28.4713 82.6058C28.7263 80.7569 28.9016 78.7492 28.9493 76.5986L28.9675 75.7814L17.013 80.2036L17.0576 80.6325C17.2644 82.6208 17.5511 84.4369 17.902 86.1119ZM28.6582 74.5764L28.9652 74.4225V74.0714C28.9652 73.6808 28.9653 73.2792 28.9491 72.8597L28.949 72.858C28.9013 71.698 28.8062 70.1925 28.664 68.4069L28.6057 67.6758L17.3694 71.8208H16.9182L16.8682 72.3214C16.8525 72.4786 16.8346 72.6864 16.8339 72.8714C16.7707 74.728 16.7866 76.4758 16.8821 78.1469L16.925 78.8969L28.4281 74.6403C28.436 74.6397 28.4443 74.6386 28.4527 74.6375C28.5082 74.6308 28.5807 74.6147 28.6582 74.5764ZM17.009 69.7647L16.9432 70.6275L28.4673 66.3808L28.4267 65.9547C28.2688 64.2964 28.0792 62.4319 27.8421 60.4242L27.7594 59.7242L17.5822 63.4775L17.5463 63.8214C17.3093 66.0969 17.1354 68.1047 17.009 69.7647ZM27.4328 56.7092L27.4323 56.7047C26.5391 48.9793 26.633 41.1583 27.6676 33.4302L27.7518 32.8009H17.9649L18.0532 33.4334C19.1346 41.1752 19.2285 48.9947 18.3197 56.7192C18.1856 57.8369 18.0674 58.9064 17.9541 59.9314L17.9539 59.933C17.907 60.3575 17.8609 60.7742 17.8148 61.1842L17.7144 62.078L27.6209 58.433L27.5747 58.0019C27.551 57.7803 27.5272 57.5664 27.5035 57.3536C27.4798 57.1408 27.4563 56.9286 27.4328 56.7092ZM22.0795 97.3597L22.0818 97.3636L22.0842 97.3675C22.3158 97.7536 22.7013 97.8264 22.8917 97.8264C23.0394 97.8264 23.4602 97.7925 23.7037 97.3603C25.057 95.0558 26.9247 91.0564 28.0407 85.2842L28.2276 84.3175L18.3293 87.9536L18.461 88.4442C19.5633 92.5497 21.0028 95.4953 22.0795 97.3597ZM27.3373 31.5314L26.4635 27.162L26.4621 27.1549L26.4605 27.1478C26.3283 26.5663 25.818 26.1163 25.1935 26.1163H20.5899C19.9854 26.1163 19.4334 26.5493 19.3188 27.1673L18.4646 31.5314H27.3373Z" fill="#615A9F"/>
<defs>
<linearGradient id="paint0_linear_1252_1557" x1="84.9574" y1="46.6634" x2="15.5547" y2="46.6634" gradientUnits="userSpaceOnUse">
<stop stop-color="#C69848"/>
<stop offset="0.25" stop-color="#F9D597"/>
<stop offset="0.505208" stop-color="#C69848"/>
<stop offset="0.739583" stop-color="#F9D597"/>
<stop offset="1" stop-color="#C69848"/>
</linearGradient>
</defs>
</svg>
