<svg width="26" height="26" viewBox="0 0 26 26" fill="none" xmlns="http://www.w3.org/2000/svg">
<path d="M0 4.6C0 4.26863 0.268629 4 0.6 4H25.4C25.7314 4 26 4.26863 26 4.6C26 4.93137 25.7314 5.2 25.4 5.2H0.6C0.268629 5.2 0 4.93137 0 4.6Z" fill="#1E1765"/>
<path d="M0 12.6C0 12.2686 0.268629 12 0.6 12H25.4C25.7314 12 26 12.2686 26 12.6C26 12.9314 25.7314 13.2 25.4 13.2H0.6C0.268629 13.2 0 12.9314 0 12.6Z" fill="#1E1765"/>
<path d="M0 20.6C0 20.2686 0.268629 20 0.6 20H25.4C25.7314 20 26 20.2686 26 20.6C26 20.9314 25.7314 21.2 25.4 21.2H0.6C0.268629 21.2 0 20.9314 0 20.6Z" fill="#1E1765"/>
</svg>
