<svg width="60" height="60" viewBox="0 0 60 60" fill="none" xmlns="http://www.w3.org/2000/svg">
<path fill-rule="evenodd" clip-rule="evenodd" d="M46.6339 50.7488H47.1907C48.1539 50.7499 49.0772 51.133 49.7583 51.8141C50.4393 52.4951 50.8224 53.4185 50.8235 54.3816V55.3808C50.8234 55.5983 50.737 55.8069 50.5831 55.9607C50.4293 56.1145 50.2208 56.201 50.0032 56.2011H16.5514C16.3339 56.201 16.1253 56.1145 15.9715 55.9607C15.8177 55.8069 15.7312 55.5983 15.7311 55.3808V54.3816C15.7322 53.4185 16.1153 52.4951 16.7963 51.8141C17.4774 51.133 18.4008 50.7499 19.3639 50.7488H28.8926V51.2215C28.8926 51.2215 28.8926 48.8201 29.1837 47.6538C29.4748 46.4876 30.1802 45.7174 31.0433 45.0533C31.9064 44.3892 32.9468 43.9955 34.0334 43.9221C33.7981 38.4777 31.6579 33.289 27.9865 29.2619L24.8192 32.4297L25.2748 32.8854C25.6917 33.3032 25.9259 33.8694 25.9259 34.4597C25.9259 35.0499 25.6917 35.6161 25.2748 36.034L23.9487 37.3601C23.5309 37.7769 22.9648 38.0111 22.3746 38.0111C21.7844 38.0111 21.2184 37.7769 20.8006 37.3601L10.5251 27.0851C10.1076 26.6674 9.87305 26.1011 9.87305 25.5105C9.87305 24.92 10.1076 24.3536 10.5251 23.936L11.8507 22.6104C12.2684 22.1928 12.8347 21.9583 13.4253 21.9583C14.0158 21.9583 14.5822 22.1928 14.9998 22.6104L15.4554 23.066L26.3159 12.2083C26.7338 11.7914 27.3001 11.5572 27.8904 11.5572C28.4808 11.5572 29.047 11.7914 29.465 12.2083L30.1681 12.9115L32.6914 10.3854L31.9882 9.68224C31.7814 9.47551 31.6173 9.23005 31.5054 8.95989C31.3934 8.68973 31.3358 8.40015 31.3358 8.10771C31.3358 7.81527 31.3934 7.52569 31.5054 7.25553C31.6173 6.98537 31.7814 6.73991 31.9882 6.53318L33.3139 5.20755C33.7318 4.79087 34.298 4.55688 34.8882 4.55688C35.4784 4.55688 36.0445 4.79087 36.4625 5.20755L42.6776 11.4218C43.0951 11.8394 43.3297 12.4058 43.3297 12.9963C43.3297 13.5868 43.0951 14.1532 42.6776 14.5708L41.3515 15.8965C40.9336 16.3133 40.3675 16.5473 39.7772 16.5473C39.187 16.5473 38.6208 16.3133 38.2029 15.8965L37.4998 15.1933L34.9751 17.7185L35.6782 18.4216C36.0957 18.8392 36.3303 19.4054 36.3303 19.9959C36.3303 20.5864 36.0957 21.1527 35.6782 21.5702L33.1235 24.1254C38.1424 29.5213 41.045 36.5474 41.2976 43.9122C42.7267 43.9575 44.0823 44.5564 45.0781 45.5826C46.0738 46.6088 46.6317 47.9818 46.6339 49.4116V50.7488ZM34.4759 6.36771L33.1479 7.69334C33.0381 7.80328 32.9764 7.95232 32.9764 8.10771C32.9764 8.2631 33.0381 8.41214 33.1479 8.52209L39.3631 14.7368C39.4731 14.8465 39.6221 14.9081 39.7775 14.9081C39.9328 14.9081 40.0818 14.8465 40.1918 14.7368L41.5193 13.4111C41.6291 13.3012 41.6908 13.1522 41.6908 12.9968C41.6908 12.8414 41.6291 12.6923 41.5193 12.5824L35.3046 6.36771C35.1946 6.25814 35.0456 6.19662 34.8903 6.19662C34.735 6.19662 34.586 6.25814 34.4759 6.36771ZM36.3354 14.0313L33.851 11.5469L31.3296 14.0711L33.814 16.5555L36.3354 14.0313ZM22.7909 36.1999L24.1165 34.8743C24.2263 34.7643 24.288 34.6153 24.288 34.4599C24.288 34.3045 24.2263 34.1555 24.1165 34.0455L13.8396 23.7705C13.7297 23.6607 13.5807 23.599 13.4253 23.599C13.2699 23.599 13.1208 23.6607 13.0109 23.7705L11.6853 25.0961C11.6309 25.1505 11.5877 25.2151 11.5582 25.2861C11.5288 25.3572 11.5136 25.4334 11.5136 25.5103C11.5136 25.5872 11.5288 25.6634 11.5582 25.7344C11.5877 25.8055 11.6309 25.8701 11.6853 25.9244L21.9621 36.1999C22.0721 36.3097 22.2211 36.3714 22.3765 36.3714C22.5319 36.3714 22.6809 36.3097 22.7909 36.1999ZM27.889 13.1965C27.7336 13.1965 27.5846 13.2582 27.4746 13.368L16.6165 24.2261L23.659 31.2696L34.5181 20.4115C34.5725 20.3571 34.6157 20.2925 34.6451 20.2215C34.6746 20.1504 34.6897 20.0742 34.6897 19.9973C34.6897 19.9204 34.6746 19.8442 34.6451 19.7732C34.6157 19.7021 34.5725 19.6375 34.5181 19.5832L33.2342 18.2988L29.5878 14.6529L28.3034 13.368C28.1934 13.2582 28.0444 13.1965 27.889 13.1965ZM39.665 43.9038C39.412 36.9748 36.6812 30.3666 31.969 25.2804L29.1509 28.0976C33.1243 32.4308 35.4372 38.0296 35.6806 43.9038H39.665ZM17.3717 54.5605H49.1829V54.3816C49.1823 53.8535 48.9722 53.3471 48.5987 52.9736C48.2253 52.6002 47.7189 52.3901 47.1907 52.3894H19.3639C18.8357 52.3901 18.3294 52.6002 17.9559 52.9736C17.5824 53.3471 17.3723 53.8535 17.3717 54.3816V54.5605ZM30.5332 49.4116V50.4011V50.7488H34.2832H42.8839H44.9932V49.4116C44.9921 48.3863 44.5843 47.4033 43.8593 46.6783C43.1343 45.9533 42.1513 45.5455 41.126 45.5444H34.4004C33.4782 45.546 32.5869 45.8769 31.8871 46.4775C31.1873 47.078 30.7249 47.9088 30.5834 48.8201C30.5801 48.8413 30.5766 48.8624 30.573 48.8836C30.5654 48.9293 30.5577 48.975 30.5529 49.0211C30.5397 49.1509 30.5332 49.2812 30.5332 49.4116Z" fill="#615A9F"/>
</svg>
