<svg width="32" height="32" viewBox="0 0 32 32" fill="none" xmlns="http://www.w3.org/2000/svg">
<g clip-path="url(#clip0_1901_4971)">
<path fill-rule="evenodd" clip-rule="evenodd" d="M0.00341797 15.6764C6.58392 15.6007 10.267 15.17 12.7185 12.7185C15.17 10.267 15.6007 6.58392 15.6764 0.00341797C7.09698 0.17373 0.17373 7.09698 0.00341797 15.6764ZM16.6318 0.0124454C16.7078 6.58729 17.1392 10.2681 19.5896 12.7185C22.0026 15.1315 25.6089 15.5867 31.9969 15.6725C31.8267 7.19773 25.0672 0.339905 16.6318 0.0124454ZM31.9878 16.6357C25.6054 16.7218 22.0014 17.1777 19.5896 19.5896C17.1777 22.0014 16.7218 25.6054 16.6357 31.9878C24.9669 31.6624 31.6624 24.9669 31.9878 16.6357ZM15.6726 31.9969C15.5867 25.6089 15.1315 22.0026 12.7185 19.5896C10.2681 17.1392 6.58729 16.7078 0.0124454 16.6318C0.339906 25.0672 7.19776 31.8267 15.6726 31.9969Z" fill="white"/>
</g>
<defs>
<clipPath id="clip0_1901_4971">
<rect width="32" height="32" fill="white"/>
</clipPath>
</defs>
</svg>
