<svg width="60" height="60" viewBox="0 0 60 60" fill="none" xmlns="http://www.w3.org/2000/svg">
<path fill-rule="evenodd" clip-rule="evenodd" d="M46.7068 8.11532C48.8326 10.4267 49.8071 14.4195 49.6168 19.9977C49.5747 20.7725 49.5445 21.5489 49.479 22.3222C49.1314 26.4247 48.2914 30.1134 46.8315 33.8938C46.8315 33.8938 46.3361 35.0633 46.0937 35.6178C45.0667 37.9667 44.1803 39.995 43.7875 43.332C43.0018 50.0089 41.0898 53.2592 37.9445 53.2592C37.9181 53.2592 37.8915 53.2585 37.8648 53.2578C37.8378 53.2571 37.8108 53.2564 37.7837 53.2564L37.666 53.2531C34.585 53.2531 33.6278 49.3447 32.7025 45.5656C32.0439 42.8788 31.2957 39.8319 29.9645 39.8319C28.6332 39.8319 27.8832 42.8778 27.227 45.5652C26.3017 49.3456 25.3445 53.2527 22.2629 53.2527L22.1453 53.2559C18.9123 53.3872 16.9389 50.1214 16.142 43.3316C15.7492 39.995 14.8623 37.9663 13.8357 35.6178C12.026 31.7646 10.9135 27.6212 10.5498 23.3797C10.5456 23.3652 10.5456 23.3511 10.5456 23.337C10.5114 23.0056 10.4781 22.6719 10.449 22.3236C9.87574 15.5155 10.8085 10.7342 13.2184 8.11532C13.824 7.44158 14.566 6.90451 15.3953 6.53984C16.2245 6.17517 17.1219 5.99125 18.0278 6.00032C19.8852 6.00032 22.5137 7.02427 25.297 8.10852L25.3 8.1097C26.8379 8.70923 28.4261 9.32798 29.9621 9.80985L30.1726 9.74329C31.6429 9.27193 33.1561 8.68231 34.6195 8.11213L34.6288 8.10852C37.412 7.02427 40.0405 6.00032 41.8975 6.00032C42.8033 5.99125 43.7007 6.17517 44.5299 6.53984C45.3592 6.90451 46.1013 7.44158 46.7068 8.11532ZM42.1567 43.1399C42.5785 39.5609 43.555 37.3259 44.5895 34.9606C44.8023 34.4727 45.016 33.98 45.2284 33.4728C46.6624 29.8475 47.5995 26.0907 47.8445 22.1858C48.5064 14.2991 46.9346 10.7839 45.4993 9.22251C45.0481 8.71442 44.4925 8.30981 43.8704 8.03635C43.2483 7.7629 42.5745 7.62706 41.8951 7.63813C40.3473 7.63813 37.8599 8.60717 35.2263 9.63317L35.1929 9.64619C33.7123 10.2228 32.1826 10.8187 30.6723 11.3033L30.6158 11.3213C30.4771 11.3655 30.3386 11.4097 30.2007 11.4509C28.6481 11.97 27.0285 12.2613 25.3923 12.3158C25.1747 12.3158 24.9661 12.2294 24.8123 12.0755C24.6584 11.9217 24.572 11.713 24.572 11.4955C24.572 11.2779 24.6584 11.0693 24.8123 10.9154C24.9661 10.7616 25.1747 10.6752 25.3923 10.6752C25.9422 10.6696 26.4908 10.6203 27.0329 10.5275C26.2515 10.2378 25.4715 9.93548 24.7046 9.63688L24.7033 9.63637C22.0676 8.60906 19.5777 7.6386 18.0282 7.6386C17.3492 7.62802 16.6758 7.76414 16.0542 8.03766C15.4326 8.31118 14.8773 8.71565 14.4264 9.22345C12.9925 10.7839 11.4207 14.2991 12.0826 22.1858C12.1012 22.3948 12.1205 22.5935 12.1398 22.7934L12.152 22.9189L12.474 25.5374C12.9602 28.8017 13.9253 31.9765 15.3381 34.9592L15.3395 34.9624C16.373 37.3279 17.3487 39.5611 17.7704 43.1384C18.4323 48.7649 19.8564 51.6163 22.0028 51.6163H22.0876C22.1532 51.612 22.2114 51.612 22.262 51.612C24.0559 51.612 24.8935 48.193 25.6323 45.1761L25.6326 45.1748C26.5123 41.5833 27.3431 38.1917 29.9636 38.1917C32.5838 38.1917 33.4146 41.5832 34.2943 45.1739L34.2948 45.1761C35.0336 48.193 35.8712 51.612 37.6651 51.612C37.6888 51.612 37.7143 51.613 37.7414 51.614C37.7721 51.6151 37.8049 51.6163 37.8395 51.6163C40.029 51.6838 41.4864 48.8399 42.1567 43.1399Z" fill="#615A9F"/>
</svg>
