<svg width="60" height="60" viewBox="0 0 60 60" fill="none" xmlns="http://www.w3.org/2000/svg">
<path d="M40.2659 17.8393L30.2815 14.3705C30.094 14.3236 29.9065 14.3236 29.7659 14.3705L19.7815 17.8393C19.0315 18.0736 19.0315 19.1518 19.7815 19.3861L23.8597 20.7924V22.808C23.8597 24.8705 27.0003 25.9486 30.1409 25.9486C33.2815 25.9486 36.4222 24.8705 36.4222 22.808V20.7455L40.3128 19.3861C41.0159 19.1518 41.0159 18.1205 40.2659 17.8393ZM34.7347 21.308V22.808C34.7347 23.2768 33.1409 24.308 30.094 24.308C27.0472 24.308 25.4534 23.2768 25.4534 22.808V21.3549L29.7659 22.8549C29.9534 22.9018 30.1409 22.9018 30.2815 22.8549L34.7347 21.308ZM30.0003 21.2143L22.5003 18.6361L30.0003 16.058L37.5003 18.6361L30.0003 21.2143Z" fill="#615A9F"/>
<path d="M52.9556 13.7277L44.0963 4.91516C43.9556 4.77454 43.7213 4.68079 43.5338 4.68079H12.0605C9.1543 4.68079 6.81055 7.02454 6.81055 9.93079V50.1629C6.81055 53.0692 9.1543 55.4129 12.0605 55.4129H47.94C50.8463 55.4129 53.19 53.0692 53.19 50.1629V14.337C53.19 14.1027 53.0963 13.9152 52.9556 13.7277ZM50.3775 13.4933H45.9713C45.0806 13.4933 44.3306 12.7433 44.3306 11.8527V7.44641L50.3775 13.4933ZM47.94 53.7254H12.0605C10.0918 53.7254 8.45117 52.1317 8.45117 50.1161V9.88391C8.45117 7.91516 10.0449 6.27454 12.0605 6.27454H42.69V11.8058C42.69 13.6339 44.19 15.087 45.9713 15.087H51.5494V50.0692C51.5494 52.0848 49.9088 53.6786 47.94 53.7254Z" fill="#615A9F"/>
<path d="M27.3284 38.5781H21.6565C21.1878 38.5781 20.8128 38.9531 20.8128 39.4219C20.8128 39.8906 21.1878 40.2656 21.6565 40.2656H27.3753C27.844 40.2656 28.219 39.8906 28.219 39.4219C28.219 38.9531 27.7972 38.5781 27.3284 38.5781Z" fill="#615A9F"/>
<path d="M38.344 38.5781H32.6722C32.2034 38.5781 31.8284 38.9531 31.8284 39.4219C31.8284 39.8906 32.2034 40.2656 32.6722 40.2656H38.3909C38.8597 40.2656 39.2347 39.8906 39.2347 39.4219C39.2347 38.9531 38.8128 38.5781 38.344 38.5781Z" fill="#615A9F"/>
<path d="M35.5315 33.7232C36.0003 33.7232 36.3753 33.3482 36.3753 32.8794C36.3753 32.4107 36.0003 32.0357 35.5315 32.0357H24.469C24.0003 32.0357 23.6253 32.4107 23.6253 32.8794C23.6253 33.3482 24.0003 33.7232 24.469 33.7232H35.5315Z" fill="#615A9F"/>
<path d="M27.3284 45.3549H21.6565C21.1878 45.3549 20.8128 45.7299 20.8128 46.1986C20.8128 46.6674 21.1878 47.0424 21.6565 47.0424H27.3753C27.844 47.0424 28.219 46.6674 28.219 46.1986C28.219 45.7299 27.7972 45.3549 27.3284 45.3549Z" fill="#615A9F"/>
<path d="M38.344 45.3549H32.6722C32.2034 45.3549 31.8284 45.7299 31.8284 46.1986C31.8284 46.6674 32.2034 47.0424 32.6722 47.0424H38.3909C38.8597 47.0424 39.2347 46.6674 39.2347 46.1986C39.2347 45.7299 38.8128 45.3549 38.344 45.3549Z" fill="#615A9F"/>
</svg>
