<svg width="51" height="35" viewBox="0 0 51 35" fill="none" xmlns="http://www.w3.org/2000/svg">
<path d="M50.2841 17.3454L47.3414 4.10158C46.8683 1.98069 45.0213 0.5001 42.8508 0.5001C40.3149 0.5001 38.25 2.56391 38.25 5.09976V5.81257C38.25 6.39986 38.7252 6.8751 39.3125 6.8751C39.8998 6.8751 40.3751 6.39986 40.3751 5.81257V5.09976C40.3751 3.73531 41.4853 2.62507 42.8508 2.62507C44.0191 2.62507 45.0131 3.42294 45.2663 4.56327L48.2089 17.8061C48.5742 19.4518 48.79 21.1306 48.8543 22.8125H48.7677C48.2257 17.4585 43.7446 13.25 38.25 13.25C33.446 13.25 29.4233 16.4758 28.1139 20.86C27.4638 20.1745 26.607 19.625 25.5 19.625C24.393 19.625 23.5362 20.1745 22.8861 20.86C21.5767 16.4758 17.554 13.25 12.75 13.25C7.25555 13.25 2.77442 17.4585 2.23235 22.8125H2.14569C2.21003 21.1306 2.42589 19.4517 2.79105 17.8061L5.73372 4.56426C5.98692 3.42294 6.98092 2.62497 8.14924 2.62497C9.51469 2.62497 10.6249 3.73521 10.6249 5.09966V5.81247C10.6249 6.39976 11.1002 6.875 11.6875 6.875C12.2748 6.875 12.75 6.39976 12.75 5.81247V5.09966C12.75 2.56381 10.6852 0.5 8.14924 0.5C5.97855 0.5 4.1317 1.98069 3.65855 4.10257L0.715992 17.3454C0.240756 19.4891 0 21.6857 0 23.875C0 24.4623 0.475236 24.9376 1.06253 24.9376H2.23245C2.77442 30.2916 7.25555 34.5001 12.7501 34.5001C18.5179 34.5001 23.2042 29.8731 23.3483 24.1395C23.5618 23.5454 24.4109 21.7501 25.5001 21.7501C26.5613 21.7501 27.3997 23.4454 27.6516 24.1363C27.794 29.8714 32.4813 34.5001 38.2501 34.5001C43.7446 34.5001 48.2257 30.2916 48.7678 24.9376H49.9377C50.525 24.9376 51.0002 24.4623 51.0002 23.875C51 21.6857 50.7592 19.4891 50.2841 17.3454ZM12.75 32.375C8.06208 32.375 4.25003 28.5619 4.25003 23.875C4.25003 19.1882 8.06218 15.3751 12.75 15.3751C17.4378 15.3751 21.25 19.1882 21.25 23.875C21.25 28.5619 17.4379 32.375 12.75 32.375ZM38.25 32.375C33.5621 32.375 29.75 28.5619 29.75 23.875C29.75 19.1882 33.5622 15.3751 38.25 15.3751C42.9378 15.3751 46.75 19.1882 46.75 23.875C46.75 28.5619 42.9379 32.375 38.25 32.375Z" fill="white"/>
<path d="M12.75 17.5C9.23459 17.5 6.375 20.3596 6.375 23.875C6.375 24.4623 6.85024 24.9376 7.43753 24.9376C8.02483 24.9376 8.50007 24.4623 8.50007 23.875C8.50007 21.5311 10.4072 19.625 12.7501 19.625C13.3374 19.625 13.8126 19.1498 13.8126 18.5625C13.8125 17.9753 13.3373 17.5 12.75 17.5Z" fill="white"/>
<path d="M38.25 17.5C34.7346 17.5 31.875 20.3596 31.875 23.875C31.875 24.4623 32.3502 24.9376 32.9375 24.9376C33.5248 24.9376 34.0001 24.4623 34.0001 23.875C34.0001 21.5311 35.9072 19.625 38.2501 19.625C38.8374 19.625 39.3126 19.1498 39.3126 18.5625C39.3125 17.9753 38.8373 17.5 38.25 17.5Z" fill="white"/>
</svg>
