<svg width="61" height="61" viewBox="0 0 61 61" fill="none" xmlns="http://www.w3.org/2000/svg">
<path d="M32.067 1.20412C31.9126 1.20316 31.762 1.25225 31.6378 1.34403C31.5136 1.43581 31.4224 1.56535 31.378 1.71326L30.6352 4.18426C30.3539 5.1583 29.8037 6.0333 29.0477 6.70881C28.2917 7.38432 27.3605 7.83297 26.3611 8.00328C25.3828 8.19267 24.371 8.10248 23.4417 7.74304C22.5124 7.38361 21.7032 6.76949 21.107 5.97114L19.5524 3.92969C19.4547 3.80133 19.3165 3.70978 19.1602 3.66989C19.0039 3.63001 18.8388 3.64415 18.6915 3.71001C18.5443 3.77587 18.4237 3.88959 18.3493 4.03267C18.2748 4.17576 18.251 4.33981 18.2816 4.49817L18.7703 7.02292C18.9704 8.01142 18.8884 9.0363 18.5335 9.98037C18.1786 10.9244 17.5652 11.7496 16.7635 12.3614C15.9806 12.9903 15.0366 13.3861 14.0394 13.5037C13.0421 13.6212 12.0319 13.4558 11.1243 13.0263L8.79409 11.947C8.64782 11.8793 8.48295 11.863 8.32625 11.9007C8.16954 11.9385 8.0302 12.0281 7.93084 12.1551C7.83148 12.282 7.77793 12.4388 7.7789 12.6C7.77986 12.7612 7.83527 12.9173 7.93614 13.043L9.54338 15.0433C10.1762 15.8173 10.5783 16.7538 10.7035 17.7457C10.8288 18.7376 10.6722 19.7447 10.2517 20.6517C9.84822 21.5798 9.19156 22.3755 8.35689 22.9477C7.52222 23.52 6.54328 23.8456 5.53215 23.8874L2.95946 24.0184C2.79836 24.0266 2.6448 24.0892 2.52372 24.1958C2.40265 24.3023 2.32119 24.4468 2.29258 24.6055C2.26397 24.7643 2.2899 24.928 2.36615 25.0702C2.4424 25.2123 2.56449 25.3245 2.71257 25.3885V25.3892L5.07072 26.4063C5.96219 26.7823 6.73365 27.3953 7.30136 28.1787C7.86907 28.9621 8.21134 29.8861 8.291 30.8504C8.38921 31.8293 8.21737 32.8164 7.79414 33.7045C7.3709 34.5927 6.71245 35.3479 5.89027 35.8882C5.7627 35.9734 5.6659 36.0973 5.61418 36.2418C5.56246 36.3862 5.55857 36.5434 5.60307 36.6902C5.64758 36.837 5.73812 36.9656 5.86133 37.0569C5.98453 37.1483 6.13386 37.1976 6.28725 37.1976H51.4243C51.5375 37.1976 51.6491 37.1706 51.7498 37.1191C51.8506 37.0675 51.9377 36.9927 52.0039 36.9009C52.0701 36.8091 52.1135 36.7028 52.1307 36.591C52.1478 36.4791 52.1381 36.3647 52.1024 36.2573C51.8742 35.557 51.788 34.8182 51.8488 34.0842C51.9096 33.3501 52.1162 32.6356 52.4566 31.9824C52.7933 31.335 53.2575 30.7623 53.8212 30.299C54.385 29.8356 55.0367 29.4911 55.7371 29.2862L58.2081 28.5434C58.3628 28.497 58.4972 28.3995 58.5895 28.2669C58.6817 28.1343 58.7263 27.9744 58.716 27.8132C58.7057 27.652 58.6412 27.4991 58.5328 27.3793C58.4245 27.2595 58.2788 27.1799 58.1195 27.1535L55.5819 26.7321C54.5977 26.5801 53.6765 26.1528 52.9247 25.4995C52.173 24.8463 51.6213 23.9938 51.3333 23.0404C51.0222 22.0783 50.9894 21.0479 51.2388 20.0681C51.4882 19.0882 52.0096 18.1989 52.7428 17.5026L54.5939 15.6992C54.7098 15.5865 54.7842 15.4378 54.8047 15.2774C54.8252 15.117 54.7907 14.9544 54.7069 14.8161C54.6231 14.6778 54.4948 14.572 54.3431 14.516C54.1914 14.4601 54.0252 14.4572 53.8716 14.5078L51.4204 15.3151C50.4712 15.6318 49.4525 15.6779 48.4785 15.4482C47.5046 15.2185 46.6139 14.722 45.9063 14.0144C45.1987 13.3068 44.7022 12.4161 44.4725 11.4422C44.2427 10.4682 44.2888 9.44953 44.6056 8.50031L45.4131 6.04909C45.4638 5.89552 45.4609 5.7293 45.4049 5.57759C45.3489 5.42587 45.2431 5.29762 45.1048 5.21379C44.9665 5.12995 44.8039 5.09548 44.6435 5.11601C44.4831 5.13653 44.3344 5.21084 44.2217 5.3268L42.4185 7.1786C41.7224 7.91191 40.8331 8.43338 39.8533 8.68282C38.8734 8.93226 37.843 8.89948 36.881 8.58827C35.9276 8.30035 35.0751 7.74867 34.4218 6.99691C33.7685 6.24515 33.3412 5.32396 33.1891 4.3397L32.7677 1.80191C32.7401 1.63567 32.6546 1.48452 32.5264 1.37514C32.3982 1.26576 32.2355 1.20519 32.067 1.20412V1.20412ZM31.8662 5.01103C32.1321 6.16382 32.6955 7.22676 33.5004 8.09386C34.3052 8.96096 35.3233 9.60191 36.4531 9.95281C37.5955 10.3132 38.8124 10.3675 39.9823 10.1103C41.1522 9.85314 42.2342 9.2935 43.1201 8.48728C42.8198 9.63748 42.8256 10.8462 43.1369 11.9935C43.4483 13.1408 44.0543 14.1866 44.8949 15.0272C45.7355 15.8678 46.7813 16.4738 47.9286 16.7852C49.0759 17.0965 50.2846 17.1023 51.4348 16.802C50.6285 17.6879 50.0689 18.7699 49.8117 19.9399C49.5545 21.1099 49.6089 22.3268 49.9693 23.4692C50.3201 24.599 50.961 25.617 51.828 26.4219C52.695 27.2267 53.7579 27.7902 54.9106 28.0561C53.3032 28.6394 51.9741 29.8061 51.1874 31.3244C50.4787 32.6908 50.2396 34.2525 50.5068 35.7684H44.3075C45.3125 33.4041 45.716 30.8277 45.4818 28.2694C45.2477 25.7111 44.3833 23.2506 42.9659 21.108C41.5486 18.9654 39.6223 17.2075 37.3595 15.9912C35.0966 14.775 32.5677 14.1384 29.9987 14.1384C27.4297 14.1384 24.9007 14.775 22.6379 15.9912C20.375 17.2075 18.4488 18.9654 17.0314 21.108C15.614 23.2506 14.7496 25.7111 14.5155 28.2694C14.2814 30.8277 14.6849 33.4041 15.6898 35.7684H8.14278C8.72417 35.072 9.16237 34.2677 9.43227 33.4016C9.70217 32.5355 9.79844 31.6246 9.71557 30.7212C9.62116 29.5746 9.23301 28.4717 8.58852 27.5187C7.94402 26.5657 7.06492 25.7948 6.03594 25.2803C7.22891 25.1466 8.36613 24.703 9.33459 23.9937C10.3031 23.2844 11.069 22.334 11.5564 21.237C12.0473 20.1544 12.2465 18.9624 12.1343 17.7791C12.0222 16.5957 11.6025 15.4623 10.917 14.4913C12.0317 14.9197 13.2385 15.0517 14.4194 14.8742C15.6004 14.6968 16.7151 14.2161 17.6547 13.479C18.5943 12.7419 19.3266 11.7737 19.7801 10.6689C20.2336 9.56419 20.3928 8.36069 20.2421 7.17604C21.8282 9.01974 24.1789 9.85239 26.6161 9.41086C27.7992 9.19987 28.9065 8.68266 29.8276 7.91072C30.7487 7.13879 31.4516 6.13905 31.8662 5.01103V5.01103ZM29.7682 15.5694C32.1721 15.5302 34.5463 16.1055 36.6655 17.2409C38.7848 18.3763 40.579 20.0342 41.878 22.0573C43.1771 24.0804 43.9379 26.4017 44.0884 28.8013C44.2389 31.2008 43.7741 33.5991 42.738 35.7686H17.2591C16.2399 33.6343 15.7732 31.278 15.902 28.9163C16.0308 26.5545 16.7509 24.263 17.9962 22.2521C19.2415 20.2413 20.9721 18.5755 23.029 17.4078C25.0859 16.2401 27.4033 15.608 29.7682 15.5694V15.5694ZM30.0546 23.2731C29.8687 23.2757 29.691 23.3507 29.5595 23.4822L26.6608 26.3812C26.528 26.5155 26.4538 26.6969 26.4544 26.8858C26.455 27.0747 26.5303 27.2557 26.6638 27.3892C26.7974 27.5227 26.9784 27.598 27.1672 27.5985C27.3561 27.599 27.5375 27.5248 27.6718 27.392L29.3503 25.7136V32.55C29.3503 32.7396 29.4256 32.9214 29.5596 33.0554C29.6937 33.1895 29.8755 33.2648 30.0651 33.2648C30.2547 33.2648 30.4365 33.1895 30.5706 33.0554C30.7046 32.9214 30.78 32.7396 30.78 32.55V25.7138L32.4584 27.3922C32.5927 27.525 32.7741 27.5993 32.963 27.5987C33.1519 27.5982 33.3328 27.523 33.4664 27.3894C33.6 27.2559 33.6753 27.0749 33.6758 26.886C33.6764 26.6972 33.6022 26.5158 33.4695 26.3814L30.5705 23.4822C30.5029 23.4146 30.4224 23.3613 30.3338 23.3254C30.2452 23.2894 30.1503 23.2716 30.0546 23.2731ZM12.3204 42.6429C12.1308 42.6429 11.949 42.7183 11.8149 42.8523C11.6808 42.9864 11.6055 43.1682 11.6055 43.3578C11.6055 43.5474 11.6808 43.7292 11.8149 43.8633C11.949 43.9973 12.1308 44.0726 12.3204 44.0726H48.6778C48.8674 44.0726 49.0492 43.9973 49.1833 43.8633C49.3173 43.7292 49.3927 43.5474 49.3927 43.3578C49.3927 43.1682 49.3173 42.9864 49.1833 42.8523C49.0492 42.7183 48.8674 42.6429 48.6778 42.6429H12.3204ZM5.08142 50.5176C4.89183 50.5176 4.71001 50.5929 4.57595 50.727C4.44189 50.8611 4.36658 51.0429 4.36658 51.2325C4.36658 51.4221 4.44189 51.6039 4.57595 51.7379C4.71001 51.872 4.89183 51.9473 5.08142 51.9473H55.9168C56.1064 51.9473 56.2882 51.872 56.4222 51.7379C56.5563 51.6039 56.6316 51.4221 56.6316 51.2325C56.6316 51.0429 56.5563 50.8611 56.4222 50.727C56.2882 50.5929 56.1064 50.5176 55.9168 50.5176H5.08142ZM12.3204 58.3921C12.1308 58.3921 11.949 58.4674 11.8149 58.6015C11.6808 58.7355 11.6055 58.9173 11.6055 59.1069C11.6055 59.2965 11.6808 59.4783 11.8149 59.6124C11.949 59.7465 12.1308 59.8218 12.3204 59.8218H48.6778C48.8674 59.8218 49.0492 59.7465 49.1833 59.6124C49.3173 59.4783 49.3927 59.2965 49.3927 59.1069C49.3927 58.9173 49.3173 58.7355 49.1833 58.6015C49.0492 58.4674 48.8674 58.3921 48.6778 58.3921H12.3204Z" fill="#615A9F"/>
</svg>
