<?xml version="1.0" encoding="utf-8"?>
<!-- Generator: Adobe Illustrator 21.0.2, SVG Export Plug-In . SVG Version: 6.00 Build 0)  -->
<svg version="1.1" id="Слой_1" xmlns="http://www.w3.org/2000/svg" xmlns:xlink="http://www.w3.org/1999/xlink" x="0px" y="0px"
	 viewBox="0 0 20 20" style="enable-background:new 0 0 20 20;" xml:space="preserve">
<style type="text/css">
	.st0{fill:none;stroke:#BD9B60;stroke-width:0.5;stroke-miterlimit:10;}
</style>
<path class="st0" d="M9.2,1.7c0.3-0.7,1.3-0.7,1.6,0L13,6.1c0.1,0.3,0.4,0.5,0.7,0.5l4.9,0.7c0.7,0.1,1,1,0.5,1.6l-3.5,3.4
	c-0.2,0.2-0.3,0.5-0.3,0.8l0.8,4.8c0.1,0.7-0.7,1.3-1.3,1l-4.3-2.3c-0.3-0.1-0.6-0.1-0.9,0l-4.3,2.3c-0.7,0.4-1.5-0.2-1.3-1l0.8-4.8
	c0.1-0.3,0-0.6-0.3-0.8L1,8.8C0.4,8.3,0.7,7.4,1.5,7.3l4.9-0.7c0.3,0,0.6-0.2,0.7-0.5L9.2,1.7z"/>
</svg>
