<svg width="60" height="60" viewBox="0 0 60 60" fill="none" xmlns="http://www.w3.org/2000/svg">
<path d="M56.6545 36.0389C56.6865 35.4087 56.5778 34.7793 56.3363 34.1962C56.0949 33.6132 55.7267 33.0912 55.2586 32.6681C56.0962 32.2292 56.7624 31.522 57.1505 30.6596C57.5387 29.7973 57.6264 28.8297 57.3996 27.9116C57.1727 26.9935 56.6445 26.1781 55.8995 25.5957C55.1544 25.0134 54.2355 24.6977 53.2898 24.6994H37.7063L39.2414 20.3278C39.6222 19.2433 39.8167 18.1022 39.8166 16.9528V11.1605C39.8151 9.84823 39.2931 8.59016 38.3652 7.66227C37.4373 6.73437 36.1793 6.21243 34.867 6.21094H32.1338C32.026 6.21088 31.9192 6.23205 31.8196 6.27324C31.72 6.31443 31.6295 6.37483 31.5532 6.45101C31.477 6.52718 31.4165 6.61763 31.3752 6.71719C31.3339 6.81674 31.3126 6.92346 31.3125 7.03125V13.4902C31.3112 14.3528 31.0228 15.1904 30.4927 15.8709L20.9142 28.1297H18.2756V25.5187C18.2755 25.3012 18.189 25.0926 18.0352 24.9388C17.8814 24.785 17.6728 24.6986 17.4553 24.6984H3.28125C3.06373 24.6986 2.85515 24.785 2.70134 24.9388C2.54753 25.0926 2.46106 25.3012 2.46094 25.5187V52.9687C2.46106 53.1863 2.54753 53.3948 2.70134 53.5487C2.85515 53.7025 3.06373 53.7889 3.28125 53.7891H17.4553C17.6728 53.7889 17.8814 53.7025 18.0352 53.5487C18.189 53.3948 18.2755 53.1863 18.2756 52.9687V50.3578H21.1406L25.8717 52.4705C27.8178 53.3426 29.9267 53.792 32.0592 53.7891H50.5397C51.6055 53.7956 52.6367 53.4105 53.4374 52.707C54.2381 52.0034 54.7525 51.0303 54.8831 49.9725C54.9524 49.3112 54.8655 48.6429 54.6294 48.0213C54.3933 47.3997 54.0146 46.8422 53.5237 46.3936C54.1256 46.0793 54.6425 45.6241 55.0304 45.0668C55.4184 44.5096 55.6658 43.8668 55.7518 43.1933C55.8377 42.5198 55.7595 41.8355 55.5238 41.1987C55.2882 40.562 54.9021 39.9916 54.3984 39.5362C55.0445 39.1978 55.5919 38.6978 55.9873 38.0848C56.3827 37.4719 56.6126 36.7671 56.6545 36.0389ZM16.635 52.1484H4.10156V26.3391H16.635V52.1484ZM52.0069 32.9297C52.0783 33.012 52.1654 33.0793 52.2631 33.1276C52.3608 33.1758 52.4672 33.2042 52.5759 33.2109C53.2609 33.2572 53.9004 33.5704 54.3568 34.0834C54.8132 34.5963 55.05 35.2679 55.0162 35.9536C54.9546 36.6351 54.6379 37.2682 54.1294 37.7262C53.621 38.1842 52.9583 38.4332 52.2741 38.4234H51.9698C51.7627 38.4302 51.5651 38.5124 51.4142 38.6545C51.2633 38.7967 51.1695 38.9891 51.1505 39.1955C51.1304 39.4074 51.1936 39.6189 51.3266 39.7851C51.4597 39.9514 51.6522 40.0593 51.8634 40.0861C52.5279 40.1715 53.1341 40.509 53.5566 41.0289C53.9791 41.5487 54.1857 42.211 54.1336 42.8789C54.0627 43.5486 53.7431 44.1674 53.2379 44.6127C52.7327 45.0581 52.0788 45.2977 51.4055 45.2841H51.3117C51.1074 45.2841 50.9105 45.3604 50.7595 45.498C50.6084 45.6356 50.5142 45.8246 50.4952 46.028L50.4891 46.0917C50.47 46.2946 50.5272 46.4973 50.6495 46.6603C50.7718 46.8233 50.9504 46.9349 51.1505 46.9734C51.7923 47.0961 52.3645 47.4556 52.7536 47.9806C53.1426 48.5056 53.32 49.1578 53.2505 49.8075C53.1634 50.4618 52.8393 51.0613 52.3395 51.4925C51.8398 51.9236 51.1992 52.1563 50.5392 52.1466H32.0578C30.1558 52.1491 28.2749 51.7483 26.5392 50.9705L21.6487 48.7866C21.5434 48.7397 21.4294 48.7154 21.3141 48.7153H18.2756V29.7703H21.3141C21.4387 29.7704 21.5616 29.742 21.6736 29.6875C21.7857 29.6329 21.8837 29.5535 21.9605 29.4553L31.7864 16.8816C32.541 15.9119 32.9514 14.7188 32.9531 13.4902V7.85156H34.8661C35.7434 7.85256 36.5844 8.20149 37.2047 8.82181C37.8251 9.44214 38.174 10.2832 38.175 11.1605V16.9495C38.1755 17.9147 38.0123 18.873 37.6922 19.7836L35.775 25.2473C35.7315 25.371 35.7183 25.5033 35.7366 25.6331C35.7548 25.7629 35.8038 25.8864 35.8796 25.9933C35.9554 26.1003 36.0557 26.1875 36.1722 26.2476C36.2887 26.3078 36.4178 26.3391 36.5489 26.3391H53.2875C53.6372 26.3391 53.9833 26.4095 54.3053 26.5458C54.6273 26.6822 54.9187 26.8818 55.1621 27.1329C55.4055 27.3839 55.596 27.6813 55.7223 28.0074C55.8487 28.3334 55.9082 28.6816 55.8975 29.0311C55.8524 29.7263 55.541 30.3774 55.028 30.8489C54.5151 31.3203 53.8402 31.5759 53.1436 31.5623H52.628C52.421 31.5648 52.2224 31.6444 52.0711 31.7855C51.9197 31.9267 51.8264 32.1192 51.8095 32.3255C51.8008 32.434 51.8137 32.5432 51.8476 32.6467C51.8815 32.7502 51.9356 32.8459 52.0069 32.9283V32.9297Z" fill="#615A9F"/>
</svg>
