<svg width="27" height="30" viewBox="0 0 27 30" fill="none" xmlns="http://www.w3.org/2000/svg">
<path d="M12.9334 6.26563C15.7424 6.26551 18.3798 7.35475 20.3661 9.33333C22.3526 11.3119 23.4433 13.936 23.4432 16.7344C23.4432 17.0599 23.1844 17.3177 22.8576 17.3177C22.5305 17.3177 22.2719 17.06 22.2719 16.7344C22.2721 14.2521 21.2995 11.9141 19.5373 10.1589C17.7752 8.40363 15.4252 7.43477 12.9334 7.4349C12.6065 7.4349 12.3478 7.17718 12.3478 6.85156C12.3478 6.5259 12.6063 6.26563 12.9334 6.26563Z" fill="url(#paint0_linear_1901_3555)"/>
<path d="M12.9334 11.2083C15.9945 11.2088 18.4808 13.6854 18.4811 16.7344C18.4811 17.0601 18.2223 17.3177 17.8955 17.3177C17.5684 17.3178 17.3098 17.06 17.3098 16.7344C17.3097 14.3339 15.3434 12.378 12.9334 12.3776C12.6064 12.3775 12.3478 12.1173 12.3478 11.7917C12.3478 11.466 12.6064 11.2083 12.9334 11.2083Z" fill="url(#paint1_linear_1901_3555)"/>
<path d="M5.16344 10.0208C4.65614 9.83249 4.1323 9.82724 3.57651 10.013C2.26589 10.4527 1.34938 11.22 0.8837 12.2318C0.43225 13.2129 0.440822 14.3511 0.933373 15.5573C2.2487 18.772 4.08742 21.5797 6.39742 23.9089L6.41311 23.9245C8.74957 26.2212 11.5666 28.0481 14.7896 29.3568C15.4131 29.6093 16.0185 29.7344 16.5935 29.7344C17.1349 29.7344 17.648 29.6243 18.1255 29.4063C19.1413 28.9425 19.9139 28.0305 20.3556 26.724C20.5417 26.1715 20.5352 25.6509 20.3478 25.1484C20.2589 24.908 19.9658 24.5104 19.553 24.0964C19.1401 23.6823 18.6116 23.2379 18.0549 22.8307C17.4983 22.4235 16.9141 22.0535 16.3922 21.7839C15.8713 21.5148 15.4019 21.3532 15.1399 21.3385H15.1373C13.9843 21.2807 13.4173 22.1068 13.0982 22.5717L13.0902 22.5833C12.9056 22.8521 12.9746 23.2094 13.2445 23.3932C13.5144 23.5772 13.8728 23.5111 14.0576 23.2422C14.2524 22.9585 14.4003 22.78 14.5621 22.6589C14.724 22.5377 14.9174 22.4954 15.0693 22.5026L15.0772 22.5052H15.0876C15.3783 22.5392 15.6858 22.704 16.0785 22.9323C16.4711 23.1606 16.9198 23.459 17.3543 23.776C17.7887 24.0931 18.2087 24.429 18.5438 24.7318C18.879 25.0346 19.1245 25.2715 19.2419 25.5391L19.2471 25.5469L19.2497 25.5521C19.3435 25.8031 19.3364 26.0783 19.2445 26.3516C18.9225 27.3036 18.3718 28.0082 17.6366 28.3438C16.937 28.6624 16.0962 28.6265 15.2314 28.276C12.1538 27.0266 9.45868 25.2795 7.2288 23.0859L7.22095 23.0781C5.02213 20.8586 3.27379 18.1793 2.02095 15.1172C1.66863 14.2543 1.62942 13.416 1.95037 12.7188C2.28737 11.9865 2.99539 11.4402 3.95037 11.1198C4.22545 11.0279 4.4999 11.0217 4.75037 11.1146L4.76605 11.1198C5.03487 11.2368 5.27222 11.4838 5.57651 11.8177C5.8808 12.1516 6.21763 12.5677 6.53599 13C6.85434 13.4323 7.15396 13.8783 7.38305 14.2682C7.61214 14.6581 7.77767 14.9614 7.8118 15.25L7.81442 15.2604V15.2682C7.82239 15.423 7.78208 15.6181 7.66017 15.7813C7.53826 15.9444 7.35911 16.0902 7.07455 16.2839C6.80465 16.4675 6.73587 16.8275 6.9203 17.0964C7.10465 17.3652 7.46591 17.4311 7.73599 17.2474L7.7502 17.2377C8.21803 16.9197 9.04259 16.3591 8.98305 15.2057C8.96888 14.9457 8.80655 14.4805 8.53599 13.9609C8.26542 13.4414 7.89358 12.8589 7.48501 12.3047C7.07644 11.7504 6.63222 11.2235 6.21703 10.8125C5.80185 10.4015 5.40372 10.1088 5.16344 10.0208Z" fill="url(#paint2_linear_1901_3555)"/>
<defs>
<linearGradient id="paint0_linear_1901_3555" x1="23.4432" y1="17.2206" x2="0.554199" y2="17.2205" gradientUnits="userSpaceOnUse">
<stop stop-color="#C69848"/>
<stop offset="0.25" stop-color="#F9D597"/>
<stop offset="0.505208" stop-color="#C69848"/>
<stop offset="0.739583" stop-color="#F9D597"/>
<stop offset="1" stop-color="#C69848"/>
</linearGradient>
<linearGradient id="paint1_linear_1901_3555" x1="23.4432" y1="17.2206" x2="0.554199" y2="17.2205" gradientUnits="userSpaceOnUse">
<stop stop-color="#C69848"/>
<stop offset="0.25" stop-color="#F9D597"/>
<stop offset="0.505208" stop-color="#C69848"/>
<stop offset="0.739583" stop-color="#F9D597"/>
<stop offset="1" stop-color="#C69848"/>
</linearGradient>
<linearGradient id="paint2_linear_1901_3555" x1="23.4432" y1="17.2206" x2="0.554199" y2="17.2205" gradientUnits="userSpaceOnUse">
<stop stop-color="#C69848"/>
<stop offset="0.25" stop-color="#F9D597"/>
<stop offset="0.505208" stop-color="#C69848"/>
<stop offset="0.739583" stop-color="#F9D597"/>
<stop offset="1" stop-color="#C69848"/>
</linearGradient>
</defs>
</svg>
