<svg width="18" height="18" viewBox="0 0 18 18" fill="none" xmlns="http://www.w3.org/2000/svg">
<path fill-rule="evenodd" clip-rule="evenodd" d="M14.5138 16.1304C14.5138 16.324 14.3748 16.467 14.1866 16.467H3.81254C3.62465 16.467 3.48621 16.3242 3.48621 16.1304V15.4533C3.48621 14.4353 4.03583 13.7012 5.05723 13.1199C6.07922 12.5383 7.53603 12.2143 8.99958 12.2143C10.4631 12.2143 11.9199 12.5383 12.9419 13.1199C13.9633 13.7012 14.5129 14.4353 14.5129 15.4533L14.5138 16.121V16.1304ZM4.58888 4.54945C4.58888 2.04477 6.57128 0 8.99958 0C11.4279 0 13.4103 2.04477 13.4103 4.54945C13.4103 7.05413 11.4279 9.0989 8.99958 9.0989C6.57128 9.0989 4.58888 7.05413 4.58888 4.54945ZM11.9241 4.54945C11.9241 2.87558 10.6224 1.53297 8.99958 1.53297C7.37676 1.53297 6.0751 2.87558 6.0751 4.54945C6.0751 6.22332 7.37676 7.56593 8.99958 7.56593C10.6224 7.56593 11.9241 6.22332 11.9241 4.54945ZM3.81254 18C2.81904 18 2 17.1552 2 16.1304V15.4533C2 13.8022 3.01307 12.5332 4.33928 11.7784C5.66348 11.0249 7.33492 10.6813 8.99958 10.6813C10.6685 10.6813 12.3389 11.1287 13.6599 11.8804C14.3714 12.2853 14.9573 12.7427 15.3651 13.3188C15.7743 13.8969 16 14.5886 16 15.4533V16.1304C16 17.1553 15.1801 18 14.1866 18H3.81254Z" fill="url(#paint0_linear_2356_1444)"/>
<defs>
<linearGradient id="paint0_linear_2356_1444" x1="16" y1="8.40218" x2="2" y2="8.40218" gradientUnits="userSpaceOnUse">
<stop stop-color="#C69848"/>
<stop offset="0.510417" stop-color="#F9D597"/>
<stop offset="1" stop-color="#C69848"/>
</linearGradient>
</defs>
</svg>
