<svg width="61" height="61" viewBox="0 0 61 61" fill="none" xmlns="http://www.w3.org/2000/svg">
<path d="M30.5001 4.76562C27.1733 4.76562 24.1723 6.20427 22.0706 8.49904C22.0469 8.48941 22.0227 8.48082 21.9972 8.47574C21.6458 8.4056 21.2961 8.37009 20.9577 8.37009C18.3955 8.37009 16.3109 10.2294 16.3109 12.515V19.3083C16.3109 20.9113 17.3653 22.3745 19.0001 23.0502V28.0201C19.0001 29.3151 19.2104 30.5614 19.5973 31.7261L16.7043 32.8721C15.9877 33.1589 15.2408 33.4267 14.4502 33.7106C9.91083 35.3406 4.76562 37.1882 4.76562 43.1462V56.7691C4.76562 57.0001 4.95074 57.1875 5.17902 57.1875H55.8207C56.049 57.1875 56.2342 57.0001 56.2344 56.7691V43.1462C56.2344 40.3169 54.8506 38.0256 52.0048 36.1413C49.6105 34.5562 46.5873 33.5239 43.9199 32.6129C43.0212 32.3061 42.1707 32.0138 41.4042 31.7219C41.7903 30.5585 41.9998 29.3136 41.9999 28.0201V22.9547C43.5104 22.2428 44.4723 20.8394 44.4723 19.3085V12.5152C44.4723 10.2297 42.3875 8.37035 39.8255 8.37035C39.5172 8.37035 39.2038 8.40105 38.8918 8.45839C36.792 6.18736 33.8072 4.76562 30.5001 4.76562ZM30.5001 5.60278C33.7569 5.60278 36.6756 7.08968 38.6349 9.42631C38.647 9.44739 38.6608 9.46741 38.6763 9.48612C40.0851 11.179 40.9402 13.274 41.1319 15.4677L41.1322 15.4728C41.1453 15.6243 41.155 15.7763 41.1618 15.9286C41.1623 15.9388 41.1627 15.9491 41.1631 15.9594C41.1694 16.1102 41.1731 16.2616 41.1731 16.4131V22.6805V28.0201C41.1731 29.343 40.9362 30.6107 40.5048 31.7833C40.4991 31.795 40.4922 31.806 40.4877 31.8183C38.9731 35.8672 35.1798 38.6325 30.9555 38.819C30.9247 38.8203 30.8939 38.8216 30.8632 38.8226C30.7548 38.8264 30.6463 38.8287 30.5375 38.8291C30.525 38.8291 30.5126 38.8296 30.5001 38.8296C30.4877 38.8296 30.4753 38.8291 30.4628 38.8291C30.3541 38.8287 30.2456 38.8264 30.1373 38.8226C30.1058 38.8215 30.0742 38.8203 30.0428 38.819C25.8139 38.632 22.0213 35.8669 20.5123 31.8188C20.508 31.807 20.5014 31.7964 20.496 31.7851C20.0642 30.612 19.8269 29.3437 19.8269 28.0201V16.4128C19.8269 10.4522 24.615 5.60278 30.5001 5.60278ZM20.9577 9.2075C21.0572 9.2075 21.1581 9.21121 21.2599 9.21864C19.6606 11.2577 18.7836 13.7986 18.7836 16.4131V22.0109C17.7672 21.4015 17.1377 20.3916 17.1377 19.3083V12.515C17.1377 10.6912 18.8513 9.2075 20.9577 9.2075ZM39.8255 9.2075C41.9318 9.2075 43.6455 10.6912 43.6455 12.515V19.3083C43.6455 20.3916 43.0164 21.4013 41.9999 22.0106V16.4128C41.9999 16.2634 41.9959 16.115 41.9904 15.9669C41.9895 15.9432 41.9889 15.9196 41.9878 15.896C41.8789 13.3827 40.9806 11.0737 39.5374 9.21812C39.6346 9.2114 39.7311 9.20763 39.8255 9.2075ZM32.8046 26.4281C31.7424 26.4281 30.9475 26.7889 30.4999 27.437C30.0519 26.7889 29.2563 26.4284 28.1933 26.4284C26.068 26.4284 23.1171 27.9146 22.8956 29.4935C22.8659 29.7049 22.9984 29.9053 23.2029 29.958C23.4364 30.0182 23.785 30.1378 24.189 30.2763C25.396 30.6899 27.0491 31.2564 28.4193 31.2564C29.3871 31.2564 30.0912 30.952 30.5001 30.3809C30.9091 30.9519 31.613 31.2563 32.5804 31.2564C33.9527 31.2564 35.6063 30.6886 36.8133 30.2742C37.2144 30.1366 37.5603 30.0177 37.7917 29.9578C37.9961 29.9049 38.1282 29.7048 38.0985 29.4935C37.8773 27.9146 34.9286 26.4281 32.8046 26.4281ZM28.1933 27.2655C29.4495 27.2655 30.0865 27.8171 30.0865 28.9049C30.0865 29.9662 29.588 30.4189 28.4193 30.4189C27.1851 30.4189 25.6066 29.8781 24.4541 29.4831C24.2304 29.4065 24.0226 29.3355 23.8377 29.2755C24.3662 28.3532 26.4126 27.2655 28.1933 27.2655ZM32.8046 27.2655C34.5843 27.2655 36.6292 28.3534 37.1569 29.2757C36.9741 29.3351 36.7689 29.4055 36.548 29.4813C35.4602 29.8546 33.8166 30.4189 32.5807 30.4189C31.4122 30.4188 30.9133 29.9661 30.9133 28.9049C30.9133 27.8171 31.5496 27.2655 32.8046 27.2655ZM41.1117 32.5068C41.8715 32.796 42.712 33.0839 43.5926 33.3846L30.4999 55.9078L17.4585 33.4724L19.8893 32.5096C20.3448 33.6098 20.9628 34.6243 21.7122 35.5232L26.1453 43.714C26.2077 43.8295 26.3203 43.9086 26.449 43.9274C26.4686 43.93 26.4883 43.9315 26.5078 43.9315C26.6164 43.9315 26.7216 43.8882 26.7997 43.8096L30.5004 40.072L34.2079 43.8096C34.2859 43.8882 34.3911 43.9315 34.4996 43.9315C34.5193 43.9315 34.5391 43.9299 34.5587 43.9271C34.6874 43.9084 34.7997 43.8292 34.8622 43.7138L39.2725 35.5413C40.0294 34.6372 40.653 33.6155 41.1117 32.5068ZM44.3921 33.6588C49.4826 35.4089 55.4073 37.6845 55.4073 43.1462V56.3503H48.2842V44.9057C48.2842 44.6744 48.0991 44.487 47.8708 44.487C47.6426 44.487 47.4576 44.6744 47.4576 44.9057V56.3503H31.2019L44.3921 33.6588ZM16.6777 33.7797L29.7981 56.3503H14.1332V44.9057C14.1332 44.6744 13.9481 44.487 13.7198 44.487C13.4915 44.487 13.3064 44.6744 13.3064 44.9057V56.3503H5.59242V43.1462C5.59242 37.7797 10.2358 36.1124 14.7263 34.5001C15.4052 34.2563 16.0508 34.0233 16.6777 33.7797ZM23.6569 37.3746C25.1596 38.5051 26.9429 39.2731 28.8798 39.551C28.9099 39.5554 28.9401 39.5596 28.9703 39.5637C29.0631 39.5763 29.1562 39.5876 29.2497 39.5979C29.3251 39.6063 29.4006 39.6135 29.4762 39.6204C29.5376 39.6259 29.5989 39.6314 29.6605 39.6359C29.6914 39.6382 29.7222 39.6417 29.7531 39.6437L26.6054 42.8225L23.6569 37.3746ZM37.3402 37.3767L34.401 42.8227L31.2477 39.644C31.2838 39.6416 31.3197 39.6376 31.3558 39.6349C31.394 39.6321 31.432 39.6286 31.4701 39.6253C31.5923 39.6149 31.7142 39.6025 31.8357 39.588C31.8895 39.5817 31.9434 39.5755 31.997 39.5684C32.0538 39.5608 32.1104 39.5527 32.167 39.5443C32.2425 39.5331 32.3177 39.5209 32.3928 39.5083C32.4328 39.5015 32.473 39.4953 32.5129 39.4881C32.6386 39.4655 32.7635 39.4407 32.8877 39.414C32.8917 39.4132 32.8955 39.412 32.8995 39.4112C34.5345 39.0583 36.042 38.3528 37.3402 37.3767Z" fill="#615A9F"/>
<path fill-rule="evenodd" clip-rule="evenodd" d="M44.0187 32.3246C43.2244 32.0534 42.472 31.795 41.7829 31.5388C42.1223 30.4257 42.3052 29.244 42.3052 28.0204V23.1443C43.8088 22.3644 44.7776 20.9115 44.7776 19.3089V12.5155C44.7776 10.0297 42.5226 8.06566 39.8258 8.06566C39.5526 8.06566 39.2769 8.0883 39.0027 8.13069C36.8548 5.87111 33.8379 4.46094 30.5004 4.46094C27.1485 4.46094 24.1195 5.88331 21.9698 8.16018C21.6291 8.09741 21.2892 8.0654 20.958 8.0654C18.2611 8.0654 16.0062 10.0295 16.0062 12.5153V19.3086C16.0062 20.9873 17.0683 22.5009 18.6954 23.2501V28.0204C18.6954 29.2474 18.8795 30.4321 19.2206 31.5477L16.5923 32.5889L16.5913 32.5893C15.887 32.8711 15.1524 33.1348 14.3686 33.4162L14.3227 33.4327C12.0702 34.2416 9.61243 35.1241 7.72128 36.563C5.80296 38.0225 4.46094 40.059 4.46094 43.1465V56.7694C4.46094 57.1654 4.77913 57.4928 5.17934 57.4928H55.821C56.2211 57.4928 56.5395 57.1653 56.5397 56.7694V43.1465C56.5397 40.1928 55.0843 37.8147 52.1735 35.8873C49.7471 34.2809 46.6943 33.2383 44.0401 32.3319L44.0187 32.3246ZM39.1483 10.6363L40.6583 14.3173C40.7364 14.703 40.7931 15.094 40.8278 15.4882L40.8286 15.4996L40.8574 15.9425L40.8587 15.9725C40.8648 16.1197 40.8684 16.2668 40.8684 16.4134V16.5781V28.0204C40.8684 29.2999 40.6405 30.5258 40.2254 31.6603L40.222 31.6671L40.219 31.6731L40.2132 31.6855C40.2097 31.6932 40.2059 31.7021 40.2023 31.7117L40.1831 31.7627L40.1751 31.7836L40.5051 31.7836C40.5031 31.7877 40.501 31.7917 40.4989 31.7956C40.4949 31.8031 40.491 31.8106 40.488 31.8186C38.9734 35.8675 35.1801 38.6328 30.9558 38.8193L30.9067 38.8213L30.8635 38.8229C30.7551 38.8267 30.6466 38.829 30.5378 38.8294L30.5201 38.8297L30.5125 38.8298L30.5004 38.8299L30.4809 38.8297L30.4631 38.8294C30.3544 38.829 30.2459 38.8267 30.1377 38.8229L30.0855 38.821L30.0431 38.8193C25.8142 38.6323 22.0216 35.8672 20.5127 31.8191C20.5107 31.8139 20.5084 31.809 20.506 31.8042L20.5023 31.7973C20.5003 31.7934 20.4982 31.7894 20.4963 31.7854L20.8259 31.7854C20.8167 31.7612 20.8075 31.7369 20.7985 31.7126C20.79 31.6898 20.7808 31.6716 20.7761 31.6626C20.3605 30.5275 20.1322 29.3008 20.1322 28.0204V16.4131C20.1322 10.6173 24.7874 5.90809 30.5004 5.90809C33.6537 5.90809 36.482 7.34357 38.3865 9.60477C38.4031 9.63112 38.422 9.65712 38.4422 9.68153C38.6963 9.98691 38.9319 10.3058 39.1483 10.6363ZM36.8879 30.5715C36.1218 30.8346 35.1491 31.1686 34.1738 31.3736C34.1032 31.3884 34.0327 31.4026 33.9621 31.416C33.4911 31.5056 33.023 31.5617 32.5807 31.5617C31.7353 31.5616 31.0352 31.3415 30.5436 30.8884L30.4714 30.8754C29.979 31.3375 29.2733 31.5617 28.4196 31.5617C26.9982 31.5617 25.3069 30.982 24.115 30.5735L24.0904 30.5651C23.6807 30.4247 23.3461 30.3101 23.1271 30.2537C22.7699 30.1615 22.543 29.8138 22.5939 29.4513C22.6611 28.972 22.9303 28.5274 23.2964 28.1395C23.6645 27.7494 24.1481 27.3975 24.6835 27.1021C25.7505 26.5134 27.0698 26.1237 28.1936 26.1237C29.1597 26.1237 29.9619 26.4057 30.5001 26.9586C31.0379 26.4057 31.8394 26.1234 32.8049 26.1234C33.7906 26.1234 34.9268 26.4237 35.9109 26.8952C35.9906 26.9333 36.0693 26.9727 36.1469 27.013C36.2028 27.0422 36.2582 27.0718 36.3128 27.102C36.8478 27.3975 37.3311 27.7494 37.6989 28.1395C38.0648 28.5275 38.3337 28.9721 38.4009 29.4513C38.4518 29.8135 38.2256 30.1609 37.8685 30.2533C37.6514 30.3095 37.3195 30.4234 36.9127 30.563L36.8879 30.5715ZM18.4789 16.4134C18.4789 13.9379 19.2452 11.5263 20.6538 9.52384C18.8224 9.6572 17.443 10.9835 17.443 12.5153V19.3086C17.443 20.0991 17.8216 20.8606 18.4789 21.4191V16.4134ZM42.3052 16.4131C42.3052 16.2585 42.3011 16.1059 42.2955 15.9558L42.2947 15.9328C42.2942 15.9168 42.2935 15.8981 42.2929 15.8831C42.1906 13.523 41.4096 11.338 40.1425 9.52476C41.9676 9.66322 43.3408 10.987 43.3408 12.5153V19.3086C43.3408 20.0991 42.9625 20.8604 42.3052 21.4189V16.4131ZM51.635 37.2615C49.6214 35.8633 47.0098 34.8859 44.53 34.0292L31.7323 56.0457H47.153V44.906C47.153 44.5102 47.4707 44.1823 47.8711 44.1823C48.2715 44.1823 48.5895 44.51 48.5895 44.906V56.0457H55.1026V43.1465C55.1026 40.5494 53.7028 38.6973 51.635 37.2615ZM30.5009 40.5056L33.9917 44.0247C34.127 44.161 34.3101 44.2368 34.4999 44.2368C34.5362 44.2368 34.5704 44.2339 34.6018 44.2294L34.6029 44.2293C34.8284 44.1965 35.0232 44.058 35.1308 43.8591L39.5266 35.7135C40.2322 34.8662 40.8241 33.9189 41.2776 32.8952C41.8639 33.113 42.4918 33.3305 43.1423 33.5532L30.5002 55.3012L17.9006 33.6258L19.7262 32.9027C20.176 33.9162 20.7615 34.8547 21.4586 35.6953L25.8773 43.8594C25.985 44.0587 26.1802 44.1966 26.4051 44.2295L26.4085 44.2299C26.4397 44.2342 26.4731 44.2368 26.5081 44.2368C26.698 44.2368 26.881 44.161 27.0164 44.0249L30.5009 40.5056ZM34.3282 42.3163L31.9173 39.8859C31.9565 39.8813 31.9972 39.8763 32.0376 39.871C32.0961 39.8632 32.1542 39.8549 32.2119 39.8463C32.2902 39.8348 32.3676 39.8222 32.4437 39.8094L32.4824 39.8029C32.5095 39.7985 32.5401 39.7935 32.5671 39.7886C32.6965 39.7654 32.8251 39.7398 32.9524 39.7125L32.9636 39.7099L32.9676 39.7089C34.2259 39.4369 35.4104 38.9616 36.4858 38.3186L34.3282 42.3163ZM28.9297 39.8663C28.9813 39.8732 29.0328 39.8798 29.0845 39.8861L26.6783 42.3161L24.5148 38.3187C25.8163 39.0969 27.2777 39.6295 28.8363 39.8532C28.8676 39.8577 28.8992 39.8621 28.9297 39.8663ZM8.6585 37.6598C10.3369 36.4034 12.5731 35.5977 14.8297 34.7875C15.4214 34.575 15.9906 34.3697 16.545 34.1581L29.2683 56.0457H14.4385V44.906C14.4385 44.51 14.1205 44.1823 13.7201 44.1823C13.3197 44.1823 13.0017 44.51 13.0017 44.906V56.0457H5.89773V43.1465C5.89773 40.573 7.00165 38.9001 8.6585 37.6598ZM35.3176 28.1996C34.5485 27.8271 33.6379 27.5709 32.8049 27.5709C32.4685 27.5709 32.1976 27.6133 31.9826 27.6883C31.8209 27.7446 31.6908 27.8193 31.5884 27.9081C31.3579 28.1079 31.2186 28.4218 31.2186 28.9052C31.2186 29.3937 31.3335 29.6703 31.5141 29.8343C31.7017 30.0046 32.0256 30.1142 32.581 30.1142L34.751 29.5859L35.0114 29.5225L36.6582 29.1216L36.523 29.0286L35.5406 28.3529L35.3415 28.216L35.3176 28.1996ZM28.4196 30.1142C27.247 30.1142 25.7217 29.5953 24.5533 29.1949L24.3376 29.1212C24.6291 28.8127 25.0975 28.4809 25.6791 28.1995C26.4489 27.8271 27.3601 27.5709 28.1936 27.5709C28.7837 27.5709 29.1727 27.7012 29.4116 27.9082C29.6424 28.108 29.7818 28.4219 29.7818 28.9052C29.7818 29.3938 29.6669 29.6705 29.4864 29.8344C29.2989 30.0047 28.9751 30.1142 28.4196 30.1142Z" fill="#615A9F"/>
<path fill-rule="evenodd" clip-rule="evenodd" d="M30.148 38.5181C30.2534 38.5218 30.359 38.524 30.4642 38.5244C30.4728 38.5244 30.4811 38.5246 30.4867 38.5247L30.4879 38.5247L30.5004 38.5249L30.513 38.5247C30.5185 38.5246 30.5274 38.5244 30.5367 38.5244C30.642 38.524 30.7473 38.5218 30.8527 38.5181L30.9015 38.5163L30.9427 38.5146C35.0177 38.3345 38.685 35.6804 40.1751 31.7836L40.5051 31.7836C40.5031 31.7877 40.501 31.7917 40.4989 31.7956C40.4949 31.8031 40.491 31.8106 40.488 31.8186C38.9734 35.8675 35.1801 38.6328 30.9558 38.8193L30.9067 38.8213L30.8635 38.8229C30.7551 38.8267 30.6466 38.829 30.5378 38.8294L30.5201 38.8297L30.5125 38.8298L30.5004 38.8299L30.4809 38.8297L30.4631 38.8294C30.3544 38.829 30.2459 38.8267 30.1377 38.8229L30.0855 38.821L30.0431 38.8193C25.8142 38.6323 22.0216 35.8672 20.5127 31.8191C20.5107 31.8139 20.5084 31.809 20.506 31.8042L20.5023 31.7973C20.5003 31.7934 20.4982 31.7894 20.4963 31.7854L20.8259 31.7854C22.3108 35.6806 25.977 38.3342 30.0565 38.5146L30.0893 38.5159L30.148 38.5181Z" fill="#615A9F"/>
</svg>
