<svg width="61" height="61" viewBox="0 0 61 61" fill="none" xmlns="http://www.w3.org/2000/svg">
<path d="M11.1822 4.35776C10.9791 4.3638 10.7864 4.44984 10.6449 4.59764C10.5033 4.74543 10.4242 4.94333 10.4242 5.14934V8.02379H7.11215C5.91756 8.03242 4.77471 8.51925 3.93246 9.37826C3.09021 10.2373 2.61677 11.3989 2.61523 12.6102V44.3154C2.61787 45.5235 3.09265 46.6812 3.93554 47.535C4.77844 48.3888 5.92072 48.869 7.11215 48.8704H30.2057C32.5677 53.9605 37.6833 57.5146 43.6001 57.5146C51.7539 57.5146 58.3866 50.7879 58.3866 42.5202C58.3928 39.5303 57.5144 36.6072 55.865 34.1288C54.2157 31.6503 51.8711 29.7304 49.1344 28.6172V12.6102C49.1344 10.0992 47.1213 8.02379 44.6451 8.02379H41.3254V5.14934C41.3254 4.93934 41.2431 4.73794 41.0967 4.58945C40.9503 4.44096 40.7516 4.35754 40.5445 4.35754C40.3374 4.35754 40.1388 4.44096 39.9924 4.58945C39.8459 4.73794 39.7636 4.93934 39.7636 5.14934V8.02379H26.7115V5.14934C26.7115 4.93934 26.6292 4.73794 26.4828 4.58945C26.3363 4.44096 26.1377 4.35754 25.9306 4.35754C25.7235 4.35754 25.5249 4.44096 25.3784 4.58945C25.232 4.73794 25.1497 4.93934 25.1497 5.14934V8.02379H11.986V5.14934C11.986 5.04339 11.9651 4.93852 11.9244 4.84094C11.8837 4.74336 11.8241 4.65505 11.7492 4.58123C11.6742 4.50742 11.5854 4.44961 11.488 4.41122C11.3907 4.37284 11.2867 4.35466 11.1822 4.35776ZM7.11215 9.60738H10.4242V11.8584C10.4242 12.0684 10.5065 12.2698 10.6529 12.4183C10.7994 12.5668 10.998 12.6502 11.2051 12.6502C11.4122 12.6502 11.6108 12.5668 11.7573 12.4183C11.9037 12.2698 11.986 12.0684 11.986 11.8584V9.60738H25.1497V11.8584C25.1497 12.0684 25.232 12.2698 25.3784 12.4183C25.5249 12.5668 25.7235 12.6502 25.9306 12.6502C26.1377 12.6502 26.3363 12.5668 26.4828 12.4183C26.6292 12.2698 26.7115 12.0684 26.7115 11.8584V9.60738H39.7636V11.8584C39.7636 12.0684 39.8459 12.2698 39.9924 12.4183C40.1388 12.5668 40.3374 12.6502 40.5445 12.6502C40.7516 12.6502 40.9503 12.5668 41.0967 12.4183C41.2431 12.2698 41.3254 12.0684 41.3254 11.8584V9.60738H44.6451C45.4249 9.61575 46.1698 9.93589 46.718 10.4982C47.2662 11.0605 47.5734 11.8195 47.5726 12.6102V28.0768C46.2792 27.7112 44.942 27.529 43.5993 27.5355C40.3762 27.5338 37.2409 28.6008 34.6715 30.5738C32.1021 32.5469 30.2395 35.3177 29.3677 38.464H29.0631C28.8607 38.4622 28.6656 38.5409 28.5198 38.6832C28.374 38.8256 28.289 39.0202 28.2832 39.2254C28.2773 39.4306 28.3511 39.6299 28.4885 39.7806C28.626 39.9312 28.8163 40.0212 29.0184 40.0312C28.8818 40.8546 28.813 41.6881 28.813 42.523C28.8093 44.1428 29.0679 45.7521 29.5784 47.2868H7.11215C6.33479 47.2859 5.58948 46.9727 5.03938 46.4157C4.48927 45.8588 4.1792 45.1036 4.17703 44.3154V12.6102C4.17802 11.8187 4.48674 11.0596 5.03622 10.4974C5.5857 9.93526 6.33161 9.61546 7.11215 9.60738ZM20.4682 21.2707C20.2611 21.2707 20.0625 21.3542 19.9161 21.5027C19.7696 21.6511 19.6873 21.8525 19.6873 22.0625C19.6873 22.2725 19.7696 22.4739 19.9161 22.6224C20.0625 22.7709 20.2611 22.8543 20.4682 22.8543H22.6325C22.8396 22.8543 23.0382 22.7709 23.1847 22.6224C23.3311 22.4739 23.4134 22.2725 23.4134 22.0625C23.4134 21.8525 23.3311 21.6511 23.1847 21.5027C23.0382 21.3542 22.8396 21.2707 22.6325 21.2707H20.4682ZM29.0631 21.2707C28.856 21.2707 28.6574 21.3542 28.5109 21.5027C28.3645 21.6511 28.2822 21.8525 28.2822 22.0625C28.2822 22.2725 28.3645 22.4739 28.5109 22.6224C28.6574 22.7709 28.856 22.8543 29.0631 22.8543H31.2274C31.4345 22.8543 31.6331 22.7709 31.7795 22.6224C31.926 22.4739 32.0083 22.2725 32.0083 22.0625C32.0083 21.8525 31.926 21.6511 31.7795 21.5027C31.6331 21.3542 31.4345 21.2707 31.2274 21.2707H29.0631ZM37.7199 21.2707C37.5128 21.2707 37.3141 21.3542 37.1677 21.5027C37.0213 21.6511 36.939 21.8525 36.939 22.0625C36.939 22.2725 37.0213 22.4739 37.1677 22.6224C37.3141 22.7709 37.5128 22.8543 37.7199 22.8543H39.8839C40.091 22.8543 40.2896 22.7709 40.4361 22.6224C40.5825 22.4739 40.6648 22.2725 40.6648 22.0625C40.6648 21.8525 40.5825 21.6511 40.4361 21.5027C40.2896 21.3542 40.091 21.2707 39.8839 21.2707H37.7199ZM43.05 29.1213C44.8316 29.0461 46.6097 29.337 48.2776 29.9764C49.9455 30.6159 51.4686 31.5907 52.7555 32.8423C54.0423 34.0939 55.0662 35.5964 55.7657 37.2595C56.4651 38.9226 56.8257 40.7119 56.8257 42.52C56.8217 46.0753 55.427 49.4838 52.9476 51.9978C50.4682 54.5119 47.1065 55.926 43.6001 55.9301C40.1408 55.929 36.8196 54.5536 34.3486 52.0989C31.8776 49.6443 30.4534 46.3056 30.3815 42.7988C30.3095 39.292 31.5955 35.8961 33.9636 33.3393C36.3318 30.7826 39.5937 29.2683 43.05 29.1213ZM11.8115 29.8674C11.6044 29.8674 11.4057 29.9508 11.2593 30.0993C11.1129 30.2478 11.0306 30.4492 11.0306 30.6592C11.0306 30.8692 11.1129 31.0706 11.2593 31.219C11.4057 31.3675 11.6044 31.451 11.8115 31.451H13.9757C14.1828 31.451 14.3815 31.3675 14.5279 31.219C14.6743 31.0706 14.7566 30.8692 14.7566 30.6592C14.7566 30.4492 14.6743 30.2478 14.5279 30.0993C14.3815 29.9508 14.1828 29.8674 13.9757 29.8674H11.8115ZM20.4682 29.8674C20.2611 29.8674 20.0625 29.9508 19.9161 30.0993C19.7696 30.2478 19.6873 30.4492 19.6873 30.6592C19.6873 30.8692 19.7696 31.0706 19.9161 31.219C20.0625 31.3675 20.2611 31.451 20.4682 31.451H22.6325C22.8396 31.451 23.0382 31.3675 23.1847 31.219C23.3311 31.0706 23.4134 30.8692 23.4134 30.6592C23.4134 30.4492 23.3311 30.2478 23.1847 30.0993C23.0382 29.9508 22.8396 29.8674 22.6325 29.8674H20.4682ZM29.0631 29.8674C28.856 29.8674 28.6574 29.9508 28.5109 30.0993C28.3645 30.2478 28.2822 30.4492 28.2822 30.6592C28.2822 30.8692 28.3645 31.0706 28.5109 31.219C28.6574 31.3675 28.856 31.451 29.0631 31.451H31.2274C31.4345 31.451 31.6331 31.3675 31.7795 31.219C31.926 31.0706 32.0083 30.8692 32.0083 30.6592C32.0083 30.4492 31.926 30.2478 31.7795 30.0993C31.6331 29.9508 31.4345 29.8674 31.2274 29.8674H29.0631ZM11.8115 38.464C11.6044 38.464 11.4057 38.5474 11.2593 38.6959C11.1129 38.8444 11.0306 39.0458 11.0306 39.2558C11.0306 39.4658 11.1129 39.6672 11.2593 39.8157C11.4057 39.9642 11.6044 40.0476 11.8115 40.0476H13.9757C14.1828 40.0476 14.3815 39.9642 14.5279 39.8157C14.6743 39.6672 14.7566 39.4658 14.7566 39.2558C14.7566 39.0458 14.6743 38.8444 14.5279 38.6959C14.3815 38.5474 14.1828 38.464 13.9757 38.464H11.8115ZM20.4682 38.464C20.2611 38.464 20.0625 38.5474 19.9161 38.6959C19.7696 38.8444 19.6873 39.0458 19.6873 39.2558C19.6873 39.4658 19.7696 39.6672 19.9161 39.8157C20.0625 39.9642 20.2611 40.0476 20.4682 40.0476H22.6325C22.8396 40.0476 23.0382 39.9642 23.1847 39.8157C23.3311 39.6672 23.4134 39.4658 23.4134 39.2558C23.4134 39.0458 23.3311 38.8444 23.1847 38.6959C23.0382 38.5474 22.8396 38.464 22.6325 38.464H20.4682Z" fill="#615A9F"/>
<path fill-rule="evenodd" clip-rule="evenodd" d="M49.2288 36.815C49.5916 37.0516 49.6939 37.5375 49.4573 37.9003L42.4185 48.6931L36.9442 43.7165C36.6237 43.4251 36.6001 42.9291 36.8915 42.6086C37.1828 42.2881 37.6789 42.2645 37.9994 42.5558L42.1108 46.2935L48.1434 37.0434C48.3801 36.6806 48.866 36.5783 49.2288 36.815Z" fill="#615A9F"/>
</svg>
