<svg width="45" height="54" viewBox="0 0 45 54" fill="none" xmlns="http://www.w3.org/2000/svg">
<path d="M22.5007 53.7764C22.2557 53.7776 22.0129 53.7292 21.7867 53.6343C21.5604 53.5393 21.3552 53.3995 21.183 53.2232L6.86218 38.7407C3.76528 35.6121 1.65556 31.6248 0.799907 27.2834C-0.0557459 22.9419 0.381121 18.4414 2.05524 14.3511C3.72936 10.2608 6.5655 6.76453 10.2049 4.30464C13.8442 1.84474 18.1233 0.531738 22.5007 0.531738C26.8781 0.531738 31.1572 1.84474 34.7965 4.30464C38.4359 6.76453 41.2721 10.2608 42.9462 14.3511C44.6203 18.4414 45.0572 22.9419 44.2015 27.2834C43.3458 31.6248 41.2361 35.6121 38.1392 38.7407L23.8184 53.2232C23.6463 53.3995 23.441 53.5393 23.2147 53.6343C22.9885 53.7292 22.7457 53.7776 22.5007 53.7764Z" fill="#352D88"/>
</svg>
