<svg width="20" height="20" viewBox="0 0 20 20" fill="none" xmlns="http://www.w3.org/2000/svg">
<path fill-rule="evenodd" clip-rule="evenodd" d="M14.5818 11.9851C14.333 11.8612 13.1097 11.2622 12.8816 11.1795C12.6536 11.0968 12.4877 11.0556 12.3218 11.3034C12.1559 11.5513 11.6791 12.1091 11.5339 12.2744C11.3888 12.4396 11.2437 12.4604 10.9948 12.3363C10.746 12.2124 9.94428 11.951 8.99389 11.1072C8.25422 10.4506 7.75482 9.63973 7.60971 9.39181C7.46456 9.1439 7.5942 9.0099 7.71877 8.88644C7.83074 8.77548 7.96764 8.59718 8.09202 8.45258C8.21645 8.30802 8.2579 8.20467 8.34084 8.03949C8.42378 7.87417 8.38233 7.72961 8.32007 7.60568C8.2579 7.48175 7.76026 6.26281 7.55294 5.76694C7.35096 5.28413 7.14584 5.34952 6.99309 5.34187C6.84813 5.3347 6.68206 5.33318 6.51623 5.33318C6.35035 5.33318 6.08076 5.39514 5.85267 5.64301C5.62462 5.89092 4.98183 6.49005 4.98183 7.70885C4.98183 8.92778 5.87339 10.1052 5.99782 10.2705C6.12225 10.4358 7.75234 12.937 10.2484 14.0096C10.842 14.2648 11.3055 14.4172 11.6669 14.5312C12.2629 14.7198 12.8054 14.6932 13.2341 14.6294C13.7122 14.5583 14.7062 14.0304 14.9136 13.452C15.1209 12.8734 15.1209 12.3776 15.0587 12.2744C14.9965 12.1711 14.8307 12.1091 14.5818 11.9851ZM10.0418 18.1544H10.0385C8.55327 18.1538 7.09656 17.7567 5.82579 17.0062L5.52354 16.8277L2.39095 17.6455L3.22708 14.6059L3.03031 14.2942C2.20178 12.9827 1.76416 11.4669 1.76483 9.91045C1.76664 5.36882 5.47966 1.67385 10.0451 1.67385C12.2559 1.67461 14.334 2.53253 15.8967 4.08957C17.4594 5.64652 18.3195 7.71612 18.3186 9.9171C18.3168 14.4591 14.6038 18.1544 10.0418 18.1544ZM17.0861 2.90647C15.206 1.03318 12.7057 0.00109296 10.0417 0C4.55291 0 0.0856614 4.4456 0.083465 9.90983C0.0827488 11.6566 0.541276 13.3614 1.41273 14.8645L0 20L5.27897 18.6219C6.73348 19.4114 8.37111 19.8276 10.0378 19.8281H10.0418C15.5301 19.8281 19.9978 15.3821 20 9.91777C20.001 7.26966 18.9662 4.77971 17.0861 2.90647Z" fill="white"/>
</svg>
