<svg width="60" height="60" viewBox="0 0 60 60" fill="none" xmlns="http://www.w3.org/2000/svg">
<path d="M56.1987 42.2878L48.4643 34.5534V11.6906C48.464 9.86557 47.9226 8.08159 46.9085 6.56419C45.8944 5.0468 44.4533 3.86411 42.7672 3.16565C41.0811 2.46719 39.2257 2.2843 37.4357 2.64012C35.6457 2.99594 34.0013 3.87448 32.7105 5.16468L30.9152 6.95999L30.3551 6.39749C29.9624 6.00171 29.4463 5.75179 28.8923 5.68906C28.3383 5.62632 27.7795 5.75453 27.3082 6.05249L22.9287 8.79749C22.8242 8.86303 22.7359 8.95126 22.6703 9.05562C22.6046 9.15999 22.5634 9.27781 22.5495 9.40032C22.5357 9.52284 22.5497 9.64689 22.5904 9.76326C22.6311 9.87964 22.6976 9.98533 22.7848 10.0725L28.9605 16.2506C29.1143 16.4045 29.3229 16.491 29.5404 16.4911C29.5717 16.491 29.603 16.4893 29.6341 16.4859C29.7566 16.4719 29.8744 16.4305 29.9788 16.3648C30.0831 16.299 30.1714 16.2107 30.2369 16.1062L32.9819 11.7276C33.2798 11.2564 33.408 10.6975 33.3452 10.1435C33.2825 9.58955 33.0327 9.07353 32.6369 8.68077L32.0768 8.11827L33.8721 6.32296C34.9334 5.26131 36.2858 4.5383 37.7582 4.24539C39.2305 3.95249 40.7566 4.10285 42.1435 4.67745C43.5303 5.25206 44.7156 6.22509 45.5494 7.47346C46.3831 8.72183 46.8279 10.1894 46.8274 11.6906V32.9152L46.1055 32.1951C45.2953 31.3826 44.3166 30.758 43.2384 30.3655C42.1602 29.973 41.0089 29.8221 39.866 29.9236L30.8191 30.7148V27.0469H40.991C41.0987 27.0469 41.2054 27.0258 41.305 26.9846C41.4045 26.9433 41.495 26.8829 41.5712 26.8067C41.6474 26.7306 41.7078 26.6401 41.749 26.5405C41.7902 26.441 41.8114 26.3343 41.8113 26.2266V23.3538C41.8107 22.7635 41.5759 22.1975 41.1585 21.7801C40.7411 21.3626 40.1751 21.1278 39.5848 21.1272H25.3216C24.7313 21.1278 24.1653 21.3626 23.7479 21.7801C23.3305 22.1975 23.0957 22.7635 23.0951 23.3538V26.2266C23.0951 26.4441 23.1815 26.6528 23.3353 26.8066C23.4892 26.9604 23.6978 27.0469 23.9154 27.0469H29.179V30.8601L24.1062 31.3036L9.97007 17.1666C9.16823 16.3492 8.08214 15.8726 6.93778 15.8357C5.79341 15.7989 4.6789 16.2047 3.82616 16.9687C3.40312 17.3668 3.06434 17.8458 2.82991 18.3773C2.59548 18.9088 2.47017 19.482 2.46143 20.0628C2.45269 20.6436 2.56068 21.2203 2.77901 21.7586C2.99733 22.2969 3.32154 22.7859 3.73241 23.1966L18.2412 37.7081C19.0517 38.5203 20.0306 39.1446 21.1088 39.537C22.187 39.9294 23.3382 40.0804 24.4812 39.9792L26.3665 39.8142V47.8322H21.093C20.8755 47.8322 20.6668 47.9186 20.513 48.0724C20.3591 48.2263 20.2727 48.4349 20.2727 48.6525V56.7187C20.2727 56.9363 20.3591 57.145 20.513 57.2988C20.6668 57.4526 20.8755 57.5391 21.093 57.5391H38.9055C39.1231 57.5391 39.3317 57.4526 39.4856 57.2988C39.6394 57.145 39.7258 56.9363 39.7258 56.7187V48.6525C39.7258 48.4349 39.6394 48.2263 39.4856 48.0724C39.3317 47.9186 39.1231 47.8322 38.9055 47.8322H33.6321V39.1786L40.2415 38.6006L50.1682 48.5269C50.5697 48.9312 51.0474 49.2517 51.5738 49.4698C52.1001 49.688 52.6645 49.7994 53.2343 49.7976H53.3013C53.8825 49.7907 54.4562 49.6662 54.9879 49.4315C55.5196 49.1968 55.9983 48.8569 56.3951 48.4322C57.1597 47.5797 57.5661 46.4652 57.5295 45.3206C57.4929 44.176 57.0162 43.0897 56.1987 42.2878ZM31.5893 10.8558L29.3923 14.3625L24.6724 9.64265L28.1791 7.44421C28.3363 7.34486 28.5226 7.30214 28.7073 7.32311C28.892 7.34408 29.064 7.42748 29.1949 7.55953L31.4754 9.83999C31.6073 9.97096 31.6905 10.143 31.7114 10.3277C31.7323 10.5124 31.6895 10.6987 31.5902 10.8558H31.5893ZM24.7357 23.3524C24.7358 23.197 24.7976 23.0481 24.9074 22.9382C25.0173 22.8283 25.1663 22.7666 25.3216 22.7664H39.5843C39.7397 22.7664 39.8887 22.8282 39.9986 22.9381C40.1085 23.0479 40.1702 23.197 40.1702 23.3524V25.4062H24.7357V23.3524ZM38.0852 55.897H21.9133V49.4728H38.0852V55.897ZM31.9915 47.8308H28.0071V39.6708L31.9915 39.322V47.8308ZM55.2012 47.3058C54.9543 47.57 54.6565 47.7815 54.3257 47.9276C53.995 48.0736 53.638 48.1512 53.2765 48.1556C52.9155 48.1599 52.5573 48.0923 52.2227 47.9567C51.8882 47.8211 51.584 47.6202 51.3279 47.3658L41.1307 37.1719C40.9768 37.0179 40.7681 36.9314 40.5504 36.9314C40.5265 36.9314 40.5035 36.9314 40.4791 36.9347L24.3382 38.3437C23.434 38.4241 22.5233 38.305 21.6702 37.9948C20.8172 37.6846 20.0426 37.1908 19.4013 36.5484L4.89069 22.0378C4.63521 21.7823 4.43365 21.4781 4.29797 21.1433C4.1623 20.8084 4.09527 20.4497 4.10086 20.0885C4.10646 19.7272 4.18457 19.3708 4.33055 19.0403C4.47653 18.7098 4.68742 18.412 4.95069 18.1645C5.49164 17.6896 6.19487 17.4416 6.91404 17.4721C7.63321 17.5026 8.31294 17.8092 8.81178 18.3281L23.2165 32.7328C23.3011 32.8177 23.4033 32.8829 23.5159 32.9239C23.6285 32.9649 23.7487 32.9806 23.868 32.97L40.0085 31.5576C40.9129 31.4774 41.8238 31.5967 42.677 31.9073C43.5302 32.2178 44.3047 32.712 44.9458 33.3548L55.0385 43.448C55.5569 43.9468 55.863 44.6262 55.8933 45.345C55.9236 46.0637 55.6757 46.7665 55.2012 47.3072V47.3058Z" fill="#615A9F"/>
</svg>
