<svg width="20" height="20" viewBox="0 0 20 20" fill="none" xmlns="http://www.w3.org/2000/svg">
<path fill-rule="evenodd" clip-rule="evenodd" d="M1.3749 8.78364C6.74359 6.31398 10.3236 4.68584 12.1148 3.89919C17.2292 1.65318 18.2919 1.26302 18.9846 1.25014C19.1369 1.2473 19.4776 1.28717 19.6982 1.47621C19.8845 1.63582 19.9358 1.85145 19.9603 2.00278C19.9848 2.15412 20.0154 2.49887 19.9911 2.76825C19.714 5.84287 18.5147 13.3042 17.9046 16.7478C17.6465 18.2049 17.1382 18.6935 16.6461 18.7413C15.5766 18.8452 14.7645 17.9951 13.7287 17.2782C12.1078 16.1564 11.1921 15.458 9.61879 14.3633C7.80053 13.0982 8.97923 12.4029 10.0154 11.2666C10.2866 10.9692 14.9987 6.44386 15.0899 6.03335C15.1013 5.98201 15.1119 5.79063 15.0042 5.68957C14.8965 5.58852 14.7376 5.62307 14.6229 5.65056C14.4604 5.68951 11.871 7.49654 6.85486 11.0716C6.11988 11.6045 5.45416 11.8641 4.8577 11.8505C4.20015 11.8355 2.93528 11.458 1.99498 11.1353C0.84166 10.7394 -0.074973 10.5302 0.00484519 9.85791C0.0464194 9.50777 0.503103 9.14968 1.3749 8.78364Z" fill="white"/>
</svg>
