<svg width="60" height="60" viewBox="0 0 60 60" fill="none" xmlns="http://www.w3.org/2000/svg">
<path d="M56.5785 32.4053C57.129 31.7246 57.4294 30.8757 57.4294 30.0002C57.4294 29.1248 57.129 28.2758 56.5785 27.5952L55.3496 26.0612C55.114 25.7668 54.9528 25.4201 54.8795 25.0502C54.8062 24.6804 54.8229 24.2984 54.9284 23.9364L55.4768 22.0549C55.7177 21.2136 55.6664 20.3155 55.3313 19.5071C54.9963 18.6987 54.3972 18.0277 53.6318 17.6034L51.9149 16.6608C51.5842 16.4796 51.3019 16.2216 51.092 15.9083C50.882 15.5951 50.7506 15.2359 50.7087 14.8611L50.4945 12.9094C50.4028 12.0383 50.0149 11.2252 49.3956 10.6058C48.7762 9.98647 47.963 9.59853 47.092 9.50686L45.1402 9.29262C44.7655 9.25093 44.4063 9.11959 44.0931 8.90971C43.7798 8.69984 43.5217 8.4176 43.3406 8.08687L42.398 6.36952C41.9803 5.59787 41.3099 4.99335 40.4993 4.65741C39.6887 4.32146 38.7872 4.27453 37.9461 4.52448L36.0651 5.07251C35.7029 5.17779 35.3207 5.19444 34.9508 5.12106C34.5809 5.04768 34.234 4.88642 33.9394 4.65088L32.4055 3.422C31.7247 2.87164 30.8758 2.57141 30.0004 2.57141C29.125 2.57141 28.2761 2.87164 27.5954 3.422L26.0614 4.65088C25.7669 4.88612 25.4201 5.04716 25.0503 5.12046C24.6806 5.19375 24.2986 5.17716 23.9366 5.07208L22.0551 4.52363C21.2139 4.28253 20.3157 4.33371 19.5072 4.6688C18.6988 5.00389 18.0278 5.60311 17.6037 6.36866L16.661 8.08558C16.4799 8.41632 16.2218 8.69859 15.9086 8.90853C15.5954 9.11848 15.2362 9.24992 14.8614 9.29176L12.9097 9.506C12.0387 9.59767 11.2255 9.98561 10.6061 10.605C9.98678 11.2243 9.59884 12.0375 9.50717 12.9086L9.29294 14.8603C9.25125 15.235 9.11991 15.5942 8.91004 15.9075C8.70016 16.2207 8.41792 16.4788 8.0872 16.6599L6.36986 17.6026C5.59838 18.0205 4.99402 18.6909 4.6581 19.5014C4.32218 20.312 4.27513 21.2134 4.52483 22.0545L5.07371 23.9351C5.17896 24.2973 5.19559 24.6794 5.12221 25.0494C5.04883 25.4193 4.8876 25.7662 4.65209 26.0608L3.42322 27.5947C2.87264 28.2754 2.57227 29.1243 2.57227 29.9998C2.57227 30.8753 2.87264 31.7242 3.42322 32.4049L4.65209 33.9388C4.88764 34.2332 5.04888 34.58 5.12219 34.9498C5.1955 35.3196 5.17873 35.7017 5.07329 36.0637L4.52483 37.9451C4.2838 38.7864 4.33491 39.6845 4.66982 40.493C5.00473 41.3015 5.60368 41.9726 6.369 42.397L8.08591 43.3397C8.41665 43.5208 8.69892 43.7789 8.90886 44.0921C9.1188 44.4054 9.25024 44.7645 9.29208 45.1393L9.50632 47.091C9.59799 47.9621 9.98593 48.7753 10.6053 49.3946C11.2246 50.014 12.0378 50.4019 12.9089 50.4936L14.8606 50.7078C15.2353 50.7495 15.5945 50.8809 15.9078 51.0907C16.221 51.3006 16.4791 51.5829 16.6602 51.9136L17.6028 53.6309C18.0205 54.4026 18.6909 55.0071 19.5015 55.343C20.3121 55.679 21.2136 55.7259 22.0547 55.476L23.9353 54.9271C24.2975 54.8222 24.6796 54.8057 25.0495 54.8791C25.4194 54.9524 25.7662 55.1135 26.061 55.3487L27.5949 56.5776C28.2756 57.1282 29.1245 57.4286 30 57.4286C30.8754 57.4286 31.7244 57.1282 32.405 56.5776L33.939 55.3487C34.2334 55.1133 34.5802 54.9521 34.95 54.8788C35.3198 54.8055 35.7018 54.8222 36.0638 54.9275L37.9452 55.476C38.7863 55.7257 39.6876 55.6787 40.4981 55.3428C41.3086 55.0068 41.9789 54.4024 42.3967 53.6309L43.3394 51.914C43.5205 51.5833 43.7786 51.301 44.0918 51.0911C44.405 50.8811 44.7642 50.7497 45.139 50.7078L47.0907 50.4936C47.9617 50.4019 48.7749 50.014 49.3943 49.3946C50.0136 48.7753 50.4015 47.9621 50.4932 47.091L50.7075 45.1393C50.7491 44.7646 50.8805 44.4054 51.0904 44.0921C51.3002 43.7789 51.5825 43.5208 51.9132 43.3397L53.6305 42.397C54.402 41.9791 55.0064 41.3087 55.3423 40.4982C55.6782 39.6876 55.7253 38.7862 55.4756 37.9451L54.9267 36.0645C54.8214 35.7023 54.8048 35.3202 54.8782 34.9502C54.9516 34.5803 55.1128 34.2334 55.3483 33.9388L56.5785 32.4053ZM54.179 33.0022C53.793 33.4847 53.5288 34.0531 53.4086 34.6592C53.2884 35.2653 53.3157 35.8915 53.4883 36.4849L54.0376 38.3655C54.1899 38.8787 54.1611 39.4286 53.9561 39.9231C53.751 40.4176 53.3823 40.8267 52.9115 41.0816L51.1938 42.0242C50.6515 42.3215 50.1888 42.745 49.845 43.259C49.5011 43.773 49.2862 44.3622 49.2185 44.9769L49.0043 46.9286C48.948 47.4601 48.7112 47.9562 48.3333 48.3341C47.9554 48.712 47.4593 48.9488 46.9279 49.0051L44.9757 49.2193C44.3611 49.2873 43.772 49.5024 43.2581 49.8463C42.7442 50.1902 42.3207 50.6528 42.0235 51.195L41.0808 52.9124C40.8257 53.3828 40.4168 53.7514 39.9224 53.9564C39.4281 54.1614 38.8783 54.1903 38.3652 54.0384L36.4841 53.4895C35.8909 53.3167 35.2648 53.2891 34.6587 53.4093C34.0526 53.5294 33.4843 53.7937 33.0019 54.1798L31.4679 55.4087C31.0527 55.7451 30.5344 55.9287 30 55.9287C29.4655 55.9287 28.9473 55.7451 28.532 55.4087L26.9981 54.1798C26.5155 53.7938 25.9472 53.5295 25.341 53.4093C24.7349 53.2891 24.1087 53.3165 23.5154 53.4891L21.6352 54.038C21.122 54.1897 20.5723 54.1606 20.0779 53.9557C19.5835 53.7507 19.1745 53.3823 18.9191 52.9119L17.9765 51.1942C17.6793 50.6519 17.2557 50.1892 16.7417 49.8454C16.2278 49.5015 15.6385 49.2866 15.0238 49.2189L13.0721 49.0046C12.5407 48.9484 12.0446 48.7115 11.6667 48.3336C11.2888 47.9557 11.052 47.4597 10.9957 46.9282L10.7815 44.9761C10.7135 44.3615 10.4984 43.7723 10.1545 43.2584C9.81061 42.7445 9.34797 42.3211 8.80576 42.0238L7.08842 41.0812C6.62148 40.8224 6.256 40.413 6.05158 39.9198C5.84717 39.4266 5.81587 38.8787 5.96281 38.3655L6.51169 36.4844C6.68441 35.8912 6.71185 35.2651 6.59171 34.659C6.47157 34.0529 6.20737 33.4847 5.82141 33.0022L4.59168 31.4682C4.25566 31.0527 4.07234 30.5346 4.07234 30.0002C4.07234 29.4659 4.25566 28.9477 4.59168 28.5323L5.82055 26.9983C6.20649 26.5157 6.47071 25.9474 6.59093 25.3412C6.71114 24.7351 6.68381 24.109 6.51126 23.5156L5.96281 21.635C5.81054 21.1218 5.83933 20.5718 6.04434 20.0773C6.24935 19.5828 6.61813 19.1738 7.08885 18.9189L8.80661 17.9762C9.3489 17.679 9.81156 17.2555 10.1554 16.7415C10.4992 16.2275 10.7141 15.6382 10.7819 15.0235L10.9961 13.0718C11.0528 12.5401 11.2902 12.044 11.6687 11.6663C12.0471 11.2886 12.5437 11.0522 13.0755 10.9967L15.0277 10.7824C15.6423 10.7144 16.2314 10.4994 16.7453 10.1555C17.2592 9.81158 17.6827 9.34894 17.9799 8.80672L18.9225 7.08937C19.1814 6.6232 19.5903 6.25821 20.0827 6.05364C20.5751 5.84908 21.1222 5.81695 21.6352 5.96246L23.5163 6.51135C24.1095 6.68425 24.7356 6.71179 25.3417 6.59164C25.9478 6.47149 26.5161 6.20719 26.9985 5.82107L28.5324 4.59133C28.9479 4.25523 29.4661 4.07186 30.0004 4.07186C30.5348 4.07186 31.0529 4.25523 31.4684 4.59133L33.0023 5.82021C33.485 6.20593 34.0534 6.47001 34.6594 6.59021C35.2655 6.71042 35.8916 6.68322 36.485 6.51092L38.3656 5.96246C38.8788 5.81069 39.4286 5.83971 39.923 6.04468C40.4174 6.24964 40.8264 6.61813 41.0817 7.08851L42.0244 8.80629C42.3216 9.34858 42.7451 9.81124 43.2591 10.1551C43.773 10.4989 44.3623 10.7138 44.977 10.7816L46.9287 10.9958C47.4602 11.0521 47.9562 11.2889 48.3341 11.6668C48.712 12.0447 48.9489 12.5408 49.0051 13.0722L49.2194 15.0244C49.2874 15.639 49.5024 16.2282 49.8463 16.742C50.1902 17.2559 50.6528 17.6794 51.1951 17.9766L52.9124 18.9193C53.3794 19.1781 53.7449 19.5875 53.9494 20.0806C54.1539 20.5738 54.1853 21.1217 54.0384 21.635L53.4896 23.516C53.3168 24.1093 53.2894 24.7354 53.4095 25.3414C53.5297 25.9475 53.7939 26.5158 54.1798 26.9983L55.4087 28.5323C55.7447 28.9477 55.9281 29.4659 55.9281 30.0002C55.9281 30.5346 55.7447 31.0527 55.4087 31.4682L54.179 33.0022Z" fill="#615A9F"/>
<path d="M43.0918 20.8641C43.0916 20.6652 43.0126 20.4744 42.872 20.3336L39.6665 17.1286C39.5969 17.0589 39.5143 17.0036 39.4233 16.9659C39.3323 16.9282 39.2348 16.9088 39.1363 16.9088C39.0378 16.9088 38.9403 16.9282 38.8493 16.9659C38.7583 17.0036 38.6757 17.0589 38.6061 17.1286L17.129 38.6062C17.0594 38.6758 17.0041 38.7585 16.9663 38.8494C16.9286 38.9404 16.9092 39.038 16.9092 39.1365C16.9092 39.2349 16.9286 39.3325 16.9663 39.4235C17.0041 39.5144 17.0594 39.5971 17.129 39.6667L20.3345 42.8717C20.4041 42.9414 20.4867 42.9967 20.5777 43.0344C20.6687 43.0721 20.7662 43.0916 20.8647 43.0916C20.9632 43.0916 21.0607 43.0721 21.1517 43.0344C21.2427 42.9967 21.3254 42.9414 21.395 42.8717L42.872 21.3941C43.0126 21.2536 43.0917 21.0629 43.0918 20.8641ZM20.8649 41.2812L18.7195 39.1362L39.1361 18.7191L41.2815 20.8641L20.8649 41.2812Z" fill="#615A9F"/>
<path d="M20.9167 25.7613C21.8742 25.7613 22.8102 25.4774 23.6064 24.9455C24.4025 24.4136 25.0231 23.6576 25.3897 22.773C25.7562 21.8885 25.8523 20.9151 25.6657 19.976C25.4791 19.0368 25.0183 18.1741 24.3414 17.4968C23.6646 16.8196 22.8022 16.3582 21.8631 16.171C20.9241 15.9839 19.9507 16.0793 19.0659 16.4453C18.1811 16.8113 17.4248 17.4315 16.8924 18.2273C16.36 19.0231 16.0755 19.959 16.0749 20.9165C16.0759 22.2006 16.5863 23.4318 17.494 24.3401C18.4017 25.2484 19.6326 25.7595 20.9167 25.7613ZM20.9167 17.5743C21.5777 17.5743 22.2239 17.7703 22.7735 18.1376C23.3231 18.5048 23.7515 19.0268 24.0044 19.6375C24.2574 20.2482 24.3236 20.9202 24.1946 21.5685C24.0657 22.2168 23.7474 22.8123 23.28 23.2797C22.8126 23.7471 22.217 24.0654 21.5687 24.1944C20.9204 24.3234 20.2484 24.2572 19.6377 24.0042C19.0271 23.7512 18.5051 23.3229 18.1378 22.7733C17.7706 22.2236 17.5746 21.5775 17.5746 20.9165C17.5761 20.0305 17.9287 19.1813 18.5551 18.5548C19.1816 17.9284 20.0308 17.5758 20.9167 17.5743Z" fill="#615A9F"/>
<path d="M39.0841 34.2392C38.1266 34.2392 37.1907 34.5231 36.3945 35.055C35.5983 35.5869 34.9777 36.3429 34.6112 37.2274C34.2446 38.112 34.1486 39.0854 34.3352 40.0245C34.5217 40.9637 34.9826 41.8264 35.6594 42.5037C36.3362 43.1809 37.1987 43.6423 38.1377 43.8295C39.0767 44.0166 40.0502 43.9212 40.9349 43.5552C41.8197 43.1891 42.5761 42.569 43.1085 41.7732C43.6409 40.9773 43.9253 40.0415 43.9259 39.084C43.9249 37.7999 43.4146 36.5687 42.5069 35.6604C41.5991 34.7521 40.3682 34.241 39.0841 34.2392ZM39.0841 42.4262C38.4231 42.4262 37.777 42.2302 37.2273 41.8629C36.6777 41.4957 36.2494 40.9737 35.9964 40.363C35.7435 39.7523 35.6773 39.0803 35.8062 38.432C35.9352 37.7837 36.2535 37.1882 36.7209 36.7208C37.1883 36.2534 37.7838 35.935 38.4321 35.8061C39.0804 35.6771 39.7524 35.7433 40.3631 35.9963C40.9738 36.2492 41.4958 36.6776 41.863 37.2272C42.2302 37.7768 42.4263 38.423 42.4263 39.084C42.4248 39.97 42.0722 40.8192 41.4457 41.4457C40.8193 42.0721 39.9701 42.4247 39.0841 42.4262Z" fill="#615A9F"/>
<path d="M56.5785 32.4053C57.129 31.7246 57.4294 30.8757 57.4294 30.0002C57.4294 29.1248 57.129 28.2758 56.5785 27.5952L55.3496 26.0612C55.114 25.7668 54.9528 25.4201 54.8795 25.0502C54.8062 24.6804 54.8229 24.2984 54.9284 23.9364L55.4768 22.0549C55.7177 21.2136 55.6664 20.3155 55.3313 19.5071C54.9963 18.6987 54.3972 18.0277 53.6318 17.6034L51.9149 16.6608C51.5842 16.4796 51.3019 16.2216 51.092 15.9083C50.882 15.5951 50.7506 15.2359 50.7087 14.8611L50.4945 12.9094C50.4028 12.0383 50.0149 11.2252 49.3956 10.6058C48.7762 9.98647 47.963 9.59853 47.092 9.50686L45.1402 9.29262C44.7655 9.25093 44.4063 9.11959 44.0931 8.90971C43.7798 8.69984 43.5217 8.4176 43.3406 8.08687L42.398 6.36952C41.9803 5.59787 41.3099 4.99335 40.4993 4.65741C39.6887 4.32146 38.7872 4.27453 37.9461 4.52448L36.0651 5.07251C35.7029 5.17779 35.3207 5.19444 34.9508 5.12106C34.5809 5.04768 34.234 4.88642 33.9394 4.65088L32.4055 3.422C31.7247 2.87164 30.8758 2.57141 30.0004 2.57141C29.125 2.57141 28.2761 2.87164 27.5954 3.422L26.0614 4.65088C25.7669 4.88612 25.4201 5.04716 25.0503 5.12046C24.6806 5.19375 24.2986 5.17716 23.9366 5.07208L22.0551 4.52363C21.2139 4.28253 20.3157 4.33371 19.5072 4.6688C18.6988 5.00389 18.0278 5.60311 17.6037 6.36866L16.661 8.08558C16.4799 8.41632 16.2218 8.69859 15.9086 8.90853C15.5954 9.11848 15.2362 9.24992 14.8614 9.29176L12.9097 9.506C12.0387 9.59767 11.2255 9.98561 10.6061 10.605C9.98678 11.2243 9.59884 12.0375 9.50717 12.9086L9.29294 14.8603C9.25125 15.235 9.11991 15.5942 8.91004 15.9075C8.70016 16.2207 8.41792 16.4788 8.0872 16.6599L6.36986 17.6026C5.59838 18.0205 4.99402 18.6909 4.6581 19.5014C4.32218 20.312 4.27513 21.2134 4.52483 22.0545L5.07371 23.9351C5.17896 24.2973 5.19559 24.6794 5.12221 25.0494C5.04883 25.4193 4.8876 25.7662 4.65209 26.0608L3.42322 27.5947C2.87264 28.2754 2.57227 29.1243 2.57227 29.9998C2.57227 30.8753 2.87264 31.7242 3.42322 32.4049L4.65209 33.9388C4.88764 34.2332 5.04888 34.58 5.12219 34.9498C5.1955 35.3196 5.17873 35.7017 5.07329 36.0637L4.52483 37.9451C4.2838 38.7864 4.33491 39.6845 4.66982 40.493C5.00473 41.3015 5.60368 41.9726 6.369 42.397L8.08591 43.3397C8.41665 43.5208 8.69892 43.7789 8.90886 44.0921C9.1188 44.4054 9.25024 44.7645 9.29208 45.1393L9.50632 47.091C9.59799 47.9621 9.98593 48.7753 10.6053 49.3946C11.2246 50.014 12.0378 50.4019 12.9089 50.4936L14.8606 50.7078C15.2353 50.7495 15.5945 50.8809 15.9078 51.0907C16.221 51.3006 16.4791 51.5829 16.6602 51.9136L17.6028 53.6309C18.0205 54.4026 18.6909 55.0071 19.5015 55.343C20.3121 55.679 21.2136 55.7259 22.0547 55.476L23.9353 54.9271C24.2975 54.8222 24.6796 54.8057 25.0495 54.8791C25.4194 54.9524 25.7662 55.1135 26.061 55.3487L27.5949 56.5776C28.2756 57.1282 29.1245 57.4286 30 57.4286C30.8754 57.4286 31.7244 57.1282 32.405 56.5776L33.939 55.3487C34.2334 55.1133 34.5802 54.9521 34.95 54.8788C35.3198 54.8055 35.7018 54.8222 36.0638 54.9275L37.9452 55.476C38.7863 55.7257 39.6876 55.6787 40.4981 55.3428C41.3086 55.0068 41.9789 54.4024 42.3967 53.6309L43.3394 51.914C43.5205 51.5833 43.7786 51.301 44.0918 51.0911C44.405 50.8811 44.7642 50.7497 45.139 50.7078L47.0907 50.4936C47.9617 50.4019 48.7749 50.014 49.3943 49.3946C50.0136 48.7753 50.4015 47.9621 50.4932 47.091L50.7075 45.1393C50.7491 44.7646 50.8805 44.4054 51.0904 44.0921C51.3002 43.7789 51.5825 43.5208 51.9132 43.3397L53.6305 42.397C54.402 41.9791 55.0064 41.3087 55.3423 40.4982C55.6782 39.6876 55.7253 38.7862 55.4756 37.9451L54.9267 36.0645C54.8214 35.7023 54.8048 35.3202 54.8782 34.9502C54.9516 34.5803 55.1128 34.2334 55.3483 33.9388L56.5785 32.4053ZM54.179 33.0022C53.793 33.4847 53.5288 34.0531 53.4086 34.6592C53.2884 35.2653 53.3157 35.8915 53.4883 36.4849L54.0376 38.3655C54.1899 38.8787 54.1611 39.4286 53.9561 39.9231C53.751 40.4176 53.3823 40.8267 52.9115 41.0816L51.1938 42.0242C50.6515 42.3215 50.1888 42.745 49.845 43.259C49.5011 43.773 49.2862 44.3622 49.2185 44.9769L49.0043 46.9286C48.948 47.4601 48.7112 47.9562 48.3333 48.3341C47.9554 48.712 47.4593 48.9488 46.9279 49.0051L44.9757 49.2193C44.3611 49.2873 43.772 49.5024 43.2581 49.8463C42.7442 50.1902 42.3207 50.6528 42.0235 51.195L41.0808 52.9124C40.8257 53.3828 40.4168 53.7514 39.9224 53.9564C39.4281 54.1614 38.8783 54.1903 38.3652 54.0384L36.4841 53.4895C35.8909 53.3167 35.2648 53.2891 34.6587 53.4093C34.0526 53.5294 33.4843 53.7937 33.0019 54.1798L31.4679 55.4087C31.0527 55.7451 30.5344 55.9287 30 55.9287C29.4655 55.9287 28.9473 55.7451 28.532 55.4087L26.9981 54.1798C26.5155 53.7938 25.9472 53.5295 25.341 53.4093C24.7349 53.2891 24.1087 53.3165 23.5154 53.4891L21.6352 54.038C21.122 54.1897 20.5723 54.1606 20.0779 53.9557C19.5835 53.7507 19.1745 53.3823 18.9191 52.9119L17.9765 51.1942C17.6793 50.6519 17.2557 50.1892 16.7417 49.8454C16.2278 49.5015 15.6385 49.2866 15.0238 49.2189L13.0721 49.0046C12.5407 48.9484 12.0446 48.7115 11.6667 48.3336C11.2888 47.9557 11.052 47.4597 10.9957 46.9282L10.7815 44.9761C10.7135 44.3615 10.4984 43.7723 10.1545 43.2584C9.81061 42.7445 9.34797 42.3211 8.80576 42.0238L7.08842 41.0812C6.62148 40.8224 6.256 40.413 6.05158 39.9198C5.84717 39.4266 5.81587 38.8787 5.96281 38.3655L6.51169 36.4844C6.68441 35.8912 6.71185 35.2651 6.59171 34.659C6.47157 34.0529 6.20737 33.4847 5.82141 33.0022L4.59168 31.4682C4.25566 31.0527 4.07234 30.5346 4.07234 30.0002C4.07234 29.4659 4.25566 28.9477 4.59168 28.5323L5.82055 26.9983C6.20649 26.5157 6.47071 25.9474 6.59093 25.3412C6.71114 24.7351 6.68381 24.109 6.51126 23.5156L5.96281 21.635C5.81054 21.1218 5.83933 20.5718 6.04434 20.0773C6.24935 19.5828 6.61813 19.1738 7.08885 18.9189L8.80661 17.9762C9.3489 17.679 9.81156 17.2555 10.1554 16.7415C10.4992 16.2275 10.7141 15.6382 10.7819 15.0235L10.9961 13.0718C11.0528 12.5401 11.2902 12.044 11.6687 11.6663C12.0471 11.2886 12.5437 11.0522 13.0755 10.9967L15.0277 10.7824C15.6423 10.7144 16.2314 10.4994 16.7453 10.1555C17.2592 9.81158 17.6827 9.34894 17.9799 8.80672L18.9225 7.08937C19.1814 6.6232 19.5903 6.25821 20.0827 6.05364C20.5751 5.84908 21.1222 5.81695 21.6352 5.96246L23.5163 6.51135C24.1095 6.68425 24.7356 6.71179 25.3417 6.59164C25.9478 6.47149 26.5161 6.20719 26.9985 5.82107L28.5324 4.59133C28.9479 4.25523 29.4661 4.07186 30.0004 4.07186C30.5348 4.07186 31.0529 4.25523 31.4684 4.59133L33.0023 5.82021C33.485 6.20593 34.0534 6.47001 34.6594 6.59021C35.2655 6.71042 35.8916 6.68322 36.485 6.51092L38.3656 5.96246C38.8788 5.81069 39.4286 5.83971 39.923 6.04468C40.4174 6.24964 40.8264 6.61813 41.0817 7.08851L42.0244 8.80629C42.3216 9.34858 42.7451 9.81124 43.2591 10.1551C43.773 10.4989 44.3623 10.7138 44.977 10.7816L46.9287 10.9958C47.4602 11.0521 47.9562 11.2889 48.3341 11.6668C48.712 12.0447 48.9489 12.5408 49.0051 13.0722L49.2194 15.0244C49.2874 15.639 49.5024 16.2282 49.8463 16.742C50.1902 17.2559 50.6528 17.6794 51.1951 17.9766L52.9124 18.9193C53.3794 19.1781 53.7449 19.5875 53.9494 20.0806C54.1539 20.5738 54.1853 21.1217 54.0384 21.635L53.4896 23.516C53.3168 24.1093 53.2894 24.7354 53.4095 25.3414C53.5297 25.9475 53.7939 26.5158 54.1798 26.9983L55.4087 28.5323C55.7447 28.9477 55.9281 29.4659 55.9281 30.0002C55.9281 30.5346 55.7447 31.0527 55.4087 31.4682L54.179 33.0022Z" stroke="#615A9F" stroke-width="0.1"/>
<path d="M43.0918 20.8641C43.0916 20.6652 43.0126 20.4744 42.872 20.3336L39.6665 17.1286C39.5969 17.0589 39.5143 17.0036 39.4233 16.9659C39.3323 16.9282 39.2348 16.9088 39.1363 16.9088C39.0378 16.9088 38.9403 16.9282 38.8493 16.9659C38.7583 17.0036 38.6757 17.0589 38.6061 17.1286L17.129 38.6062C17.0594 38.6758 17.0041 38.7585 16.9663 38.8494C16.9286 38.9404 16.9092 39.038 16.9092 39.1365C16.9092 39.2349 16.9286 39.3325 16.9663 39.4235C17.0041 39.5144 17.0594 39.5971 17.129 39.6667L20.3345 42.8717C20.4041 42.9414 20.4867 42.9967 20.5777 43.0344C20.6687 43.0721 20.7662 43.0916 20.8647 43.0916C20.9632 43.0916 21.0607 43.0721 21.1517 43.0344C21.2427 42.9967 21.3254 42.9414 21.395 42.8717L42.872 21.3941C43.0126 21.2536 43.0917 21.0629 43.0918 20.8641ZM20.8649 41.2812L18.7195 39.1362L39.1361 18.7191L41.2815 20.8641L20.8649 41.2812Z" stroke="#615A9F" stroke-width="0.1"/>
<path d="M20.9167 25.7613C21.8742 25.7613 22.8102 25.4774 23.6064 24.9455C24.4025 24.4136 25.0231 23.6576 25.3897 22.773C25.7562 21.8885 25.8523 20.9151 25.6657 19.976C25.4791 19.0368 25.0183 18.1741 24.3414 17.4968C23.6646 16.8196 22.8022 16.3582 21.8631 16.171C20.9241 15.9839 19.9507 16.0793 19.0659 16.4453C18.1811 16.8113 17.4248 17.4315 16.8924 18.2273C16.36 19.0231 16.0755 19.959 16.0749 20.9165C16.0759 22.2006 16.5863 23.4318 17.494 24.3401C18.4017 25.2484 19.6326 25.7595 20.9167 25.7613ZM20.9167 17.5743C21.5777 17.5743 22.2239 17.7703 22.7735 18.1376C23.3231 18.5048 23.7515 19.0268 24.0044 19.6375C24.2574 20.2482 24.3236 20.9202 24.1946 21.5685C24.0657 22.2168 23.7474 22.8123 23.28 23.2797C22.8126 23.7471 22.217 24.0654 21.5687 24.1944C20.9204 24.3234 20.2484 24.2572 19.6377 24.0042C19.0271 23.7512 18.5051 23.3229 18.1378 22.7733C17.7706 22.2236 17.5746 21.5775 17.5746 20.9165C17.5761 20.0305 17.9287 19.1813 18.5551 18.5548C19.1816 17.9284 20.0308 17.5758 20.9167 17.5743Z" stroke="#615A9F" stroke-width="0.1"/>
<path d="M39.0841 34.2392C38.1266 34.2392 37.1907 34.5231 36.3945 35.055C35.5983 35.5869 34.9777 36.3429 34.6112 37.2274C34.2446 38.112 34.1486 39.0854 34.3352 40.0245C34.5217 40.9637 34.9826 41.8264 35.6594 42.5037C36.3362 43.1809 37.1987 43.6423 38.1377 43.8295C39.0767 44.0166 40.0502 43.9212 40.9349 43.5552C41.8197 43.1891 42.5761 42.569 43.1085 41.7732C43.6409 40.9773 43.9253 40.0415 43.9259 39.084C43.9249 37.7999 43.4146 36.5687 42.5069 35.6604C41.5991 34.7521 40.3682 34.241 39.0841 34.2392ZM39.0841 42.4262C38.4231 42.4262 37.777 42.2302 37.2273 41.8629C36.6777 41.4957 36.2494 40.9737 35.9964 40.363C35.7435 39.7523 35.6773 39.0803 35.8062 38.432C35.9352 37.7837 36.2535 37.1882 36.7209 36.7208C37.1883 36.2534 37.7838 35.935 38.4321 35.8061C39.0804 35.6771 39.7524 35.7433 40.3631 35.9963C40.9738 36.2492 41.4958 36.6776 41.863 37.2272C42.2302 37.7768 42.4263 38.423 42.4263 39.084C42.4248 39.97 42.0722 40.8192 41.4457 41.4457C40.8193 42.0721 39.9701 42.4247 39.0841 42.4262Z" stroke="#615A9F" stroke-width="0.1"/>
</svg>
