<svg width="60" height="60" viewBox="0 0 60 60" fill="none" xmlns="http://www.w3.org/2000/svg">
<path d="M40.2867 22.2872C40.2868 20.2526 39.6836 18.2638 38.5533 16.5721C37.4231 14.8804 35.8165 13.5618 33.9369 12.7832C32.0572 12.0045 29.9889 11.8007 27.9935 12.1976C25.998 12.5945 24.165 13.5741 22.7264 15.0127C21.2877 16.4513 20.3079 18.2843 19.911 20.2797C19.514 22.2751 19.7177 24.3435 20.4963 26.2232C21.2748 28.1028 22.5933 29.7094 24.285 30.8398C25.9766 31.9701 27.9655 32.5734 30 32.5734C32.7272 32.5703 35.3418 31.4856 37.2702 29.5573C39.1987 27.6289 40.2835 25.0144 40.2867 22.2872ZM21.3539 22.2872C21.3538 20.5771 21.8608 18.9054 22.8108 17.4835C23.7608 16.0616 25.1111 14.9534 26.691 14.2989C28.2708 13.6444 30.0093 13.4731 31.6865 13.8067C33.3637 14.1403 34.9043 14.9637 36.1135 16.1728C37.3228 17.382 38.1463 18.9226 38.4799 20.5998C38.8136 22.277 38.6424 24.0154 37.988 25.5953C37.3336 27.1752 36.2254 28.5256 34.8036 29.4756C33.3817 30.4257 31.7101 30.9328 30 30.9328C27.7078 30.9302 25.5102 30.0185 23.8893 28.3977C22.2685 26.7769 21.3566 24.5794 21.3539 22.2872Z" fill="#615A9F"/>
<path d="M55.7156 56.3917L51.0253 44.472C50.9777 44.2988 50.8745 44.1461 50.7317 44.0372C50.5888 43.9283 50.4142 43.8693 50.2345 43.8692H40.8347C45.3656 38.4495 49.6617 31.0002 49.6617 22.2331C49.6617 17.0185 47.5902 12.0175 43.9029 8.3302C40.2156 4.64291 35.2146 2.57141 30 2.57141C24.7854 2.57141 19.7843 4.64291 16.0971 8.3302C12.4098 12.0175 10.3383 17.0185 10.3383 22.2331C10.3383 30.9988 14.6344 38.4519 19.1653 43.8692H9.76546C9.58583 43.8693 9.41118 43.9283 9.26832 44.0372C9.12546 44.1461 9.0223 44.2988 8.97468 44.472L4.28436 56.3917C4.25282 56.5133 4.24933 56.6406 4.27417 56.7638C4.299 56.887 4.3515 57.003 4.4277 57.1029C4.50391 57.2029 4.60183 57.2842 4.71407 57.3408C4.82631 57.3974 4.94994 57.4277 5.07561 57.4295H54.9248C55.0505 57.4276 55.174 57.3972 55.2862 57.3406C55.3984 57.284 55.4963 57.2027 55.5724 57.1028C55.6486 57.0028 55.701 56.8869 55.7258 56.7637C55.7506 56.6405 55.7471 56.5133 55.7156 56.3917ZM30 4.2125C34.7778 4.21784 39.3585 6.1182 42.7369 9.49665C46.1154 12.8751 48.0157 17.4557 48.0211 22.2336C48.0211 37.9634 32.8458 49.6766 30 51.7339C27.1542 49.6766 11.9789 37.9634 11.9789 22.2336C11.9842 17.4557 13.8846 12.8751 17.263 9.49665C20.6415 6.1182 25.2221 4.21784 30 4.2125ZM6.15139 55.7884L10.3908 45.5094H20.5973C23.2747 48.4719 26.276 51.1248 29.5448 53.4181C29.6796 53.5082 29.8381 53.5563 30.0002 53.5563C30.1624 53.5563 30.3208 53.5082 30.4556 53.4181C33.7242 51.1252 36.7253 48.4728 39.4026 45.5108H49.6087L53.8481 55.7898L6.15139 55.7884Z" fill="#615A9F"/>
</svg>
