<svg width="24" height="24" viewBox="0 0 24 24" fill="none" xmlns="http://www.w3.org/2000/svg">
<path d="M12.9339 0.265625C15.7429 0.265514 18.3803 1.35475 20.3665 3.33333C22.3531 5.31192 23.4438 7.93603 23.4437 10.7344C23.4437 11.0599 23.1849 11.3177 22.858 11.3177C22.531 11.3177 22.2724 11.06 22.2724 10.7344C22.2726 8.25211 21.3 5.91407 19.5378 4.15885C17.7757 2.40363 15.4257 1.43477 12.9339 1.4349C12.607 1.4349 12.3482 1.17718 12.3482 0.851562C12.3482 0.525903 12.6068 0.265625 12.9339 0.265625Z" fill="url(#paint0_linear_1657_5300)"/>
<path d="M12.9339 5.20833C15.995 5.20877 18.4813 7.68538 18.4816 10.7344C18.4816 11.0601 18.2228 11.3177 17.896 11.3177C17.5689 11.3178 17.3103 11.06 17.3103 10.7344C17.3102 8.33388 15.3439 6.37797 12.9339 6.3776C12.6069 6.37753 12.3482 6.11733 12.3482 5.79167C12.3483 5.46601 12.6069 5.20833 12.9339 5.20833Z" fill="url(#paint1_linear_1657_5300)"/>
<path d="M5.16393 4.02083C4.65663 3.83249 4.13279 3.82723 3.577 4.01302C2.26637 4.45266 1.34986 5.21999 0.884188 6.23177C0.432739 7.21285 0.44131 8.35112 0.933861 9.55729C2.24919 12.772 4.08791 15.5797 6.39791 17.9089L6.4136 17.9245C8.75005 20.2212 11.5671 22.0481 14.7901 23.3568C15.4136 23.6093 16.019 23.7344 16.594 23.7344C17.1354 23.7344 17.6485 23.6243 18.126 23.4062C19.1418 22.9425 19.9144 22.0305 20.3561 20.724C20.5422 20.1715 20.5357 19.6509 20.3482 19.1484C20.2594 18.908 19.9663 18.5104 19.5535 18.0964C19.1406 17.6823 18.6121 17.2379 18.0554 16.8307C17.4988 16.4235 16.9146 16.0535 16.3927 15.7839C15.8718 15.5148 15.4024 15.3532 15.1404 15.3385H15.1378C13.9848 15.2807 13.4178 16.1068 13.0987 16.5717L13.0907 16.5833C12.9061 16.8521 12.9751 17.2094 13.245 17.3932C13.5149 17.5772 13.8733 17.5111 14.058 17.2422C14.2528 16.9585 14.4008 16.78 14.5626 16.6589C14.7245 16.5377 14.9179 16.4954 15.0698 16.5026L15.0777 16.5052H15.0881C15.3788 16.5392 15.6863 16.704 16.079 16.9323C16.4716 17.1606 16.9203 17.459 17.3548 17.776C17.7892 18.0931 18.2091 18.429 18.5443 18.7318C18.8795 19.0346 19.125 19.2715 19.2424 19.5391L19.2476 19.5469L19.2502 19.5521C19.344 19.8031 19.3369 20.0783 19.245 20.3516C18.923 21.3036 18.3723 22.0082 17.6371 22.3438C16.9375 22.6624 16.0967 22.6265 15.2319 22.276C12.1543 21.0266 9.45917 19.2795 7.22929 17.0859L7.22144 17.0781C5.02262 14.8586 3.27428 12.1793 2.02144 9.11719C1.66912 8.25431 1.62991 7.416 1.95085 6.71875C2.28786 5.98651 2.99588 5.44022 3.95085 5.11979C4.22594 5.02792 4.50039 5.02175 4.75085 5.11458L4.76654 5.11979C5.03536 5.2368 5.2727 5.48383 5.577 5.81771C5.88129 6.15158 6.21812 6.56774 6.53648 7C6.85483 7.43226 7.15444 7.87833 7.38353 8.26823C7.61262 8.65812 7.77816 8.96139 7.81229 9.25L7.81491 9.26042V9.26823C7.82287 9.42296 7.78257 9.61813 7.66066 9.78125C7.53875 9.94437 7.3596 10.0902 7.07504 10.2839C6.80514 10.4675 6.73636 10.8275 6.92079 11.0964C7.10514 11.3652 7.4664 11.4311 7.73647 11.2474L7.75069 11.2377C8.21851 10.9197 9.04308 10.3591 8.98353 9.20573C8.96937 8.94573 8.80704 8.48045 8.53648 7.96094C8.26591 7.44142 7.89406 6.85894 7.48549 6.30469C7.07693 5.75043 6.63271 5.22348 6.21752 4.8125C5.80233 4.40152 5.40421 4.10884 5.16393 4.02083Z" fill="url(#paint2_linear_1657_5300)"/>
<defs>
<linearGradient id="paint0_linear_1657_5300" x1="23.4437" y1="11.2206" x2="0.554687" y2="11.2205" gradientUnits="userSpaceOnUse">
<stop stop-color="#C69848"/>
<stop offset="0.25" stop-color="#F9D597"/>
<stop offset="0.505208" stop-color="#C69848"/>
<stop offset="0.739583" stop-color="#F9D597"/>
<stop offset="1" stop-color="#C69848"/>
</linearGradient>
<linearGradient id="paint1_linear_1657_5300" x1="23.4437" y1="11.2206" x2="0.554687" y2="11.2205" gradientUnits="userSpaceOnUse">
<stop stop-color="#C69848"/>
<stop offset="0.25" stop-color="#F9D597"/>
<stop offset="0.505208" stop-color="#C69848"/>
<stop offset="0.739583" stop-color="#F9D597"/>
<stop offset="1" stop-color="#C69848"/>
</linearGradient>
<linearGradient id="paint2_linear_1657_5300" x1="23.4437" y1="11.2206" x2="0.554687" y2="11.2205" gradientUnits="userSpaceOnUse">
<stop stop-color="#C69848"/>
<stop offset="0.25" stop-color="#F9D597"/>
<stop offset="0.505208" stop-color="#C69848"/>
<stop offset="0.739583" stop-color="#F9D597"/>
<stop offset="1" stop-color="#C69848"/>
</linearGradient>
</defs>
</svg>
