<svg width="28" height="26" viewBox="0 0 28 26" fill="none" xmlns="http://www.w3.org/2000/svg">
<path fill-rule="evenodd" clip-rule="evenodd" d="M24.6783 1.13455H3.32212C2.64065 1.13455 2.08821 1.68483 2.08821 2.36364V23.6364C2.08821 24.3152 2.64065 24.8655 3.32212 24.8655H24.6783C25.3597 24.8655 25.9122 24.3152 25.9122 23.6364V2.36364C25.9122 1.68483 25.3597 1.13455 24.6783 1.13455ZM3.32212 0C2.0116 0 0.949219 1.05824 0.949219 2.36364V23.6364C0.949219 24.9418 2.0116 26 3.32212 26H24.6783C25.9888 26 27.0512 24.9418 27.0512 23.6364V2.36364C27.0512 1.05824 25.9888 0 24.6783 0H3.32212Z" fill="url(#paint0_linear_2300_5033)"/>
<path fill-rule="evenodd" clip-rule="evenodd" d="M11.5798 6.14545L11.5798 20.7055C11.5798 21.0188 11.3249 21.2727 11.0103 21.2727C10.6958 21.2727 10.4408 21.0188 10.4408 20.7055L10.4408 6.14545H11.5798Z" fill="url(#paint1_linear_2300_5033)"/>
<path fill-rule="evenodd" clip-rule="evenodd" d="M11.2209 7.17731C10.9468 7.18148 10.6852 7.18547 10.4408 7.18547L10.4408 6.05092C10.6524 6.05092 10.8894 6.04701 11.146 6.04277C12.399 6.02207 14.117 5.9937 15.5967 6.3764C16.5019 6.6105 17.379 7.01069 18.0315 7.70687C18.6957 8.41558 19.0782 9.37884 19.0782 10.6364C19.0782 11.8727 18.7527 12.8173 18.1597 13.5099C17.5721 14.1962 16.7751 14.5726 15.9482 14.7793C15.124 14.9853 14.231 15.0327 13.4033 15.0327C12.9873 15.0327 12.5796 15.0206 12.2004 15.0088L12.1419 15.007C11.7819 14.9957 11.4519 14.9854 11.1527 14.9854V13.8509C11.4705 13.8509 11.8172 13.8617 12.171 13.8728C12.1926 13.8735 12.2143 13.8741 12.236 13.8748C12.616 13.8866 13.0073 13.8982 13.4033 13.8982C14.1995 13.8982 14.9824 13.851 15.6709 13.6789C16.3567 13.5074 16.9093 13.2219 17.2931 12.7737C17.6715 12.3318 17.9392 11.6691 17.9392 10.6364C17.9392 9.6248 17.6395 8.95124 17.1989 8.4811C16.7465 7.99841 16.096 7.6777 15.3105 7.47453C13.9978 7.13504 12.4784 7.15817 11.2209 7.17731Z" fill="url(#paint2_linear_2300_5033)"/>
<defs>
<linearGradient id="paint0_linear_2300_5033" x1="27.0512" y1="12.1365" x2="0.949218" y2="12.1365" gradientUnits="userSpaceOnUse">
<stop stop-color="#C69848"/>
<stop offset="0.25" stop-color="#F9D597"/>
<stop offset="0.505208" stop-color="#C69848"/>
<stop offset="0.739583" stop-color="#F9D597"/>
<stop offset="1" stop-color="#C69848"/>
</linearGradient>
<linearGradient id="paint1_linear_2300_5033" x1="27.0512" y1="12.1365" x2="0.949218" y2="12.1365" gradientUnits="userSpaceOnUse">
<stop stop-color="#C69848"/>
<stop offset="0.25" stop-color="#F9D597"/>
<stop offset="0.505208" stop-color="#C69848"/>
<stop offset="0.739583" stop-color="#F9D597"/>
<stop offset="1" stop-color="#C69848"/>
</linearGradient>
<linearGradient id="paint2_linear_2300_5033" x1="27.0512" y1="12.1365" x2="0.949218" y2="12.1365" gradientUnits="userSpaceOnUse">
<stop stop-color="#C69848"/>
<stop offset="0.25" stop-color="#F9D597"/>
<stop offset="0.505208" stop-color="#C69848"/>
<stop offset="0.739583" stop-color="#F9D597"/>
<stop offset="1" stop-color="#C69848"/>
</linearGradient>
</defs>
</svg>
