<svg width="22" height="22" viewBox="0 0 22 22" fill="none" xmlns="http://www.w3.org/2000/svg">
<path d="M7.48189 15.8145C7.20084 16.1013 7.20084 16.5648 7.48189 16.8516C7.76293 17.1384 8.21719 17.1384 8.49823 16.8516L15.4948 9.7118C16.6621 8.51988 16.6621 6.58053 15.4948 5.3886C14.9291 4.81061 14.1765 4.49301 13.3766 4.49301C12.5766 4.49301 11.824 4.81134 11.2583 5.3886L3.0068 13.8091C2.11839 14.7157 1.62891 15.9208 1.62891 17.203C1.62891 18.4851 2.11839 19.6902 3.0068 20.5961C3.92323 21.532 5.1279 22 6.33257 22C7.53723 22 8.7419 21.532 9.65833 20.5961L18.8996 11.1656C20.1108 9.92965 20.7771 8.28736 20.7771 6.53945C20.7771 4.79154 20.11 3.14852 18.8996 1.91331C16.4004 -0.637771 12.3322 -0.637771 9.83372 1.91331L1.84813 10.0624C1.56709 10.3492 1.56709 10.8128 1.84813 11.0996C2.12917 11.3864 2.58344 11.3864 2.86448 11.0996L10.8501 2.95194C12.7886 0.973711 15.9447 0.973711 17.8833 2.95194C18.8227 3.91061 19.3395 5.18469 19.3395 6.54092C19.3395 7.89714 18.822 9.17049 17.8833 10.1299L8.64199 19.5597C7.36904 20.8587 5.29681 20.8587 4.02314 19.5597C3.40644 18.9303 3.06645 18.0934 3.06645 17.2037C3.06645 16.3132 3.40644 15.4763 4.02314 14.847L12.2747 6.42649C12.8828 5.80596 13.8711 5.80596 14.4784 6.42649C15.0858 7.04629 15.0858 8.05484 14.4784 8.67465L7.48189 15.8145Z" fill="url(#paint0_linear_2266_4095)"/>
<defs>
<linearGradient id="paint0_linear_2266_4095" x1="20.7771" y1="10.2693" x2="1.62891" y2="10.2693" gradientUnits="userSpaceOnUse">
<stop stop-color="#C69848"/>
<stop offset="0.25" stop-color="#F9D597"/>
<stop offset="0.505208" stop-color="#C69848"/>
<stop offset="0.739583" stop-color="#F9D597"/>
<stop offset="1" stop-color="#C69848"/>
</linearGradient>
</defs>
</svg>
