<svg width="61" height="61" viewBox="0 0 61 61" fill="none" xmlns="http://www.w3.org/2000/svg">
<path d="M30.4139 1.19109C29.3898 1.20713 28.3916 1.51589 27.5373 2.08092L24.6863 3.9632C23.979 4.42826 23.1419 4.65561 22.2965 4.61219L18.8489 4.42162C17.8041 4.36404 16.7652 4.61256 15.8595 5.1367C14.9539 5.66084 14.2209 6.43784 13.7503 7.37244L12.2068 10.4324C11.8281 11.1876 11.216 11.8006 10.4613 12.1804L7.40557 13.7265C6.47197 14.1993 5.69624 14.9338 5.1731 15.8402C4.64997 16.7466 4.40205 17.7857 4.45963 18.8306L4.64951 22.2832C4.69414 23.1305 4.46737 23.9701 4.00215 24.6797L2.12336 27.5349C1.54346 28.415 1.23437 29.4459 1.23438 30.4999C1.23438 31.5539 1.54346 32.5848 2.12336 33.4649L4.00215 36.3197C4.46717 37.0294 4.69377 37.8689 4.64905 38.7162L4.45963 42.1687C4.40212 43.2138 4.65011 44.253 5.17333 45.1594C5.69654 46.0659 6.47235 46.8004 7.40604 47.2734L10.4611 48.819C11.2158 49.1987 11.828 49.8116 12.2068 50.5667L13.7503 53.6269C14.2212 54.5613 14.9544 55.3382 15.86 55.8623C16.7657 56.3864 17.8045 56.635 18.8494 56.5778L22.2961 56.3869C23.1418 56.3433 23.9795 56.5708 24.687 57.0362L27.5373 58.9184C28.4158 59.4999 29.446 59.8099 30.4994 59.8099C31.5529 59.8099 32.5831 59.4999 33.4615 58.9184L36.3125 57.0362C37.0199 56.5714 37.857 56.344 38.7023 56.3872L42.1502 56.578C43.1949 56.6351 44.2335 56.3864 45.139 55.8623C46.0445 55.3382 46.7775 54.5615 47.2483 53.6272L48.7918 50.567C49.1706 49.8119 49.7827 49.199 50.5373 48.8192L53.593 47.2734C54.5266 46.8004 55.3023 46.066 55.8254 45.1596C56.3485 44.2532 56.5965 43.2141 56.539 42.1692L56.3491 38.7164C56.3043 37.8691 56.5308 37.0295 56.9958 36.3197L58.8753 33.4649C59.4552 32.5848 59.7642 31.5539 59.7642 30.4999C59.7642 29.4459 59.4552 28.415 58.8753 27.5349L56.996 24.6797C56.5309 23.97 56.3043 23.1305 56.3491 22.2832L56.539 18.8306C56.5963 17.7855 56.3479 16.7462 55.8243 15.8398C55.3007 14.9335 54.5245 14.1992 53.5905 13.7267L50.5352 12.1809C49.7805 11.801 49.1684 11.188 48.7895 10.4329L47.2455 7.37314C46.7748 6.4387 46.0418 5.66184 45.1362 5.13772C44.2307 4.61361 43.1919 4.36498 42.1472 4.42231L38.7002 4.61243C37.8544 4.65628 37.0167 4.42882 36.3093 3.9632L33.4587 2.08092C32.5566 1.48429 31.4953 1.17412 30.4139 1.19109ZM30.5593 2.62124C31.3111 2.63301 32.0438 2.85966 32.6708 3.27442L35.5211 5.15694C36.4848 5.79103 37.6259 6.10068 38.778 6.04072L42.2256 5.84991C42.9927 5.80785 43.7554 5.99044 44.4203 6.37531C45.0852 6.76019 45.6234 7.33064 45.969 8.01678L47.5124 11.0767C48.0282 12.1048 48.8615 12.9393 49.8887 13.4565L52.9452 15.0026C53.6314 15.3497 54.2017 15.8891 54.5863 16.555C54.971 17.2209 55.1535 17.9844 55.1114 18.7522L54.9215 22.2045C54.8607 23.3575 55.169 24.4999 55.8018 25.4658L57.6811 28.3207C58.1072 28.9676 58.3343 29.7252 58.3342 30.4998C58.3341 31.2743 58.1069 32.0319 57.6806 32.6787L55.8018 35.5334C55.1691 36.4992 54.8607 37.6416 54.9215 38.7946L55.1114 42.2476C55.1537 43.0153 54.9717 43.7787 54.5874 44.4446C54.2032 45.1106 53.6334 45.6502 52.9475 45.9977L49.8918 47.5433C48.8644 48.0605 48.0311 48.8949 47.5152 49.9229L45.9718 52.9838C45.626 53.6698 45.0877 54.2401 44.4228 54.625C43.7579 55.0098 42.9952 55.1924 42.2281 55.1504L38.7793 54.9598C37.6277 54.9003 36.4872 55.2098 35.5237 55.8434L32.6727 57.7256C32.0279 58.1524 31.2717 58.38 30.4984 58.38C29.7251 58.38 28.9689 58.1524 28.3241 57.7256L25.4738 55.8434C24.5913 55.2628 23.5583 54.953 22.502 54.9519C22.4067 54.9519 22.3116 54.9545 22.2169 54.9596L18.7698 55.1502C18.0027 55.1922 17.24 55.0096 16.5752 54.6248C15.9103 54.2399 15.372 53.6696 15.0264 52.9835L13.4834 49.9229C12.9675 48.8948 12.1341 48.0604 11.1066 47.5433L8.05154 45.9977C7.36564 45.6502 6.79575 45.1105 6.41146 44.4446C6.02717 43.7786 5.84509 43.0151 5.88746 42.2474L6.07734 38.7946C6.13812 37.6416 5.82976 36.4992 5.19705 35.5334L3.31756 32.6787C2.89136 32.0319 2.66419 31.2743 2.66419 30.4997C2.66419 29.7251 2.89136 28.9675 3.31756 28.3207L5.19705 25.4655C5.82975 24.4998 6.13811 23.3575 6.07734 22.2045L5.88746 18.7518C5.84507 17.9841 6.02712 17.2207 6.41137 16.5548C6.79563 15.8889 7.36546 15.3493 8.0513 15.0019L11.1068 13.4558C12.1342 12.9387 12.9676 12.1043 13.4834 11.0763L15.0271 8.01608C15.3729 7.3302 15.9111 6.76001 16.5759 6.37528C17.2407 5.99056 18.0033 5.80798 18.7702 5.84991L22.2183 6.04049C23.37 6.10032 24.5106 5.79076 25.474 5.15694L28.3245 3.27442C28.9866 2.83649 29.7656 2.60882 30.5593 2.62124ZM30.4956 9.14233C18.7364 9.14233 9.16941 18.7227 9.16941 30.4985C9.16941 42.2744 18.7364 51.8549 30.4956 51.8549C42.2548 51.8549 51.8218 42.2745 51.8218 30.4985C51.8218 18.7225 42.2549 9.14233 30.4956 9.14233ZM30.4956 10.572C41.4665 10.572 50.3921 19.511 50.3921 30.4985C50.3921 41.486 41.4665 50.4253 30.4956 50.4253C19.5246 50.4253 10.5991 41.4861 10.5991 30.4985C10.5991 19.5109 19.5246 10.572 30.4956 10.572ZM30.4956 13.3779C21.0685 13.3779 13.3989 21.0583 13.3989 30.4985C13.3989 39.9387 21.0685 47.6189 30.4956 47.6189C39.9227 47.6189 47.5923 39.9389 47.5923 30.4985C47.5923 21.0582 39.9231 13.3779 30.4956 13.3779ZM30.4956 14.8076C39.1345 14.8076 46.1626 21.8466 46.1626 30.4985C46.1626 39.1504 39.1344 46.1895 30.4956 46.1895C21.8567 46.1895 14.8286 39.1504 14.8286 30.4985C14.8286 21.8466 21.8567 14.8076 30.4956 14.8076ZM26.3031 23.2824C25.4627 23.3191 24.67 23.6836 24.095 24.2976C23.52 24.9116 23.2083 25.7264 23.2266 26.5675C23.245 27.4085 23.592 28.2089 24.1933 28.7972C24.7946 29.3855 25.6024 29.715 26.4436 29.715C27.297 29.7147 28.1154 29.3757 28.7192 28.7726C29.1777 28.3141 29.487 27.7278 29.6066 27.0904C29.7261 26.4531 29.6504 25.7945 29.3892 25.201C29.128 24.6075 28.6936 24.1067 28.1429 23.7644C27.5922 23.422 26.9509 23.254 26.3031 23.2824ZM26.4702 24.7097C26.7631 24.714 27.0504 24.7902 27.307 24.9315C27.5635 25.0729 27.7814 25.2751 27.9415 25.5205C28.1016 25.7658 28.1989 26.0467 28.225 26.3384C28.251 26.6302 28.205 26.9239 28.0909 27.1937C27.9769 27.4635 27.7983 27.7012 27.5708 27.8857C27.3434 28.0703 27.0741 28.1962 26.7865 28.2523C26.499 28.3084 26.2022 28.293 25.922 28.2075C25.6418 28.122 25.387 27.9689 25.1799 27.7618C25.0124 27.5966 24.8795 27.3997 24.7887 27.1827C24.698 26.9657 24.6512 26.7328 24.6512 26.4975C24.6512 26.2623 24.698 26.0294 24.7887 25.8124C24.8795 25.5953 25.0124 25.3985 25.1799 25.2333C25.349 25.0642 25.5503 24.9307 25.772 24.8407C25.9936 24.7508 26.231 24.7063 26.4702 24.7097ZM35.4267 24.8393C35.2407 24.8421 35.0632 24.9171 34.9317 25.0485L24.9879 34.9924C24.9199 35.0584 24.8657 35.1372 24.8285 35.2244C24.7913 35.3115 24.7718 35.4052 24.7711 35.4999C24.7704 35.5947 24.7885 35.6886 24.8245 35.7763C24.8604 35.864 24.9134 35.9436 24.9804 36.0106C25.0474 36.0777 25.1271 36.1307 25.2148 36.1666C25.3024 36.2025 25.3964 36.2207 25.4911 36.22C25.5859 36.2193 25.6796 36.1998 25.7667 36.1626C25.8538 36.1253 25.9327 36.0712 25.9987 36.0032L35.9425 26.0594C36.0766 25.9253 36.1519 25.7435 36.1519 25.554C36.1519 25.3644 36.0766 25.1826 35.9425 25.0485C35.8749 24.9809 35.7944 24.9276 35.7058 24.8917C35.6172 24.8557 35.5223 24.8379 35.4267 24.8393ZM34.5617 31.3972C33.8173 31.3973 33.0959 31.6554 32.5205 32.1278C31.9451 32.6001 31.5512 33.2573 31.406 33.9874C31.2609 34.7176 31.3733 35.4754 31.7243 36.132C32.0753 36.7885 32.643 37.303 33.3308 37.5878C34.0186 37.8727 34.7838 37.9102 35.4962 37.6941C36.2086 37.478 36.824 37.0215 37.2375 36.4025C37.6511 35.7836 37.8372 35.0403 37.7643 34.2995C37.6913 33.5586 37.3637 32.866 36.8373 32.3396C36.5391 32.0399 36.1845 31.8022 35.7939 31.6405C35.4033 31.4787 34.9845 31.396 34.5617 31.3972ZM34.5159 32.828C34.7545 32.8217 34.992 32.8633 35.2142 32.9503C35.4365 33.0372 35.6391 33.1678 35.8101 33.3344C35.9811 33.501 36.117 33.7001 36.2098 33.92C36.3025 34.1399 36.3503 34.3762 36.3502 34.6149C36.3507 34.8499 36.3046 35.0826 36.2145 35.2996C36.1245 35.5166 35.9922 35.7136 35.8255 35.8792C35.619 36.0854 35.3656 36.2379 35.0865 36.3233C34.8075 36.4088 34.5118 36.4246 34.2252 36.3694C33.9387 36.3142 33.67 36.1896 33.4426 36.0067C33.2153 35.8237 33.0363 35.5878 32.9211 35.3196C32.806 35.0515 32.7583 34.7592 32.7821 34.4683C32.806 34.1775 32.9007 33.8969 33.0581 33.6511C33.2154 33.4053 33.4305 33.2018 33.6846 33.0583C33.9388 32.9148 34.2242 32.8358 34.5159 32.828Z" fill="#615A9F"/>
</svg>
