<svg width="27" height="30" viewBox="0 0 27 30" fill="none" xmlns="http://www.w3.org/2000/svg">
<path fill-rule="evenodd" clip-rule="evenodd" d="M4.10248 7.4668H20.5668V12.4459L23.9132 15.7792V28.5335H0.086792V16.4459L4.10248 12.4459V7.4668ZM4.10248 13.9544L2.15501 15.8942L4.10248 17.0582V13.9544ZM5.17333 17.6906L9.27729 20.0266C10.9473 18.8347 13.2635 18.816 14.7635 20.0275L19.4959 17.6705V8.53346H5.17333V17.6906ZM20.5668 17.0582L22.5143 15.8942L20.5668 13.9544V17.0582ZM22.8423 16.9421L20.2892 18.468L15.5966 20.8051C17.2937 22.3714 20.6651 25.1356 22.8423 26.887V16.9421ZM21.8591 27.4668C19.4031 25.4859 15.6813 22.4213 14.2985 21.0439C13.183 19.9327 11.0918 19.8745 9.66872 21.0739L2.0839 27.4668H21.8591ZM1.15764 26.8502V16.8877L1.3745 16.6717L4.36243 18.4575L8.39308 20.7518L1.15764 26.8502Z" fill="url(#paint0_linear_1901_3565)"/>
<defs>
<linearGradient id="paint0_linear_1901_3565" x1="23.9132" y1="17.3005" x2="0.0867915" y2="17.3005" gradientUnits="userSpaceOnUse">
<stop stop-color="#C69848"/>
<stop offset="0.25" stop-color="#F9D597"/>
<stop offset="0.505208" stop-color="#C69848"/>
<stop offset="0.739583" stop-color="#F9D597"/>
<stop offset="1" stop-color="#C69848"/>
</linearGradient>
</defs>
</svg>
