<svg width="61" height="61" viewBox="0 0 61 61" fill="none" xmlns="http://www.w3.org/2000/svg">
<path d="M17.427 2.43667C16.3402 2.39143 15.2555 2.56643 14.238 2.95115C13.2206 3.33586 12.2914 3.92235 11.5064 4.67535C10.7214 5.42835 10.0968 6.33231 9.6701 7.33288C9.2434 8.33345 9.02344 9.40998 9.02344 10.4977C9.026 12.6367 9.87685 14.6874 11.3893 16.1999C12.9018 17.7124 14.9525 18.5632 17.0915 18.5658C19.202 18.5654 21.2283 17.7381 22.7359 16.2612C24.2436 14.7844 25.1125 12.7755 25.1564 10.6655C25.2003 8.5555 24.4157 6.51228 22.9707 4.97398C21.5258 3.43569 19.5357 2.52481 17.427 2.43667ZM17.0915 3.85961C18.4045 3.8596 19.6879 4.24894 20.7796 4.97838C21.8713 5.70783 22.7222 6.74462 23.2246 7.95764C23.7271 9.17066 23.8585 10.5054 23.6023 11.7932C23.3462 13.0809 22.7139 14.2638 21.7855 15.1921C20.8571 16.1205 19.6742 16.7528 18.3865 17.0089C17.0987 17.265 15.7639 17.1335 14.5509 16.631C13.3379 16.1285 12.3012 15.2776 11.5718 14.1859C10.8424 13.0942 10.4531 11.8107 10.4531 10.4977C10.4551 8.73778 11.1552 7.05048 12.3997 5.80602C13.6442 4.56157 15.3315 3.86157 17.0915 3.85961ZM29.9145 10.6865C29.8464 10.6879 29.7788 10.699 29.7139 10.7195C29.6255 10.7424 29.5428 10.783 29.4705 10.8388C29.3983 10.8946 29.3381 10.9644 29.2936 11.0441L21.6859 25.4962H14.4567C11.8445 25.4962 9.769 27.6738 9.769 30.2856V53.8326C9.769 56.4452 11.8445 58.6173 14.4567 58.6173H47.2387C49.8509 58.6173 51.9448 56.4452 51.9448 53.833V30.2856C51.9448 27.6738 49.8503 25.4962 47.2387 25.4962H42.9103L45.9256 19.784C45.9693 19.7032 45.9962 19.6145 46.0047 19.5232C46.0133 19.4318 46.0033 19.3397 45.9754 19.2522C45.9474 19.1635 45.9021 19.0812 45.842 19.0101C45.7819 18.9391 45.7083 18.8806 45.6254 18.8383L30.2589 10.767C30.1526 10.7117 30.0342 10.684 29.9145 10.6865ZM30.2267 12.3423L44.3275 19.7386L41.2952 25.4962H39.9528L40.5876 24.3143C40.673 24.1537 40.6924 23.9661 40.6417 23.7913C40.5911 23.6166 40.4743 23.4685 40.3162 23.3784C39.1183 22.6755 38.8047 21.1506 39.5537 19.6597C39.6378 19.4928 39.6529 19.2996 39.5956 19.1217C39.5383 18.9438 39.4134 18.7956 39.2477 18.7091L33.9862 15.9461C33.8203 15.859 33.6268 15.8405 33.4474 15.8947C33.268 15.9488 33.117 16.0712 33.027 16.2356C32.2231 17.701 30.8239 18.2838 29.5445 17.6864C29.3815 17.6041 29.1929 17.5882 29.0184 17.6421C28.844 17.6961 28.6973 17.8157 28.6093 17.9757L24.6437 25.4962H23.301L30.2267 12.3423ZM33.9031 17.5068L38.0004 19.6532C37.3969 21.3817 37.7978 23.1345 39.0331 24.1989L38.3376 25.4962H26.2581L29.5838 19.1936C31.1756 19.6266 32.8232 18.9932 33.9031 17.5068ZM14.4567 26.9259H47.2387C49.0626 26.9259 50.5151 28.4627 50.5151 30.2856V33.9552H44.2653C43.6445 33.9569 43.0301 34.081 42.4573 34.3204C41.8845 34.5597 41.3645 34.9096 40.9269 35.35C40.4894 35.7904 40.143 36.3128 39.9074 36.8872C39.6719 37.4616 39.5518 38.0767 39.5542 38.6975V45.4215C39.5519 46.042 39.6721 46.6569 39.9077 47.2309C40.1434 47.805 40.4899 48.3269 40.9275 48.7668C41.3651 49.2068 41.8851 49.5562 42.4579 49.7949C43.0306 50.0337 43.6448 50.1572 44.2653 50.1583H50.5151V53.833C50.5151 55.6569 49.0616 57.1876 47.2387 57.1876H14.4567C12.6327 57.1876 11.1987 55.6569 11.1987 53.833V30.2856C11.1987 28.4627 12.6327 26.9259 14.4567 26.9259ZM44.2653 35.3849H50.5151V48.7286H44.2653C43.8325 48.7277 43.4041 48.6414 43.0047 48.4746C42.6053 48.3077 42.2428 48.0637 41.9379 47.7565C41.633 47.4492 41.3918 47.0848 41.2281 46.6841C41.0644 46.2834 40.9814 45.8544 40.9838 45.4215V38.6975C40.9813 38.2644 41.0642 37.8351 41.2278 37.434C41.3914 37.033 41.6326 36.6682 41.9374 36.3605C42.2422 36.0528 42.6047 35.8082 43.0042 35.6408C43.4036 35.4734 43.8322 35.3864 44.2653 35.3849ZM45.8477 38.9886C45.6618 38.9941 45.4853 39.0718 45.3558 39.2052C45.2262 39.3386 45.1537 39.5173 45.1538 39.7032V44.4158C45.1538 44.6054 45.2291 44.7872 45.3631 44.9213C45.4972 45.0553 45.679 45.1307 45.8686 45.1307C46.0582 45.1307 46.24 45.0553 46.3741 44.9213C46.5081 44.7872 46.5834 44.6054 46.5834 44.4158V39.7032C46.5835 39.6076 46.5643 39.5129 46.527 39.4248C46.4898 39.3367 46.4353 39.257 46.3666 39.1904C46.298 39.1237 46.2167 39.0716 46.1276 39.0369C46.0385 39.0022 45.9433 38.9858 45.8477 38.9886Z" fill="#615A9F"/>
</svg>
