<svg width="18" height="18" viewBox="0 0 18 18" fill="none" xmlns="http://www.w3.org/2000/svg">
<path d="M0 2.6C0 2.26863 0.268629 2 0.6 2H17.4C17.7314 2 18 2.26863 18 2.6C18 2.93137 17.7314 3.2 17.4 3.2H0.600001C0.26863 3.2 0 2.93137 0 2.6Z" fill="#1E1765"/>
<path d="M0 8.6C0 8.26863 0.268629 8 0.6 8H17.4C17.7314 8 18 8.26863 18 8.6C18 8.93137 17.7314 9.2 17.4 9.2H0.600001C0.26863 9.2 0 8.93137 0 8.6Z" fill="#1E1765"/>
<path d="M0 14.6C0 14.2686 0.268629 14 0.6 14H17.4C17.7314 14 18 14.2686 18 14.6C18 14.9314 17.7314 15.2 17.4 15.2H0.600001C0.26863 15.2 0 14.9314 0 14.6Z" fill="#1E1765"/>
</svg>
