<svg width="27" height="30" viewBox="0 0 27 30" fill="none" xmlns="http://www.w3.org/2000/svg">
<path fill-rule="evenodd" clip-rule="evenodd" d="M5.78968 8.09123C7.96316 6.6034 10.5005 6 12 6C13.4994 6 16.0368 6.6034 18.2103 8.09123C20.4076 9.59535 22.2623 12.0281 22.2623 15.6602C22.2623 18.588 20.542 21.5605 18.4974 24.0366C16.4388 26.5297 13.9736 28.6126 12.3224 29.7753L12.0032 30L11.6819 29.7783C10.1116 28.6948 7.64476 26.7065 5.56393 24.2388C3.49442 21.7846 1.73767 18.7746 1.73767 15.6602C1.73767 12.0281 3.5924 9.59535 5.78968 8.09123ZM6.4225 8.98949C4.45938 10.3333 2.84711 12.4573 2.84711 15.6602C2.84711 18.3897 4.40326 21.1516 6.41711 23.5398C8.28285 25.7524 10.4823 27.5743 11.9965 28.6564C13.5711 27.5056 15.78 25.5951 17.637 23.3462C19.6372 20.9238 21.1528 18.2004 21.1528 15.6602C21.1528 12.4573 19.5406 10.3333 17.5775 8.98949C15.5906 7.62938 13.2741 7.09361 12 7.09361C10.7258 7.09361 8.4094 7.62938 6.4225 8.98949Z" fill="url(#paint0_linear_1901_3585)"/>
<path fill-rule="evenodd" clip-rule="evenodd" d="M12 18.212C13.685 18.212 15.0509 16.8655 15.0509 15.2045C15.0509 13.5436 13.685 12.1971 12 12.1971C10.315 12.1971 8.94902 13.5436 8.94902 15.2045C8.94902 16.8655 10.315 18.212 12 18.212ZM12 19.3056C14.2977 19.3056 16.1604 17.4695 16.1604 15.2045C16.1604 12.9396 14.2977 11.1035 12 11.1035C9.70226 11.1035 7.83958 12.9396 7.83958 15.2045C7.83958 17.4695 9.70226 19.3056 12 19.3056Z" fill="url(#paint1_linear_1901_3585)"/>
<defs>
<linearGradient id="paint0_linear_1901_3585" x1="22.2623" y1="17.2029" x2="1.73767" y2="17.2029" gradientUnits="userSpaceOnUse">
<stop stop-color="#C69848"/>
<stop offset="0.25" stop-color="#F9D597"/>
<stop offset="0.505208" stop-color="#C69848"/>
<stop offset="0.739583" stop-color="#F9D597"/>
<stop offset="1" stop-color="#C69848"/>
</linearGradient>
<linearGradient id="paint1_linear_1901_3585" x1="22.2623" y1="17.2029" x2="1.73767" y2="17.2029" gradientUnits="userSpaceOnUse">
<stop stop-color="#C69848"/>
<stop offset="0.25" stop-color="#F9D597"/>
<stop offset="0.505208" stop-color="#C69848"/>
<stop offset="0.739583" stop-color="#F9D597"/>
<stop offset="1" stop-color="#C69848"/>
</linearGradient>
</defs>
</svg>
