<svg width="60" height="60" viewBox="0 0 60 60" fill="none" xmlns="http://www.w3.org/2000/svg">
<path d="M44.225 56.1415C38.4051 56.1415 27.6133 54.4045 16.8176 43.6079C4.3289 31.1197 3.96205 18.6363 4.38561 13.8489C4.5392 12.1267 5.21577 10.4928 6.32456 9.16616L9.36624 5.50201C9.6653 5.14165 10.0363 4.84767 10.4554 4.63886C10.8746 4.43004 11.3327 4.31099 11.8005 4.28931C12.2682 4.26764 12.7354 4.34381 13.1721 4.51297C13.6087 4.68212 14.0053 4.94054 14.3364 5.27169L24.1917 15.1278C24.5232 15.459 24.7819 15.8557 24.9513 16.2926C25.1207 16.7296 25.197 17.197 25.1753 17.6651C25.1536 18.1332 25.0344 18.5916 24.8254 19.011C24.6164 19.4304 24.3221 19.8015 23.9614 20.1006L17.2333 25.6841C19.0475 29.49 21.5148 32.9483 24.5232 35.9023C27.4774 38.9106 30.9359 41.3779 34.7418 43.1922L40.3292 36.4637C40.6284 36.1031 40.9996 35.8088 41.419 35.5999C41.8384 35.3909 42.2968 35.2718 42.7648 35.2502C43.2329 35.2286 43.7003 35.3049 44.1372 35.4742C44.5741 35.6436 44.9708 35.9023 45.302 36.2338L55.1573 46.0891C55.4884 46.4202 55.7468 46.8167 55.916 47.2534C56.0851 47.6901 56.1613 48.1572 56.1396 48.625C56.118 49.0928 55.9989 49.5509 55.7901 49.97C55.5813 50.3892 55.2873 50.7602 54.927 51.0592L51.2628 54.1009C49.9362 55.21 48.3023 55.887 46.5801 56.0412C45.928 56.0983 45.1371 56.1415 44.225 56.1415ZM11.9599 5.81346C11.9307 5.81346 11.9011 5.81346 11.8727 5.81346C11.6168 5.82409 11.3659 5.88865 11.1367 6.00291C10.9074 6.11717 10.7048 6.27855 10.5423 6.4765L7.50057 10.1407C6.58971 11.2286 6.03338 12.5691 5.90623 13.9823C5.50317 18.5564 5.86261 30.4942 17.8981 42.5279C29.9335 54.5615 41.8712 54.9227 46.444 54.5197C47.8563 54.392 49.1957 53.8356 50.2826 52.9249L53.9468 49.8836C54.1437 49.7202 54.3043 49.5174 54.4184 49.2884C54.5325 49.0593 54.5976 48.809 54.6094 48.5533C54.6213 48.2977 54.5797 48.0424 54.4873 47.8038C54.3949 47.5651 54.2538 47.3484 54.0729 47.1674L44.218 37.3134C44.0371 37.1324 43.8204 36.9912 43.5818 36.8987C43.3432 36.8063 43.088 36.7646 42.8324 36.7765C42.5768 36.7883 42.3264 36.8533 42.0974 36.9674C41.8683 37.0815 41.6656 37.2421 41.5022 37.439L35.5436 44.6164C35.4372 44.7442 35.2922 44.8338 35.1303 44.8716C34.9685 44.9095 34.7987 44.8935 34.6467 44.8262C30.4613 42.9234 26.6633 40.264 23.4436 36.9819C20.1615 33.7622 17.5021 29.9641 15.5992 25.7787C15.5318 25.6268 15.5158 25.457 15.5536 25.2951C15.5915 25.1332 15.6812 24.9881 15.809 24.8819L22.986 18.9233C23.183 18.7599 23.3437 18.5573 23.4579 18.3282C23.572 18.0992 23.6371 17.8488 23.649 17.5932C23.6609 17.3376 23.6192 17.0823 23.5268 16.8437C23.4343 16.605 23.2931 16.3883 23.1121 16.2074L13.2572 6.35218C13.0876 6.18079 12.8855 6.0449 12.6627 5.95241C12.44 5.85992 12.2011 5.81268 11.9599 5.81346Z" fill="#615A9F"/>
<path d="M53.3244 26.6588C53.224 26.659 53.1247 26.6394 53.0319 26.6011C52.9392 26.5628 52.8549 26.5066 52.7839 26.4357C52.7129 26.3648 52.6566 26.2806 52.6182 26.1879C52.5798 26.0952 52.5601 25.9958 52.5601 25.8955C52.5543 21.0256 50.6171 16.3568 47.1736 12.9133C43.73 9.46977 39.0613 7.53261 34.1914 7.52672C33.9889 7.52672 33.7948 7.4463 33.6516 7.30314C33.5084 7.15998 33.428 6.96581 33.428 6.76336C33.428 6.5609 33.5084 6.36673 33.6516 6.22358C33.7948 6.08042 33.9889 5.99999 34.1914 5.99999C39.4661 6.00623 44.523 8.10435 48.2527 11.8341C51.9825 15.5639 54.0806 20.6208 54.0869 25.8955C54.0869 25.9957 54.0672 26.0949 54.029 26.1875C53.9907 26.2801 53.9345 26.3642 53.8637 26.4351C53.7929 26.506 53.7088 26.5622 53.6163 26.6006C53.5238 26.639 53.4246 26.6588 53.3244 26.6588Z" fill="#615A9F"/>
<path d="M45.1869 25.3794C45.0866 25.3794 44.9873 25.3597 44.8947 25.3214C44.8021 25.283 44.7179 25.2268 44.647 25.1559C44.5761 25.085 44.5199 25.0008 44.4815 24.9082C44.4432 24.8156 44.4235 24.7163 44.4235 24.616C44.4206 22.1305 43.432 19.7476 41.6745 17.9901C39.9169 16.2325 37.534 15.2439 35.0485 15.241C34.8461 15.241 34.6519 15.1606 34.5087 15.0174C34.3656 14.8743 34.2852 14.6801 34.2852 14.4776C34.2852 14.2752 34.3656 14.081 34.5087 13.9379C34.6519 13.7947 34.8461 13.7143 35.0485 13.7143C37.9388 13.7176 40.7098 14.8673 42.7535 16.911C44.7973 18.9548 45.9469 21.7257 45.9503 24.616C45.9503 24.7163 45.9306 24.8156 45.8923 24.9082C45.8539 25.0008 45.7977 25.085 45.7268 25.1559C45.6559 25.2268 45.5717 25.283 45.4791 25.3214C45.3864 25.3597 45.2872 25.3794 45.1869 25.3794Z" fill="#615A9F"/>
</svg>
