<svg width="20" height="20" viewBox="0 0 20 20" fill="none" xmlns="http://www.w3.org/2000/svg">
<path d="M9.18446 1.66518C9.51711 0.986607 10.4844 0.986606 10.817 1.66518L12.9823 6.08205C13.1147 6.35226 13.3723 6.5394 13.6702 6.58188L18.54 7.27627C19.2882 7.38295 19.5871 8.30287 19.0445 8.82893L15.5129 12.2531C15.2969 12.4626 15.1985 12.7654 15.2501 13.0618L16.0946 17.9079C16.2243 18.6524 15.4418 19.2209 14.7738 18.8675L10.4259 16.5668C10.1599 16.4261 9.84155 16.4261 9.57556 16.5668L5.22766 18.8675C4.55968 19.2209 3.77715 18.6524 3.90689 17.9079L4.75133 13.0618C4.80299 12.7654 4.7046 12.4626 4.48856 12.2531L0.956962 8.82894C0.414396 8.30287 0.713295 7.38295 1.46145 7.27627L6.33125 6.58188C6.62916 6.5394 6.88674 6.35226 7.0192 6.08206L9.18446 1.66518Z" fill="url(#paint0_linear_101_388)"/>
<defs>
<linearGradient id="paint0_linear_101_388" x1="19.3218" y1="9.47386" x2="0.679687" y2="9.47386" gradientUnits="userSpaceOnUse">
<stop stop-color="#C69848"/>
<stop offset="0.510417" stop-color="#F9D597"/>
<stop offset="1" stop-color="#C69848"/>
</linearGradient>
</defs>
</svg>
