<svg width="27" height="27" viewBox="0 0 27 27" fill="none" xmlns="http://www.w3.org/2000/svg">
<path fill-rule="evenodd" clip-rule="evenodd" d="M1.95775 12.7162H3.63444C3.92275 12.7162 4.15648 12.949 4.15648 13.2362C4.15648 13.5234 3.92275 13.7562 3.63444 13.7562H1.95775C2.0773 16.4956 3.13681 18.9921 4.82303 20.9336L6.27564 19.4867C6.47951 19.2836 6.81004 19.2836 7.01391 19.4867C7.21778 19.6898 7.21778 20.019 7.01391 20.2221L5.54044 21.6898C7.55117 23.6308 10.2523 24.8664 13.2415 24.9958V23.1635C13.2415 22.8763 13.4752 22.6435 13.7635 22.6435C14.0518 22.6435 14.2855 22.8763 14.2855 23.1635V24.9958C17.2747 24.8664 19.9758 23.6308 21.9865 21.6898L20.5131 20.2221C20.3092 20.019 20.3092 19.6898 20.5131 19.4867C20.7169 19.2836 21.0475 19.2836 21.2513 19.4867L22.704 20.9336C24.3902 18.9921 25.4497 16.4956 25.5692 13.7562H23.7297C23.4414 13.7562 23.2077 13.5234 23.2077 13.2362C23.2077 12.949 23.4414 12.7162 23.7297 12.7162H25.5692C25.4445 9.85769 24.2962 7.26367 22.4805 5.28868L21.2513 6.51299C21.0475 6.71606 20.7169 6.71606 20.5131 6.51299C20.3092 6.30992 20.3092 5.98067 20.5131 5.7776L21.7422 4.55329C19.7594 2.74459 17.1553 1.60083 14.2855 1.47657V3.78166C14.2855 4.06884 14.0518 4.30166 13.7635 4.30166C13.4752 4.30166 13.2415 4.06884 13.2415 3.78166V1.47657C10.3717 1.60083 7.76754 2.74459 5.78481 4.55329L7.01391 5.7776C7.21778 5.98067 7.21778 6.30992 7.01391 6.51299C6.81004 6.71606 6.47951 6.71606 6.27564 6.51299L5.04653 5.28868C3.23073 7.26367 2.08249 9.85769 1.95775 12.7162ZM14.2855 26.0367C21.1465 25.7639 26.6246 20.1373 26.6246 13.2362C26.6246 6.16093 20.8665 0.425293 13.7635 0.425293C6.66048 0.425293 0.902344 6.16093 0.902344 13.2362C0.902344 20.1373 6.38048 25.7639 13.2415 26.0367H14.2855ZM13.7635 5.62529C14.0518 5.62529 14.2855 5.8581 14.2855 6.14529V12.7162H18.5093V13.7562H13.2415V6.14529C13.2415 5.8581 13.4752 5.62529 13.7635 5.62529Z" fill="url(#paint0_linear_2300_4979)"/>
<defs>
<linearGradient id="paint0_linear_2300_4979" x1="26.6246" y1="12.3804" x2="0.902343" y2="12.3804" gradientUnits="userSpaceOnUse">
<stop stop-color="#C69848"/>
<stop offset="0.25" stop-color="#F9D597"/>
<stop offset="0.505208" stop-color="#C69848"/>
<stop offset="0.739583" stop-color="#F9D597"/>
<stop offset="1" stop-color="#C69848"/>
</linearGradient>
</defs>
</svg>
