<svg width="61" height="61" viewBox="0 0 61 61" fill="none" xmlns="http://www.w3.org/2000/svg">
<path d="M11.0899 5.47403L11.0899 54.6621C11.0899 55.553 12.1669 55.9781 12.7969 55.3481L14.2646 53.8804C14.6551 53.4899 15.2883 53.4899 15.6788 53.8804L18.1464 56.348C18.537 56.7385 19.1701 56.7386 19.5607 56.348L22.0283 53.8804C22.4188 53.4899 23.052 53.4899 23.4425 53.8804L25.9101 56.348C26.3006 56.7385 26.9338 56.7386 27.3243 56.348L29.792 53.8804C30.1825 53.4899 30.8157 53.4899 31.2062 53.8804L33.6738 56.348C34.0643 56.7385 34.6975 56.7386 35.088 56.348L37.5557 53.8804C37.9462 53.4899 38.5793 53.4899 38.9699 53.8804L41.4375 56.348C41.828 56.7385 42.4612 56.7386 42.8517 56.348L45.3193 53.8804C45.7099 53.4899 46.343 53.4899 46.7336 53.8804L48.2012 55.348C48.8312 55.978 49.9083 55.5318 49.9083 54.6409V5.48843C49.9083 4.59753 48.8312 4.15136 48.2012 4.78132L46.7336 6.24896C46.343 6.63948 45.7099 6.63948 45.3193 6.24896L42.8517 3.78133C42.4612 3.3908 41.828 3.3908 41.4375 3.78132L38.9699 6.24895C38.5793 6.63948 37.9462 6.63948 37.5557 6.24896L35.088 3.78133C34.6975 3.3908 34.0643 3.3908 33.6738 3.78132L31.2062 6.24896C30.8157 6.63948 30.1825 6.63948 29.792 6.24896L27.3243 3.78133C26.9338 3.3908 26.3007 3.3908 25.9101 3.78132L23.4425 6.24896C23.052 6.63948 22.4188 6.63948 22.0283 6.24896L19.5607 3.78133C19.1701 3.3908 18.537 3.3908 18.1464 3.78132L15.6788 6.24896C15.2883 6.63948 14.6551 6.63948 14.2646 6.24896L12.797 4.78132C12.167 4.15136 11.0899 4.58312 11.0899 5.47403Z" stroke="#615A9F" stroke-width="1.5"/>
<path d="M19.5586 36.7139H41.4405" stroke="#615A9F" stroke-width="1.5" stroke-linecap="round"/>
<path d="M22.1641 41.1846H38.8363" stroke="#615A9F" stroke-width="1.5" stroke-linecap="round"/>
<path d="M22.1641 45.6543H38.8363" stroke="#615A9F" stroke-width="1.5" stroke-linecap="round"/>
<path d="M21.3594 18.02V29.2099H19.5136V20.2105L16.7793 21.1372V19.6131L21.1373 18.02H21.3594Z" fill="#615A9F"/>
<path d="M27.4024 22.7992H28.5053C28.9342 22.7992 29.2891 22.7252 29.5699 22.5771C29.8558 22.4291 30.0677 22.2248 30.2056 21.9644C30.3435 21.704 30.4124 21.4053 30.4124 21.0683C30.4124 20.716 30.3486 20.4147 30.2209 20.1645C30.0984 19.9092 29.9094 19.7127 29.6541 19.5748C29.4039 19.4369 29.0848 19.368 28.6968 19.368C28.37 19.368 28.0738 19.4344 27.8083 19.5671C27.5479 19.6948 27.3411 19.8786 27.1879 20.1186C27.0348 20.3535 26.9582 20.6343 26.9582 20.9611H25.1047C25.1047 20.3688 25.2604 19.8429 25.5719 19.3833C25.8833 18.9238 26.3071 18.5638 26.8433 18.3034C27.3845 18.0379 27.9921 17.9051 28.6661 17.9051C29.3861 17.9051 30.0141 18.0251 30.5503 18.2651C31.0915 18.5 31.5127 18.8523 31.814 19.322C32.1152 19.7918 32.2659 20.3739 32.2659 21.0683C32.2659 21.3849 32.1918 21.7066 32.0438 22.0333C31.8957 22.3601 31.6761 22.6588 31.3851 22.9295C31.094 23.195 30.7315 23.412 30.2975 23.5805C29.8635 23.7439 29.3605 23.8256 28.7887 23.8256H27.4024V22.7992ZM27.4024 24.2391V23.2282H28.7887C29.4422 23.2282 29.9988 23.3047 30.4583 23.4579C30.923 23.6111 31.3008 23.823 31.5919 24.0936C31.8829 24.3591 32.0948 24.6629 32.2276 25.0051C32.3654 25.3472 32.4344 25.7097 32.4344 26.0926C32.4344 26.6134 32.3399 27.0781 32.151 27.4866C31.9672 27.89 31.7042 28.2321 31.3621 28.5129C31.02 28.7937 30.6192 29.0056 30.1596 29.1486C29.7052 29.2916 29.2099 29.363 28.6738 29.363C28.1938 29.363 27.7343 29.2967 27.2952 29.1639C26.856 29.0312 26.4629 28.8346 26.1157 28.5742C25.7685 28.3087 25.4927 27.9793 25.2885 27.5861C25.0894 27.1879 24.9898 26.7283 24.9898 26.2075H26.8356C26.8356 26.5394 26.9122 26.833 27.0654 27.0883C27.2237 27.3385 27.4432 27.5351 27.7241 27.6781C28.01 27.821 28.3368 27.8925 28.7044 27.8925C29.0925 27.8925 29.4269 27.8236 29.7078 27.6857C29.9886 27.5479 30.203 27.3436 30.3511 27.073C30.5043 26.8024 30.5809 26.4756 30.5809 26.0926C30.5809 25.6586 30.4966 25.3063 30.3281 25.0357C30.1596 24.7651 29.9197 24.5659 29.6082 24.4383C29.2967 24.3055 28.9291 24.2391 28.5053 24.2391H27.4024Z" fill="#615A9F"/>
<path d="M34.0428 20.7926V20.2028C34.0428 19.779 34.1347 19.3935 34.3185 19.0463C34.5023 18.6991 34.7729 18.4208 35.1304 18.2115C35.4878 18.0021 35.9269 17.8975 36.4477 17.8975C36.9838 17.8975 37.4306 18.0021 37.788 18.2115C38.1506 18.4208 38.4212 18.6991 38.5999 19.0463C38.7837 19.3935 38.8756 19.779 38.8756 20.2028V20.7926C38.8756 21.2062 38.7837 21.5866 38.5999 21.9338C38.4212 22.281 38.1531 22.5593 37.7957 22.7686C37.4383 22.978 36.9966 23.0826 36.4707 23.0826C35.9397 23.0826 35.4929 22.978 35.1304 22.7686C34.7729 22.5593 34.5023 22.281 34.3185 21.9338C34.1347 21.5866 34.0428 21.2062 34.0428 20.7926ZM35.5057 20.2028V20.7926C35.5057 20.9713 35.5388 21.1423 35.6052 21.3057C35.6767 21.464 35.7839 21.5942 35.9269 21.6963C36.075 21.7934 36.2537 21.8419 36.463 21.8419C36.6826 21.8419 36.8613 21.7934 36.9992 21.6963C37.137 21.5942 37.2391 21.464 37.3055 21.3057C37.3719 21.1423 37.4051 20.9713 37.4051 20.7926V20.2028C37.4051 20.0139 37.3694 19.8403 37.2979 19.682C37.2315 19.5186 37.1268 19.3884 36.9838 19.2914C36.846 19.1893 36.6673 19.1382 36.4477 19.1382C36.2435 19.1382 36.0699 19.1893 35.9269 19.2914C35.7839 19.3884 35.6767 19.5186 35.6052 19.682C35.5388 19.8403 35.5057 20.0139 35.5057 20.2028ZM39.3735 27.0653V26.4756C39.3735 26.0569 39.4654 25.6739 39.6492 25.3267C39.8381 24.9795 40.1113 24.7012 40.4687 24.4919C40.8312 24.2825 41.2755 24.1779 41.8014 24.1779C42.3324 24.1779 42.7766 24.2825 43.1341 24.4919C43.4915 24.7012 43.7621 24.9795 43.9459 25.3267C44.1297 25.6739 44.2216 26.0569 44.2216 26.4756V27.0653C44.2216 27.484 44.1297 27.867 43.9459 28.2142C43.7672 28.5614 43.4991 28.8397 43.1417 29.049C42.7843 29.2584 42.3426 29.363 41.8167 29.363C41.2857 29.363 40.8389 29.2584 40.4764 29.049C40.1138 28.8397 39.8381 28.5614 39.6492 28.2142C39.4654 27.867 39.3735 27.484 39.3735 27.0653ZM40.844 26.4756V27.0653C40.844 27.2491 40.8849 27.4228 40.9665 27.5861C41.0482 27.7495 41.1606 27.8797 41.3035 27.9768C41.4516 28.0738 41.6227 28.1223 41.8167 28.1223C42.0618 28.1223 42.2533 28.0738 42.3911 27.9768C42.529 27.8797 42.6235 27.7495 42.6745 27.5861C42.7307 27.4228 42.7588 27.2491 42.7588 27.0653V26.4756C42.7588 26.2918 42.723 26.1207 42.6515 25.9624C42.5801 25.799 42.4728 25.6688 42.3299 25.5718C42.192 25.4697 42.0158 25.4186 41.8014 25.4186C41.5869 25.4186 41.4082 25.4697 41.2652 25.5718C41.1274 25.6688 41.0227 25.799 40.9512 25.9624C40.8797 26.1207 40.844 26.2918 40.844 26.4756ZM42.3452 19.6514L36.8996 28.3674L35.8273 27.8006L41.2729 19.0846L42.3452 19.6514Z" fill="#615A9F"/>
</svg>
