<svg width="60" height="60" viewBox="0 0 60 60" fill="none" xmlns="http://www.w3.org/2000/svg">
<path d="M30.0006 2.60303C24.5819 2.60303 19.285 4.20984 14.7796 7.22026C10.2742 10.2307 6.76262 14.5095 4.689 19.5157C2.61539 24.5218 2.07283 30.0304 3.12995 35.345C4.18707 40.6595 6.79639 45.5411 10.6279 49.3727C14.4595 53.2042 19.3412 55.8135 24.6557 56.8707C29.9702 57.9278 35.4788 57.3852 40.485 55.3116C45.4911 53.238 49.7699 49.7264 52.7804 45.221C55.7908 40.7156 57.3976 35.4187 57.3976 30.0001C57.3894 22.7364 54.5003 15.7726 49.3641 10.6365C44.228 5.50031 37.2642 2.61122 30.0006 2.60303ZM30.0006 55.7565C24.9064 55.7565 19.9267 54.2459 15.6911 51.4157C11.4554 48.5856 8.15418 44.563 6.20474 39.8566C4.2553 35.1502 3.74524 29.9715 4.73906 24.9752C5.73287 19.979 8.18593 15.3896 11.788 11.7875C15.3901 8.18543 19.9795 5.73237 24.9757 4.73855C29.972 3.74474 35.1507 4.2548 39.8571 6.20424C44.5635 8.15368 48.5861 11.4549 51.4162 15.6906C54.2464 19.9262 55.757 24.9059 55.757 30.0001C55.7493 36.8287 53.0332 43.3755 48.2046 48.2041C43.376 53.0327 36.8292 55.7488 30.0006 55.7565Z" fill="#615A9F"/>
<path d="M46.966 18.7801C46.1522 17.9682 45.0497 17.5123 43.9002 17.5123C42.7507 17.5123 41.6481 17.9682 40.8343 18.7801L26.7718 32.8426L19.1668 25.238C18.3536 24.4249 17.2507 23.9681 16.1008 23.9682C14.9508 23.9682 13.848 24.4251 13.0349 25.2383C12.2217 26.0514 11.765 27.1543 11.765 28.3043C11.765 29.4543 12.2219 30.5571 13.0351 31.3702L23.7057 42.0404C24.1083 42.4431 24.5862 42.7625 25.1123 42.9805C25.6383 43.1984 26.2022 43.3106 26.7716 43.3106C27.341 43.3106 27.9048 43.1984 28.4309 42.9805C28.9569 42.7625 29.4349 42.4431 29.8374 42.0404L46.966 24.9122C47.7779 24.0984 48.2338 22.9957 48.2338 21.8462C48.2338 20.6966 47.7779 19.5939 46.966 18.7801ZM45.8059 23.7521L28.6773 40.8807C28.1717 41.3861 27.4862 41.67 26.7713 41.67C26.0565 41.67 25.3709 41.3861 24.8654 40.8807L14.1952 30.2101C13.7001 29.7024 13.425 29.0202 13.4294 28.3111C13.4338 27.602 13.7174 26.9232 14.2188 26.4217C14.7202 25.9203 15.399 25.6366 16.108 25.6321C16.8171 25.6276 17.4994 25.9027 18.0071 26.3977L26.1915 34.5826C26.3482 34.7309 26.5558 34.8136 26.7716 34.8136C26.9874 34.8136 27.195 34.7309 27.3517 34.5826L41.994 19.9397C42.5017 19.4447 43.184 19.1696 43.8931 19.1741C44.6022 19.1786 45.2809 19.4623 45.7823 19.9638C46.2837 20.4652 46.5673 21.144 46.5717 21.8531C46.5761 22.5622 46.301 23.2445 45.8059 23.7521Z" fill="#615A9F"/>
</svg>
