<svg width="26" height="26" viewBox="0 0 26 26" fill="none" xmlns="http://www.w3.org/2000/svg">
<path d="M14.0104 0.287598C17.0535 0.287478 19.9107 1.46748 22.0624 3.61095C24.2145 5.75442 25.3961 8.5972 25.396 11.6287C25.396 11.9814 25.1157 12.2607 24.7616 12.2607C24.4073 12.2607 24.1272 11.9815 24.1272 11.6287C24.1273 8.93963 23.0737 6.40674 21.1646 4.50526C19.2557 2.60377 16.7099 1.55417 14.0104 1.55431C13.6562 1.55431 13.376 1.27511 13.376 0.922363C13.376 0.569565 13.6561 0.287598 14.0104 0.287598Z" fill="url(#paint0_linear_2300_4952)"/>
<path d="M14.0104 5.6422C17.3266 5.64267 20.0201 8.32567 20.0204 11.6287C20.0204 11.9816 19.7401 12.2607 19.386 12.2607C19.0317 12.2608 18.7516 11.9815 18.7516 11.6287C18.7514 9.02821 16.6213 6.90931 14.0104 6.90891C13.6562 6.90883 13.376 6.62694 13.376 6.27414C13.376 5.92135 13.6562 5.6422 14.0104 5.6422Z" fill="url(#paint1_linear_2300_4952)"/>
<path d="M5.59295 4.35574C5.04338 4.15171 4.47589 4.14601 3.87378 4.34728C2.45394 4.82355 1.46105 5.65483 0.956568 6.75092C0.467498 7.81376 0.476784 9.04688 1.01038 10.3536C2.43532 13.8362 4.42726 16.8779 6.92977 19.4011L6.94676 19.418C9.47792 21.9061 12.5297 23.8853 16.0213 25.303C16.6968 25.5766 17.3526 25.7121 17.9755 25.7121C18.5621 25.7121 19.1179 25.5928 19.6352 25.3566C20.7357 24.8542 21.5726 23.8662 22.0511 22.4508C22.2528 21.8523 22.2457 21.2883 22.0426 20.744C21.9464 20.4835 21.6289 20.0528 21.1816 19.6042C20.7344 19.1557 20.1618 18.6743 19.5587 18.2331C18.9557 17.792 18.3228 17.3911 17.7574 17.099C17.1931 16.8075 16.6846 16.6325 16.4008 16.6166H16.398C15.1489 16.5539 14.5346 17.4489 14.189 17.9525L14.1803 17.9651C13.9803 18.2563 14.0551 18.6433 14.3474 18.8425C14.6398 19.0418 15.0281 18.9702 15.2282 18.6789C15.4393 18.3715 15.5995 18.1781 15.7749 18.0469C15.9502 17.9157 16.1598 17.8699 16.3243 17.8777L16.3328 17.8805H16.3441C16.6591 17.9173 16.9922 18.0958 17.4176 18.3432C17.843 18.5905 18.329 18.9138 18.7997 19.2572C19.2704 19.6007 19.7253 19.9646 20.0884 20.2926C20.4515 20.6206 20.7175 20.8773 20.8446 21.1672L20.8502 21.1756L20.8531 21.1813C20.9547 21.4532 20.947 21.7513 20.8474 22.0474C20.4986 23.0787 19.9021 23.842 19.1056 24.2056C18.3476 24.5507 17.4367 24.5119 16.4999 24.1322C13.1658 22.7786 10.2461 20.886 7.83042 18.5096L7.82193 18.5011C5.43987 16.0967 3.54584 13.1941 2.18859 9.87679C1.80691 8.942 1.76443 8.03384 2.11212 7.27848C2.47721 6.48522 3.24424 5.89341 4.27879 5.54628C4.5768 5.44675 4.87412 5.44006 5.14546 5.54064L5.16245 5.54628C5.45367 5.67304 5.71079 5.94066 6.04045 6.30235C6.3701 6.66405 6.73499 7.11489 7.07988 7.58317C7.42477 8.05146 7.74935 8.5347 7.99753 8.95709C8.24571 9.37947 8.42504 9.70801 8.46201 10.0207L8.46485 10.032V10.0404C8.47348 10.208 8.42981 10.4195 8.29774 10.5962C8.16567 10.7729 7.9716 10.9309 7.66332 11.1407C7.37093 11.3396 7.29642 11.7296 7.49622 12.0209C7.69593 12.3121 8.0873 12.3835 8.37988 12.1845L8.39527 12.174C8.90209 11.8295 9.79537 11.2222 9.73086 9.97271C9.71552 9.69104 9.53966 9.18699 9.24655 8.62419C8.95343 8.06138 8.5506 7.43036 8.10798 6.82992C7.66537 6.22947 7.18413 5.6586 6.73435 5.21338C6.28456 4.76816 5.85326 4.45108 5.59295 4.35574Z" fill="url(#paint2_linear_2300_4952)"/>
<defs>
<linearGradient id="paint0_linear_2300_4952" x1="25.396" y1="12.1554" x2="0.599609" y2="12.1554" gradientUnits="userSpaceOnUse">
<stop stop-color="#C69848"/>
<stop offset="0.25" stop-color="#F9D597"/>
<stop offset="0.505208" stop-color="#C69848"/>
<stop offset="0.739583" stop-color="#F9D597"/>
<stop offset="1" stop-color="#C69848"/>
</linearGradient>
<linearGradient id="paint1_linear_2300_4952" x1="25.396" y1="12.1554" x2="0.599609" y2="12.1554" gradientUnits="userSpaceOnUse">
<stop stop-color="#C69848"/>
<stop offset="0.25" stop-color="#F9D597"/>
<stop offset="0.505208" stop-color="#C69848"/>
<stop offset="0.739583" stop-color="#F9D597"/>
<stop offset="1" stop-color="#C69848"/>
</linearGradient>
<linearGradient id="paint2_linear_2300_4952" x1="25.396" y1="12.1554" x2="0.599609" y2="12.1554" gradientUnits="userSpaceOnUse">
<stop stop-color="#C69848"/>
<stop offset="0.25" stop-color="#F9D597"/>
<stop offset="0.505208" stop-color="#C69848"/>
<stop offset="0.739583" stop-color="#F9D597"/>
<stop offset="1" stop-color="#C69848"/>
</linearGradient>
</defs>
</svg>
