<svg width="26" height="26" viewBox="0 0 26 26" fill="none" xmlns="http://www.w3.org/2000/svg">
<path fill-rule="evenodd" clip-rule="evenodd" d="M6.27248 2.2655C8.62709 0.653687 11.3759 0 13.0003 0C14.6247 0 17.3735 0.653687 19.7281 2.2655C22.1085 3.89496 24.1178 6.53042 24.1178 10.4652C24.1178 13.637 22.2542 16.8572 20.0392 19.5396C17.809 22.2405 15.1384 24.497 13.3496 25.7565L13.0038 26L12.6557 25.7598C10.9546 24.586 8.28215 22.432 6.02792 19.7588C3.78596 17.1 1.88281 13.8392 1.88281 10.4652C1.88281 6.53042 3.8921 3.89496 6.27248 2.2655ZM6.95804 3.23861C4.83133 4.69442 3.0847 6.99539 3.0847 10.4652C3.0847 13.4222 4.77054 16.4142 6.95221 19.0014C8.97342 21.3984 11.3562 23.3722 12.9966 24.5445C14.7024 23.2977 17.0953 21.2281 19.1071 18.7917C21.274 16.1675 22.9159 13.2171 22.9159 10.4652C22.9159 6.99539 21.1693 4.69442 19.0426 3.23861C16.8901 1.76516 14.3807 1.18474 13.0003 1.18474C11.62 1.18474 9.11052 1.76516 6.95804 3.23861Z" fill="url(#paint0_linear_2300_4997)"/>
<path fill-rule="evenodd" clip-rule="evenodd" d="M13.0003 13.2296C14.8257 13.2296 16.3055 11.7709 16.3055 9.97158C16.3055 8.17221 14.8257 6.71354 13.0003 6.71354C11.1749 6.71354 9.69511 8.17221 9.69511 9.97158C9.69511 11.7709 11.1749 13.2296 13.0003 13.2296ZM13.0003 14.4144C15.4895 14.4144 17.5074 12.4253 17.5074 9.97158C17.5074 7.5179 15.4895 5.5288 13.0003 5.5288C10.5111 5.5288 8.49322 7.5179 8.49322 9.97158C8.49322 12.4253 10.5111 14.4144 13.0003 14.4144Z" fill="url(#paint1_linear_2300_4997)"/>
<defs>
<linearGradient id="paint0_linear_2300_4997" x1="24.1178" y1="12.1365" x2="1.88281" y2="12.1365" gradientUnits="userSpaceOnUse">
<stop stop-color="#C69848"/>
<stop offset="0.25" stop-color="#F9D597"/>
<stop offset="0.505208" stop-color="#C69848"/>
<stop offset="0.739583" stop-color="#F9D597"/>
<stop offset="1" stop-color="#C69848"/>
</linearGradient>
<linearGradient id="paint1_linear_2300_4997" x1="24.1178" y1="12.1365" x2="1.88281" y2="12.1365" gradientUnits="userSpaceOnUse">
<stop stop-color="#C69848"/>
<stop offset="0.25" stop-color="#F9D597"/>
<stop offset="0.505208" stop-color="#C69848"/>
<stop offset="0.739583" stop-color="#F9D597"/>
<stop offset="1" stop-color="#C69848"/>
</linearGradient>
</defs>
</svg>
