<svg width="60" height="60" viewBox="0 0 60 60" fill="none" xmlns="http://www.w3.org/2000/svg">
<path d="M53.3508 56.9569L52.3795 47.8299C52.2265 46.4095 51.638 45.0711 50.6947 43.9983C49.7514 42.9254 48.4994 42.1704 47.1103 41.8369L36.3562 39.2681L35.9953 35.0217C38.5059 33.0861 40.3898 30.4529 41.4112 27.4519C41.5476 27.4617 41.684 27.472 41.8167 27.472C42.4335 27.4912 43.0466 27.3714 43.6108 27.1215C44.175 26.8716 44.6757 26.498 45.0759 26.0283C45.5603 25.4443 45.8879 24.7466 46.0279 24.001C46.1679 23.2553 46.1157 22.4863 45.8761 21.7664C45.7458 21.3825 45.5355 21.0306 45.259 20.734C44.9826 20.4375 44.6463 20.203 44.2725 20.0461C44.2429 20.0339 44.2134 20.0259 44.1839 20.0152V13.3261C44.1839 9.40829 42.0703 6.29485 38.0709 4.3261C34.8739 2.86429 31.3966 2.11694 27.8812 2.1361C22.8572 2.1361 20.7844 4.69782 20.2078 5.60485C18.9116 6.13313 17.8019 7.03526 17.0201 8.19635C16.2384 9.35744 15.8199 10.7249 15.8179 12.1247V20.0156C15.7884 20.0264 15.7584 20.0344 15.7289 20.0466C15.3551 20.2035 15.0189 20.438 14.7424 20.7346C14.466 21.0312 14.2556 21.383 14.1253 21.7669C13.8858 22.4868 13.8337 23.2558 13.9738 24.0015C14.1139 24.7471 14.4415 25.4448 14.9259 26.0288C15.326 26.4986 15.8267 26.8724 16.3909 27.1223C16.9551 27.3723 17.5683 27.4919 18.1851 27.4725C18.3178 27.4725 18.4542 27.4622 18.5906 27.4524C19.6122 30.4535 21.4961 33.0867 24.0065 35.0227L23.6456 39.2686L12.8915 41.8369C11.5025 42.1705 10.2506 42.9255 9.3074 43.9984C8.36418 45.0712 7.77577 46.4095 7.62279 47.8299L6.65107 56.9569C6.6281 57.1733 6.69203 57.39 6.82881 57.5593C6.96559 57.7286 7.16402 57.8367 7.38045 57.8597C7.40998 57.8625 7.43904 57.8639 7.4681 57.8639C7.67037 57.8636 7.86539 57.7886 8.01574 57.6532C8.16609 57.5179 8.26119 57.3319 8.28279 57.1308L9.25451 48.0038C9.37114 46.9204 9.81991 45.8996 10.5393 45.0812C11.2587 44.2629 12.2136 43.687 13.2731 43.4325L21.8076 41.3939L22.0654 44.2177V44.2209L23.2415 57.1186C23.2602 57.3222 23.3543 57.5115 23.5052 57.6493C23.6562 57.7872 23.8532 57.8637 24.0576 57.8639C24.0825 57.8639 24.1078 57.8639 24.1326 57.8606C24.2399 57.8509 24.3441 57.8202 24.4395 57.7701C24.5348 57.7201 24.6194 57.6518 24.6884 57.5691C24.7573 57.4864 24.8093 57.3909 24.8413 57.2881C24.8734 57.1853 24.8849 57.0772 24.8751 56.97L24.0745 48.1875L25.2956 50.5153C25.361 50.6397 25.4573 50.7451 25.5751 50.8216C25.693 50.8981 25.8285 50.9431 25.9687 50.9522H26.0226C26.1541 50.9522 26.2835 50.9205 26.4002 50.86C26.5168 50.7995 26.6172 50.7118 26.6929 50.6044L29.1806 47.0719V57.0413C29.1806 57.2588 29.267 57.4675 29.4209 57.6213C29.5747 57.7751 29.7834 57.8616 30.0009 57.8616C30.2185 57.8616 30.4271 57.7751 30.581 57.6213C30.7348 57.4675 30.8212 57.2588 30.8212 57.0413V47.0742L33.3089 50.6067C33.3846 50.7142 33.485 50.8018 33.6016 50.8624C33.7183 50.9229 33.8478 50.9545 33.9792 50.9545H34.0331C34.1733 50.9454 34.3088 50.9005 34.4267 50.824C34.5446 50.7475 34.6408 50.642 34.7062 50.5177L35.9273 48.1899L35.1267 56.9709C35.117 57.0782 35.1284 57.1863 35.1605 57.2891C35.1925 57.3919 35.2445 57.4873 35.3135 57.5701C35.3824 57.6528 35.467 57.7211 35.5623 57.7711C35.6577 57.8211 35.762 57.8519 35.8692 57.8616C35.894 57.8616 35.9194 57.8649 35.9442 57.8649C36.1486 57.8647 36.3456 57.7881 36.4966 57.6503C36.6476 57.5124 36.7416 57.3231 36.7603 57.1195L37.9364 44.2224V44.2186L38.1942 41.3948L46.7306 43.4325C47.7901 43.687 48.7451 44.2628 49.4646 45.0812C50.1841 45.8995 50.6329 46.9204 50.7497 48.0038L51.7214 57.1308C51.7429 57.3319 51.8379 57.5181 51.9883 57.6534C52.1387 57.7887 52.3338 57.8637 52.5361 57.8639C52.5651 57.8639 52.5942 57.8639 52.6237 57.8597C52.8397 57.8361 53.0376 57.7278 53.1739 57.5586C53.3101 57.3893 53.3738 57.173 53.3508 56.9569ZM44.3447 22.3495C44.4804 22.7964 44.5036 23.2698 44.4122 23.7277C44.3209 24.1857 44.1178 24.614 43.8211 24.9745C43.5811 25.2512 43.2828 25.4712 42.9477 25.6188C42.6125 25.7664 42.2489 25.8379 41.8828 25.8281C42.2093 24.4334 42.3879 23.0082 42.4158 21.5761C42.8229 21.4455 43.2603 21.4432 43.6687 21.5695C43.8307 21.6436 43.9748 21.7515 44.0914 21.8861C44.2081 22.0207 44.2944 22.1787 44.3447 22.3495ZM21.0478 7.0411C21.2509 6.96661 21.4174 6.81668 21.5128 6.62251C21.57 6.50626 22.9659 3.77673 27.8826 3.77673C29.1422 3.77673 33.5461 3.92204 37.3467 5.79563C40.7958 7.49626 42.5447 10.0299 42.5447 13.3261V19.8774C42.2556 19.9196 41.971 19.9881 41.6944 20.0822C41.092 19.6463 39.6787 18.3338 39.0422 15.2775C39.0036 15.0928 38.9025 14.9271 38.756 14.8083C38.6095 14.6894 38.4265 14.6247 38.2378 14.625C26.4028 14.625 22.6819 11.423 22.6514 11.3963C22.5345 11.2874 22.3883 11.215 22.2308 11.1881C22.0734 11.1612 21.9115 11.1808 21.765 11.2447C21.6186 11.3085 21.494 11.4137 21.4065 11.5474C21.3191 11.6811 21.2726 11.8374 21.2728 11.9972C21.2728 17.4577 19.0969 19.5183 18.3122 20.0836C18.0345 19.9891 17.7488 19.9202 17.4586 19.8778V12.1252C17.4601 11.0112 17.8058 9.92491 18.4482 9.01487C19.0907 8.10483 19.9986 7.41548 21.0478 7.0411ZM16.1826 24.9731C15.8857 24.6127 15.6826 24.1844 15.5912 23.7264C15.4999 23.2684 15.5232 22.7949 15.659 22.3481C15.7092 22.1778 15.7954 22.0202 15.9117 21.886C16.0279 21.7517 16.1717 21.644 16.3331 21.57C16.7414 21.4438 17.1787 21.4463 17.5856 21.577C17.6138 23.009 17.7926 24.434 18.119 25.8286C17.7531 25.8378 17.3897 25.7659 17.0549 25.618C16.7201 25.4701 16.4222 25.2499 16.1826 24.9731ZM19.2197 21.4449C20.2195 20.7309 22.4873 18.5681 22.8609 13.4714C24.8297 14.5308 29.2284 16.1799 37.5853 16.2614C38.3948 19.3936 39.9886 20.8758 40.7812 21.4439C40.6069 29.9105 35.5022 33.7842 32.4375 35.3499C31.6825 35.7344 30.8473 35.9349 30 35.9349C29.1527 35.9349 28.3175 35.7344 27.5625 35.3499C24.4997 33.7842 19.395 29.9105 19.2197 21.4449ZM26.8167 36.8109C27.8029 37.3132 28.8939 37.575 30.0007 37.575C31.1074 37.575 32.1985 37.3132 33.1847 36.8109C33.577 36.6108 34.0003 36.3745 34.4404 36.1022L34.7348 39.5663L30.0009 43.4259L25.2665 39.5663L25.5609 36.1022C26.0015 36.375 26.4248 36.6094 26.8167 36.8109ZM26.1248 48.5625L23.6873 43.912L23.4225 41.0058L24.2114 40.8183L28.8923 44.6353L26.1248 48.5625ZM36.3169 43.912L33.8794 48.5625L31.1137 44.6363L35.7947 40.8192L36.5836 41.0067L36.3169 43.912Z" fill="#615A9F"/>
</svg>
